<svg width="24" height="25" viewBox="0 0 24 25" fill="none" xmlns="http://www.w3.org/2000/svg">
<path d="M12 18.15C10.8526 18.15 9.66774 17.8422 8.47537 17.2388C7.54171 16.7649 6.60056 16.1088 5.67816 15.2866C4.12207 13.8975 3.16217 12.5205 3.12092 12.4638C2.95969 12.233 2.95969 11.917 3.12092 11.6862C3.16217 11.6295 4.12207 10.2525 5.67816 8.86335C6.60056 8.0412 7.54171 7.3851 8.47537 6.91125C9.66774 6.3078 10.8526 6 12 6C13.1474 6 14.3323 6.3078 15.5246 6.91125C16.4583 7.3851 17.3994 8.0412 18.3218 8.86335C19.8779 10.2525 20.8416 11.6295 20.8791 11.6862C21.0403 11.917 21.0403 12.233 20.8791 12.4638C20.8378 12.5205 19.8779 13.8975 18.3218 15.2866C17.3994 16.1088 16.4583 16.7649 15.5246 17.2388C14.3323 17.8422 13.1474 18.15 12 18.15ZM4.37329 12.075C5.31445 13.2779 8.42287 16.854 12 16.854C15.5846 16.854 18.6856 13.2779 19.6267 12.075C18.6856 10.8721 15.5771 7.296 12 7.296C8.41537 7.296 5.31445 10.8721 4.37329 12.075Z" fill="#C6FF36"/>
<path d="M11.9999 14.991C10.5113 14.991 9.30017 13.6828 9.30017 12.075C9.30017 10.4671 10.5113 9.15897 11.9999 9.15897C13.4885 9.15897 14.6996 10.4671 14.6996 12.075C14.6996 13.6828 13.4885 14.991 11.9999 14.991ZM11.9999 10.455C11.1712 10.455 10.5 11.1799 10.5 12.075C10.5 12.97 11.1712 13.695 11.9999 13.695C12.8286 13.695 13.4997 12.97 13.4997 12.075C13.4997 11.1799 12.8286 10.455 11.9999 10.455Z" fill="#C6FF36"/>
</svg>
