<svg width="26" height="26" viewBox="0 0 26 26" fill="none" xmlns="http://www.w3.org/2000/svg">
<path d="M24.5685 13.2666C24.5685 12.28 24.4866 11.56 24.3093 10.8133H12.7798V15.2666H19.5473C19.411 16.3733 18.6742 18.0399 17.0368 19.1599L17.0139 19.309L20.6593 22.0686L20.9118 22.0933C23.2313 19.9999 24.5685 16.9199 24.5685 13.2666Z" fill="#4285F4"/>
<path d="M12.7797 25C16.0952 25 18.8786 23.9333 20.9117 22.0933L17.0367 19.1599C15.9997 19.8666 14.608 20.3599 12.7797 20.3599C9.53233 20.3599 6.77619 18.2666 5.7937 15.3733L5.64969 15.3853L1.85914 18.2519L1.80957 18.3866C3.82892 22.3066 7.97681 25 12.7797 25Z" fill="#34A853"/>
<path d="M5.79397 15.3733C5.53473 14.6267 5.3847 13.8266 5.3847 13C5.3847 12.1733 5.53473 11.3733 5.78033 10.6266L5.77346 10.4676L1.9354 7.5549L1.80983 7.61327C0.977559 9.23995 0.5 11.0666 0.5 13C0.5 14.9333 0.977559 16.7599 1.80983 18.3866L5.79397 15.3733Z" fill="#FBBC05"/>
<path d="M12.7797 5.63995C15.0856 5.63995 16.641 6.61327 17.5279 7.42666L20.9936 4.11999C18.8651 2.18667 16.0953 1 12.7797 1C7.97683 1 3.82892 3.6933 1.80957 7.61325L5.78008 10.6266C6.77621 7.7333 9.53236 5.63995 12.7797 5.63995Z" fill="#EB4335"/>
</svg>
