<svg width="60" height="61" viewBox="0 0 60 61" fill="none" xmlns="http://www.w3.org/2000/svg">
<g opacity="0.05">
<rect y="0.333252" width="60" height="60" rx="30" fill="#9CE600"/>
<rect y="0.333252" width="60" height="60" rx="30" fill="url(#paint0_radial_1237_8727)" fill-opacity="0.9"/>
<rect y="0.333252" width="60" height="60" rx="30" fill="url(#paint1_radial_1237_8727)" fill-opacity="0.6" style="mix-blend-mode:lighten"/>
</g>
<g opacity="0.1">
<rect x="7" y="7.33325" width="45" height="45" rx="22.5" fill="#9CE600"/>
<rect x="7" y="7.33325" width="45" height="45" rx="22.5" fill="url(#paint2_radial_1237_8727)" fill-opacity="0.9"/>
<rect x="7" y="7.33325" width="45" height="45" rx="22.5" fill="url(#paint3_radial_1237_8727)" fill-opacity="0.6" style="mix-blend-mode:lighten"/>
</g>
<rect x="15.5" y="15.8333" width="29" height="29" rx="14.5" fill="#070C27"/>
<rect x="15.5" y="15.8333" width="29" height="29" rx="14.5" stroke="#9CE600"/>
<rect x="15.5" y="15.8333" width="29" height="29" rx="14.5" stroke="url(#paint4_radial_1237_8727)" stroke-opacity="0.9"/>
<rect x="15.5" y="15.8333" width="29" height="29" rx="14.5" stroke="url(#paint5_radial_1237_8727)" stroke-opacity="0.6" style="mix-blend-mode:lighten"/>
<path d="M30.854 20.5833H24V23.4316C24 25.001 25.2777 26.2741 26.8528 26.2741H28.6541L30.9759 22.4194C31.144 22.1393 31.5754 22.2579 31.5754 22.5854L31.5977 26.2459L33.2145 26.2385C33.5819 26.1851 33.9389 26.4134 34.0266 26.772C34.0549 26.8876 34.0519 27.0032 33.9924 27.1025L30.3334 33.0067C30.1653 33.2868 29.734 33.1682 29.734 32.8407V29.7715H29.6551L28.0948 29.773C28.0666 29.7775 28.0398 29.776 28.0115 29.773H26.7963C25.2524 29.773 24.0015 31.0194 24.0015 32.5576V39.3333H29.6566V35.4075L30.8272 35.4342C34.9369 35.4342 38.2806 32.1027 38.2806 28.008C38.2806 23.9133 34.9518 20.5996 30.854 20.5833Z" fill="#9CE600"/>
<path d="M30.854 20.5833H24V23.4316C24 25.001 25.2777 26.2741 26.8528 26.2741H28.6541L30.9759 22.4194C31.144 22.1393 31.5754 22.2579 31.5754 22.5854L31.5977 26.2459L33.2145 26.2385C33.5819 26.1851 33.9389 26.4134 34.0266 26.772C34.0549 26.8876 34.0519 27.0032 33.9924 27.1025L30.3334 33.0067C30.1653 33.2868 29.734 33.1682 29.734 32.8407V29.7715H29.6551L28.0948 29.773C28.0666 29.7775 28.0398 29.776 28.0115 29.773H26.7963C25.2524 29.773 24.0015 31.0194 24.0015 32.5576V39.3333H29.6566V35.4075L30.8272 35.4342C34.9369 35.4342 38.2806 32.1027 38.2806 28.008C38.2806 23.9133 34.9518 20.5996 30.854 20.5833Z" fill="url(#paint6_radial_1237_8727)" fill-opacity="0.9"/>
<path d="M30.854 20.5833H24V23.4316C24 25.001 25.2777 26.2741 26.8528 26.2741H28.6541L30.9759 22.4194C31.144 22.1393 31.5754 22.2579 31.5754 22.5854L31.5977 26.2459L33.2145 26.2385C33.5819 26.1851 33.9389 26.4134 34.0266 26.772C34.0549 26.8876 34.0519 27.0032 33.9924 27.1025L30.3334 33.0067C30.1653 33.2868 29.734 33.1682 29.734 32.8407V29.7715H29.6551L28.0948 29.773C28.0666 29.7775 28.0398 29.776 28.0115 29.773H26.7963C25.2524 29.773 24.0015 31.0194 24.0015 32.5576V39.3333H29.6566V35.4075L30.8272 35.4342C34.9369 35.4342 38.2806 32.1027 38.2806 28.008C38.2806 23.9133 34.9518 20.5996 30.854 20.5833Z" fill="url(#paint7_radial_1237_8727)" fill-opacity="0.6" style="mix-blend-mode:lighten"/>
<defs>
<radialGradient id="paint0_radial_1237_8727" cx="0" cy="0" r="1" gradientUnits="userSpaceOnUse" gradientTransform="translate(-0.26246 2.70442) rotate(61.4606) scale(68.0184 61.4333)">
<stop stop-color="#F4FFAF"/>
<stop offset="0.401042" stop-color="#DBFF00"/>
<stop offset="1" stop-color="#A6C100" stop-opacity="0"/>
</radialGradient>
<radialGradient id="paint1_radial_1237_8727" cx="0" cy="0" r="1" gradientUnits="userSpaceOnUse" gradientTransform="translate(65.3557 15.983) rotate(-11.2792) scale(99.4099 58.8589)">
<stop stop-color="#ADFF00"/>
<stop offset="1" stop-color="#F3F3F3" stop-opacity="0"/>
</radialGradient>
<radialGradient id="paint2_radial_1237_8727" cx="0" cy="0" r="1" gradientUnits="userSpaceOnUse" gradientTransform="translate(6.80315 9.11163) rotate(61.4606) scale(51.0138 46.075)">
<stop stop-color="#F4FFAF"/>
<stop offset="0.401042" stop-color="#DBFF00"/>
<stop offset="1" stop-color="#A6C100" stop-opacity="0"/>
</radialGradient>
<radialGradient id="paint3_radial_1237_8727" cx="0" cy="0" r="1" gradientUnits="userSpaceOnUse" gradientTransform="translate(56.0168 19.0705) rotate(-11.2792) scale(74.5574 44.1441)">
<stop stop-color="#ADFF00"/>
<stop offset="1" stop-color="#F3F3F3" stop-opacity="0"/>
</radialGradient>
<radialGradient id="paint4_radial_1237_8727" cx="0" cy="0" r="1" gradientUnits="userSpaceOnUse" gradientTransform="translate(14.8688 16.5188) rotate(61.4606) scale(34.0092 30.7166)">
<stop stop-color="#F4FFAF"/>
<stop offset="0.401042" stop-color="#DBFF00"/>
<stop offset="1" stop-color="#A6C100" stop-opacity="0"/>
</radialGradient>
<radialGradient id="paint5_radial_1237_8727" cx="0" cy="0" r="1" gradientUnits="userSpaceOnUse" gradientTransform="translate(47.6779 23.1581) rotate(-11.2792) scale(49.7049 29.4294)">
<stop stop-color="#ADFF00"/>
<stop offset="1" stop-color="#F3F3F3" stop-opacity="0"/>
</radialGradient>
<radialGradient id="paint6_radial_1237_8727" cx="0" cy="0" r="1" gradientUnits="userSpaceOnUse" gradientTransform="translate(23.9375 21.3242) rotate(67.5002) scale(20.2114 15.3772)">
<stop stop-color="#F4FFAF"/>
<stop offset="0.401042" stop-color="#DBFF00"/>
<stop offset="1" stop-color="#A6C100" stop-opacity="0"/>
</radialGradient>
<radialGradient id="paint7_radial_1237_8727" cx="0" cy="0" r="1" gradientUnits="userSpaceOnUse" gradientTransform="translate(39.5553 25.4738) rotate(-14.6741) scale(23.9859 18.1439)">
<stop stop-color="#ADFF00"/>
<stop offset="1" stop-color="#F3F3F3" stop-opacity="0"/>
</radialGradient>
</defs>
</svg>
