<svg width="28" height="28" viewBox="0 0 28 28" fill="none" xmlns="http://www.w3.org/2000/svg">
<path d="M7.00068 10.5011H4.90035C4.70782 10.5011 4.55029 10.6587 4.55029 10.8512V12.9515C4.55029 13.144 4.70782 13.3016 4.90035 13.3016H7.00068C7.19321 13.3016 7.35073 13.144 7.35073 12.9515V10.8512C7.35073 10.6587 7.19321 10.5011 7.00068 10.5011ZM6.65062 12.6015H5.2504V11.2012H6.65062V12.6015Z" fill="white"/>
<path d="M11.2014 10.5011H9.10103C8.9085 10.5011 8.75098 10.6587 8.75098 10.8512V12.9515C8.75098 13.144 8.9085 13.3016 9.10103 13.3016H11.2014C11.3939 13.3016 11.5514 13.144 11.5514 12.9515V10.8512C11.5514 10.6587 11.3974 10.5011 11.2014 10.5011ZM10.8513 12.6015H9.45109V11.2012H10.8513V12.6015Z" fill="white"/>
<path d="M15.7555 12.9515V10.8512C15.7555 10.6587 15.598 10.5011 15.4055 10.5011H13.3051C13.1126 10.5011 12.9551 10.6587 12.9551 10.8512V12.9515C12.9551 13.144 13.1126 13.3016 13.3051 13.3016H15.4055C15.598 13.3016 15.7555 13.144 15.7555 12.9515ZM15.0554 12.6015H13.6552V11.2012H15.0554V12.6015Z" fill="white"/>
<path d="M17.5058 13.3016H19.6061C19.7987 13.3016 19.9562 13.144 19.9562 12.9515V10.8512C19.9562 10.6587 19.7987 10.5011 19.6061 10.5011H17.5058C17.3133 10.5011 17.1558 10.6587 17.1558 10.8512V12.9515C17.1558 13.144 17.3133 13.3016 17.5058 13.3016ZM17.8559 11.2012H19.2561V12.6015H17.8559V11.2012Z" fill="white"/>
<path d="M7.00068 14.3517H4.90035C4.70782 14.3517 4.55029 14.5093 4.55029 14.7018V16.8021C4.55029 16.9947 4.70782 17.1522 4.90035 17.1522H7.00068C7.19321 17.1522 7.35073 16.9947 7.35073 16.8021V14.7018C7.35073 14.5093 7.19321 14.3517 7.00068 14.3517ZM6.65062 16.4521H5.2504V15.0519H6.65062V16.4521Z" fill="white"/>
<path d="M11.2014 14.3517H9.10103C8.9085 14.3517 8.75098 14.5093 8.75098 14.7018V16.8021C8.75098 16.9947 8.9085 17.1522 9.10103 17.1522H11.2014C11.3939 17.1522 11.5514 16.9947 11.5514 16.8021V14.7018C11.5514 14.5093 11.3974 14.3517 11.2014 14.3517ZM10.8513 16.4521H9.45109V15.0519H10.8513V16.4521Z" fill="white"/>
<path d="M7.00068 18.2024H4.90035C4.70782 18.2024 4.55029 18.3599 4.55029 18.5524V20.6527C4.55029 20.8453 4.70782 21.0028 4.90035 21.0028H7.00068C7.19321 21.0028 7.35073 20.8453 7.35073 20.6527V18.5524C7.35073 18.3599 7.19321 18.2024 7.00068 18.2024ZM6.65062 20.3027H5.2504V18.9025H6.65062V20.3027Z" fill="white"/>
<path d="M11.2014 18.2024H9.10103C8.9085 18.2024 8.75098 18.3599 8.75098 18.5524V20.6527C8.75098 20.8453 8.9085 21.0028 9.10103 21.0028H11.2014C11.3939 21.0028 11.5514 20.8453 11.5514 20.6527V18.5524C11.5514 18.3599 11.3974 18.2024 11.2014 18.2024ZM10.8513 20.3027H9.45109V18.9025H10.8513V20.3027Z" fill="white"/>
<path d="M24.759 18.934C24.731 18.7834 24.6085 18.6679 24.458 18.6469L23.7298 18.5349C23.6458 18.2724 23.5443 18.0238 23.4218 17.7893L23.8594 17.1907C23.8839 17.1592 23.9014 17.1242 23.9119 17.0857C23.9259 17.0472 23.9294 17.0087 23.9294 16.9702C23.9294 16.9001 23.9084 16.8301 23.8699 16.7741C23.4883 16.214 23.0052 15.731 22.4346 15.3319C22.3261 15.2584 22.1756 15.2514 22.0566 15.3179C22.0566 15.3179 22.0566 15.3179 22.0531 15.3179V6.20947C22.0531 5.68089 21.6225 5.25032 21.0904 5.25032H19.2491V4.37519C19.2491 3.69958 18.6996 3.14999 18.0239 3.14999C17.7019 3.14999 17.3938 3.27601 17.1558 3.50705C16.9248 3.73809 16.7988 4.04613 16.7988 4.37519V5.25032H7.69733V4.37519C7.69733 3.69958 7.14775 3.14999 6.47564 3.14999C6.14659 3.14999 5.83854 3.27601 5.60751 3.50705C5.37997 3.73809 5.25045 4.04613 5.25045 4.37519V5.25032H3.40916C2.88058 5.25032 2.45001 5.68089 2.45001 6.20947V21.7939C2.45001 22.3225 2.88058 22.7531 3.40916 22.7531H14.6249C14.6214 22.7566 14.6179 22.7601 14.6179 22.7636C14.5584 22.8791 14.5654 23.0191 14.6389 23.1241C14.7684 23.3131 14.884 23.4637 14.9995 23.5967C15.318 23.9642 15.6821 24.2898 16.0811 24.5663C16.2002 24.6504 16.3752 24.6434 16.4942 24.5558L17.0893 24.1183C17.3343 24.2443 17.5829 24.3493 17.8349 24.4298L17.9469 25.1614C17.9574 25.2349 17.9924 25.305 18.0449 25.3575C18.0975 25.41 18.164 25.4485 18.2375 25.459C18.5805 25.5185 18.9236 25.55 19.2631 25.55C19.6202 25.55 19.9527 25.5185 20.2818 25.459C20.3483 25.445 20.4113 25.4135 20.4603 25.368C20.5163 25.3155 20.5548 25.2384 20.5688 25.1614L20.6809 24.4298C20.9329 24.3493 21.1814 24.2443 21.4265 24.1183L22.0216 24.5558C22.0286 24.5593 22.0356 24.5663 22.0426 24.5698C22.1581 24.6504 22.3156 24.6504 22.4381 24.5698C22.8512 24.2863 23.2258 23.9467 23.5443 23.5652C23.6563 23.4322 23.7648 23.2886 23.8769 23.1241C23.9469 23.0191 23.9539 22.8791 23.8979 22.7671C23.8874 22.7496 23.8769 22.7286 23.8629 22.7111L23.4218 22.116C23.4673 22.0319 23.5093 21.9444 23.5548 21.8499C23.6248 21.6889 23.6808 21.5314 23.7298 21.3738L24.451 21.2618C24.605 21.2478 24.7345 21.1288 24.7625 20.9748C24.8255 20.6212 24.8535 20.2887 24.8535 19.9561C24.8535 19.6201 24.822 19.277 24.759 18.934ZM17.4989 4.37519C17.4989 4.23516 17.5549 4.09864 17.6494 4.00413C17.7544 3.90611 17.8874 3.8501 18.0239 3.8501C18.3145 3.8501 18.549 4.08464 18.549 4.37519V6.47551C18.549 6.61554 18.493 6.74856 18.3985 6.84307C18.297 6.94459 18.164 7.0006 18.0239 7.0006C17.7334 7.0006 17.4989 6.76606 17.4989 6.47551V4.37519ZM5.95056 4.37519C5.95056 4.23516 6.00657 4.10214 6.10458 4.00413C6.2026 3.90611 6.33562 3.8501 6.47564 3.8501C6.76269 3.8501 6.99722 4.08464 6.99722 4.37519V6.47551C6.99722 6.61554 6.94121 6.74856 6.8432 6.84657C6.74518 6.94459 6.61566 7.0006 6.47564 7.0006C6.1851 7.0006 5.95056 6.76606 5.95056 6.47551V4.37519ZM3.40916 5.95043H5.25045V6.47551C5.25045 7.15112 5.80004 7.70071 6.47564 7.70071C6.80119 7.70071 7.10924 7.57469 7.34028 7.34365C7.56781 7.11611 7.69733 6.80106 7.69733 6.47551V5.95043H16.7988V6.47551C16.7988 7.15112 17.3483 7.70071 18.0239 7.70071C18.346 7.70071 18.654 7.57469 18.8921 7.34365C19.1196 7.11611 19.2491 6.80106 19.2491 6.47551V5.95043H21.0904C21.2374 5.95043 21.353 6.06595 21.353 6.20947V8.74387H3.15012V6.20947C3.15012 6.06595 3.26914 5.95043 3.40916 5.95043ZM3.15012 21.7939V9.44398H21.353V15.752C21.1324 15.6399 20.9049 15.5454 20.6739 15.4719L20.5618 14.7438C20.5408 14.5968 20.4218 14.4743 20.2783 14.4463C19.6027 14.3167 18.9061 14.3202 18.234 14.4463C18.087 14.4743 17.9714 14.5968 17.9504 14.7438L17.8384 15.4719C17.5899 15.5524 17.3413 15.6574 17.0963 15.7835L16.4977 15.3494C16.4942 15.3459 16.4872 15.3424 16.4837 15.3389C16.3647 15.2549 16.2037 15.2514 16.0811 15.3354C15.5176 15.724 15.0345 16.2105 14.6389 16.7811C14.5654 16.8861 14.5584 17.0192 14.6109 17.1312C14.6214 17.1522 14.6319 17.1767 14.6494 17.1942L15.087 17.7928C14.9645 18.0273 14.8595 18.2759 14.7789 18.5384L14.0508 18.6504C13.9773 18.6609 13.9038 18.6959 13.8478 18.7484C13.7953 18.7974 13.7603 18.864 13.7463 18.9375C13.6868 19.2595 13.6553 19.6026 13.6553 19.9596C13.6553 20.3062 13.6833 20.6492 13.7428 20.9783C13.7673 21.1183 13.8758 21.2268 14.0088 21.2583C14.0228 21.2618 14.0368 21.2653 14.0508 21.2653L14.7824 21.3808C14.8279 21.5314 14.8875 21.6889 14.9645 21.8604C14.9925 21.9234 15.0275 21.9934 15.0625 22.06H3.40916C3.26914 22.0529 3.15012 21.9374 3.15012 21.7939ZM24.1079 20.6072L23.3973 20.7157C23.2608 20.7367 23.1487 20.8383 23.1137 20.9748C23.0612 21.1743 22.9947 21.3703 22.9142 21.5594C22.8477 21.6959 22.7777 21.8324 22.7007 21.9689C22.6307 22.0915 22.6377 22.242 22.7217 22.354L23.1522 22.9316C23.1032 22.9946 23.0542 23.0576 23.0052 23.1136C22.7777 23.3867 22.5186 23.6317 22.2351 23.8487L21.654 23.4217C21.542 23.3377 21.3915 23.3306 21.2725 23.4007C20.9504 23.5862 20.6144 23.7262 20.2748 23.8172C20.1383 23.8522 20.0403 23.9642 20.0193 24.1043L19.9107 24.8114C19.5082 24.8639 19.0601 24.8674 18.605 24.8079L18.4965 24.1043C18.4755 23.9677 18.374 23.8522 18.241 23.8172C17.9014 23.7297 17.5654 23.5897 17.2433 23.4007C17.1243 23.3306 16.9738 23.3377 16.8618 23.4217L16.2842 23.8452C16.0111 23.6352 15.7591 23.4007 15.5351 23.1416C15.479 23.0786 15.4265 23.0086 15.367 22.9316L15.7941 22.3505C15.8781 22.2385 15.8851 22.088 15.8151 21.9654C15.7241 21.8114 15.6611 21.6854 15.6086 21.5699C15.5071 21.3528 15.444 21.1673 15.402 20.9853C15.3705 20.8453 15.255 20.7367 15.115 20.7157L14.3974 20.6037C14.3694 20.3902 14.3589 20.1732 14.3589 19.9526C14.3589 19.7286 14.3729 19.5116 14.4009 19.3015L15.1115 19.193C15.2515 19.172 15.3635 19.0705 15.3985 18.934C15.4896 18.5769 15.6261 18.2444 15.8046 17.9503C15.8781 17.8278 15.8711 17.6773 15.7871 17.5617L15.36 16.9807C15.6261 16.6306 15.9341 16.3226 16.2807 16.0565L16.8618 16.4801C16.9738 16.5606 17.1208 16.5711 17.2398 16.5011C17.5654 16.3156 17.9014 16.1755 18.2375 16.0845C18.3705 16.0495 18.472 15.9375 18.493 15.801L18.6015 15.0974C19.0286 15.0379 19.4697 15.0379 19.9072 15.0974L20.0158 15.801C20.0368 15.9375 20.1383 16.0495 20.2713 16.0845C20.6144 16.1755 20.9504 16.3156 21.2725 16.5011C21.3915 16.5711 21.542 16.5606 21.654 16.4801L22.2316 16.0565C22.5817 16.3261 22.8897 16.6341 23.1522 16.9772L22.7252 17.5617C22.6412 17.6773 22.6342 17.8278 22.7077 17.9503C22.8862 18.2444 23.0227 18.5769 23.1172 18.9375C23.1522 19.074 23.2643 19.172 23.4043 19.193L24.1079 19.3015C24.1394 19.5221 24.1534 19.7426 24.1534 19.9561C24.1534 20.1697 24.1394 20.3832 24.1079 20.6072Z" fill="white"/>
<path d="M19.2561 17.3482C17.8174 17.3482 16.6482 18.5174 16.6482 19.9526C16.6482 21.3913 17.8174 22.5605 19.2561 22.5605C20.6913 22.5605 21.8605 21.3913 21.8605 19.9526C21.8605 18.5174 20.6913 17.3482 19.2561 17.3482ZM19.2561 21.8604C18.2059 21.8604 17.3483 21.0063 17.3483 19.9526C17.3483 18.9024 18.2059 18.0483 19.2561 18.0483C20.3063 18.0483 21.1604 18.9024 21.1604 19.9526C21.1604 21.0028 20.3063 21.8604 19.2561 21.8604Z" fill="white"/>
</svg>
