<svg width="28" height="28" viewBox="0 0 28 28" fill="none" xmlns="http://www.w3.org/2000/svg">
<path d="M9.91656 14.3335C9.91684 14.5545 10.0047 14.7663 10.1609 14.9225C10.3172 15.0787 10.529 15.1666 10.7499 15.1669C11.1552 15.166 11.5469 15.3132 11.8513 15.5808C12.1558 15.8484 12.352 16.218 12.4032 16.62C12.4543 17.0221 12.3569 17.429 12.1292 17.7644C11.9015 18.0997 11.5592 18.3403 11.1665 18.441V18.9168C11.1665 19.0273 11.1226 19.1333 11.0445 19.2114C10.9664 19.2896 10.8604 19.3335 10.7499 19.3335C10.6394 19.3335 10.5334 19.2896 10.4553 19.2114C10.3771 19.1333 10.3332 19.0273 10.3332 18.9168V18.441C9.97634 18.3492 9.66001 18.1415 9.4338 17.8506C9.20759 17.5597 9.0843 17.202 9.08324 16.8335C9.08324 16.723 9.12713 16.617 9.20527 16.5389C9.28341 16.4607 9.38939 16.4168 9.4999 16.4168C9.6104 16.4168 9.71638 16.4607 9.79452 16.5389C9.87266 16.617 9.91656 16.723 9.91656 16.8335C9.91656 16.9983 9.96543 17.1594 10.057 17.2965C10.1486 17.4335 10.2787 17.5403 10.431 17.6034C10.5832 17.6665 10.7508 17.683 10.9124 17.6508C11.0741 17.6187 11.2226 17.5393 11.3391 17.4228C11.4557 17.3062 11.535 17.1577 11.5672 16.9961C11.5993 16.8344 11.5828 16.6669 11.5198 16.5146C11.4567 16.3623 11.3499 16.2322 11.2128 16.1406C11.0758 16.0491 10.9147 16.0002 10.7499 16.0002C10.3446 16.001 9.95287 15.8538 9.64843 15.5862C9.344 15.3186 9.14775 14.9491 9.09659 14.547C9.04542 14.1449 9.14284 13.738 9.37056 13.4027C9.59827 13.0674 9.9406 12.8268 10.3332 12.7261V12.2502C10.3332 12.1397 10.3771 12.0338 10.4553 11.9556C10.5334 11.8775 10.6394 11.8336 10.7499 11.8336C10.8604 11.8336 10.9664 11.8775 11.0445 11.9556C11.1226 12.0338 11.1665 12.1397 11.1665 12.2502V12.7261C11.5234 12.8179 11.8397 13.0255 12.066 13.3164C12.2922 13.6073 12.4155 13.965 12.4165 14.3335C12.4165 14.444 12.3726 14.55 12.2945 14.6282C12.2163 14.7063 12.1104 14.7502 11.9999 14.7502C11.8894 14.7502 11.7834 14.7063 11.7052 14.6282C11.6271 14.55 11.5832 14.444 11.5832 14.3335C11.5832 14.1125 11.4954 13.9006 11.3391 13.7443C11.1828 13.588 10.9709 13.5002 10.7499 13.5002C10.5289 13.5002 10.3169 13.588 10.1606 13.7443C10.0044 13.9006 9.91656 14.1125 9.91656 14.3335ZM14.0832 23.0834C14.0832 23.1381 14.0724 23.1923 14.0515 23.2429C14.0306 23.2935 13.9999 23.3394 13.9612 23.3781C13.9225 23.4168 13.8765 23.4475 13.826 23.4684C13.7754 23.4893 13.7212 23.5001 13.6665 23.5001H6.99994C5.67432 23.4986 4.40341 22.9714 3.46606 22.034C2.5287 21.0967 2.00146 19.8258 2.00002 18.5001C2.00002 13.7436 5.39921 9.86546 6.88682 8.39572C6.67292 8.30136 6.49102 8.14694 6.36317 7.95121C6.23533 7.75547 6.16705 7.52683 6.16662 7.29305V6.79094C6.16753 6.53375 6.25071 6.28361 6.40399 6.07709C6.55728 5.87058 6.77262 5.71853 7.01853 5.64319C6.48747 4.89317 6.19098 4.0024 6.16662 3.08372C6.16662 1.15057 7.12323 1.00042 7.4166 1.00042C7.77276 0.993408 8.12447 1.08042 8.43628 1.2527C8.63485 1.36057 8.85725 1.41708 9.08324 1.41708C9.30922 1.41708 9.53162 1.36057 9.7302 1.2527C10.0445 1.08701 10.3945 1.00042 10.7499 1.00042C11.1052 1.00042 11.4552 1.08701 11.7696 1.2527C11.9681 1.36057 12.1905 1.41708 12.4165 1.41708C12.6425 1.41708 12.8649 1.36057 13.0635 1.2527C13.3753 1.08042 13.727 0.993408 14.0832 1.00042C14.3765 1.00042 15.3331 1.15057 15.3331 3.08372C15.3088 4.0024 15.0123 4.89317 14.4812 5.64319C14.7271 5.71852 14.9425 5.87057 15.0958 6.07709C15.2491 6.2836 15.3322 6.53375 15.3331 6.79094V7.29305C15.3327 7.52725 15.2642 7.75628 15.136 7.95226C15.0078 8.14823 14.8253 8.3027 14.6109 8.39685C15.9114 9.68789 17.0226 11.1566 17.9112 12.7593C17.9638 12.8564 17.9757 12.9704 17.9443 13.0763C17.9129 13.1822 17.8408 13.2713 17.7438 13.324C17.6467 13.3767 17.5327 13.3888 17.4268 13.3575C17.3209 13.3262 17.2317 13.2542 17.1788 13.1572C16.2096 11.4205 14.9708 9.84862 13.5087 8.5003H7.99126C7.23853 9.18058 2.83334 13.3827 2.83334 18.5001C2.83463 19.6048 3.27403 20.6638 4.05514 21.4449C4.83625 22.2261 5.89528 22.6654 6.99994 22.6667H13.6665C13.7212 22.6667 13.7754 22.6775 13.826 22.6984C13.8765 22.7193 13.9225 22.75 13.9612 22.7887C13.9999 22.8274 14.0306 22.8734 14.0515 22.9239C14.0724 22.9745 14.0832 23.0287 14.0832 23.0834ZM6.99994 3.08372C7.04847 4.00789 7.40729 4.88868 8.01837 5.58368H13.4814C14.0925 4.88868 14.4513 4.00789 14.4998 3.08372C14.4998 2.22477 14.2838 1.83374 14.0832 1.83374C13.8563 1.82659 13.6321 1.88356 13.4362 1.99813C13.1218 2.16381 12.7719 2.2504 12.4165 2.2504C12.0612 2.2504 11.7112 2.16381 11.3968 1.99813C11.1983 1.89025 10.9759 1.83374 10.7499 1.83374C10.5239 1.83374 10.3015 1.89025 10.1029 1.99813C9.79111 2.1704 9.4394 2.25742 9.08324 2.2504C8.72708 2.25742 8.37536 2.1704 8.06356 1.99813C7.86766 1.88356 7.64342 1.82659 7.4166 1.83374C7.216 1.83374 6.99994 2.22477 6.99994 3.08372ZM6.99994 7.29305C7.00001 7.3922 7.03943 7.48727 7.10954 7.55738C7.17965 7.62749 7.27472 7.66691 7.37387 7.66698H14.1259C14.225 7.66691 14.3201 7.62749 14.3902 7.55738C14.4603 7.48727 14.4997 7.3922 14.4998 7.29305V6.79094C14.4997 6.69179 14.4603 6.59672 14.3902 6.52661C14.3201 6.4565 14.225 6.41708 14.1259 6.417H7.37387C7.27472 6.41708 7.17965 6.4565 7.10954 6.52661C7.03943 6.59672 7.00001 6.69179 6.99994 6.79094V7.29305ZM26.9996 18.7821V19.8848C27.0002 20.0515 26.9504 20.2146 26.8569 20.3526C26.7633 20.4906 26.6302 20.5971 26.4751 20.6583L25.4644 21.0628C25.3871 21.2951 25.2939 21.5219 25.1857 21.7415L25.6133 22.7404C25.6795 22.8933 25.6981 23.0626 25.6666 23.2262C25.6351 23.3899 25.555 23.5402 25.4367 23.6575L24.6571 24.4371C24.5397 24.5554 24.3894 24.6355 24.2258 24.667C24.0622 24.6985 23.8929 24.6799 23.74 24.6137L22.7411 24.1857C22.5215 24.2941 22.2947 24.3874 22.0624 24.4648L21.6579 25.4759C21.5966 25.631 21.49 25.7639 21.3521 25.8574C21.2141 25.9509 21.0511 26.0006 20.8844 26H19.7817C19.615 26.0006 19.452 25.9508 19.3139 25.8573C19.1759 25.7637 19.0694 25.6306 19.0082 25.4755L18.6038 24.4648C18.3714 24.3874 18.1447 24.2941 17.9251 24.1857L16.9261 24.6137C16.7732 24.68 16.6039 24.6985 16.4403 24.667C16.2767 24.6355 16.1264 24.5554 16.009 24.4371L15.2294 23.6575C15.1111 23.5402 15.031 23.3899 14.9995 23.2262C14.968 23.0626 14.9866 22.8933 15.0528 22.7404L15.4804 21.7415C15.3722 21.5219 15.279 21.2951 15.2017 21.0628L14.1906 20.6583C14.0356 20.597 13.9026 20.4904 13.8091 20.3525C13.7156 20.2145 13.6659 20.0515 13.6665 19.8848V18.7821C13.6659 18.6154 13.7157 18.4524 13.8093 18.3144C13.9028 18.1763 14.0359 18.0698 14.191 18.0086L15.2017 17.6042C15.2792 17.3718 15.3724 17.1451 15.4808 16.9255L15.0528 15.9265C14.9866 15.7736 14.968 15.6043 14.9995 15.4407C15.031 15.2771 15.1111 15.1268 15.2294 15.0094L16.009 14.2298C16.1263 14.1114 16.2766 14.0311 16.4402 13.9996C16.6039 13.9681 16.7733 13.9868 16.9261 14.0532L17.9251 14.4809C18.1447 14.3726 18.3714 14.2794 18.6038 14.2021L19.0082 13.191C19.0695 13.036 19.1761 12.903 19.3141 12.8095C19.4521 12.716 19.615 12.6663 19.7817 12.6669H20.8844C21.0511 12.6663 21.2142 12.7161 21.3522 12.8097C21.4902 12.9032 21.5967 13.0363 21.6579 13.1914L22.0624 14.2021C22.2947 14.2794 22.5214 14.3726 22.7411 14.4809L23.74 14.0532C23.8928 13.9867 24.0622 13.968 24.2259 13.9995C24.3896 14.031 24.5399 14.1113 24.6571 14.2298L25.4367 15.0094C25.555 15.1268 25.6351 15.2771 25.6666 15.4407C25.6981 15.6043 25.6796 15.7736 25.6133 15.9265L25.1853 16.9255C25.2936 17.145 25.3869 17.3716 25.4644 17.6038L26.4755 18.0082C26.6305 18.0696 26.7634 18.1763 26.8569 18.3144C26.9504 18.4524 27.0001 18.6154 26.9996 18.7821ZM26.1663 18.7821L24.9717 18.3044C24.9131 18.281 24.8606 18.2446 24.8182 18.1979C24.7757 18.1513 24.7445 18.0956 24.7267 18.0351C24.6363 17.7252 24.513 17.4259 24.3589 17.1423C24.3287 17.0869 24.3115 17.0254 24.3085 16.9624C24.3056 16.8994 24.3169 16.8366 24.3418 16.7786L24.8476 15.5986L24.0679 14.819L22.888 15.3243C22.8301 15.3493 22.7673 15.3607 22.7043 15.3577C22.6414 15.3548 22.5799 15.3375 22.5246 15.3072C22.2407 15.1536 21.9413 15.0304 21.6315 14.9398C21.5709 14.9221 21.5153 14.8908 21.4686 14.8483C21.4219 14.8059 21.3855 14.7534 21.3621 14.6949L20.884 13.5002H19.7817L19.304 14.6949C19.2806 14.7534 19.2442 14.8059 19.1975 14.8484C19.1509 14.8908 19.0952 14.9221 19.0347 14.9398C18.7248 15.0304 18.4254 15.1536 18.1415 15.3072C18.0862 15.3375 18.0248 15.3548 17.9618 15.3577C17.8989 15.3607 17.836 15.3493 17.7782 15.3243L16.5982 14.819L15.8185 15.5986L16.3243 16.7786C16.3492 16.8365 16.3605 16.8994 16.3576 16.9624C16.3546 17.0254 16.3374 17.0869 16.3072 17.1423C16.1531 17.4259 16.0298 17.7252 15.9394 18.035C15.9216 18.0956 15.8904 18.1513 15.8479 18.1979C15.8055 18.2446 15.753 18.281 15.6945 18.3044L14.4998 18.7825V19.8848L15.6945 20.3625C15.753 20.3859 15.8055 20.4223 15.8479 20.469C15.8904 20.5156 15.9217 20.5713 15.9394 20.6319C16.03 20.9417 16.1532 21.2411 16.3068 21.525C16.337 21.5803 16.3542 21.6418 16.3572 21.7047C16.3601 21.7677 16.3488 21.8305 16.3239 21.8884L15.8186 23.0683L16.5982 23.848L17.7782 23.3422C17.8299 23.3198 17.8857 23.3083 17.9421 23.3084C18.0119 23.3085 18.0806 23.326 18.1419 23.3593C18.4255 23.5134 18.7248 23.6367 19.0346 23.7271C19.0952 23.7449 19.1509 23.7762 19.1975 23.8186C19.2442 23.861 19.2806 23.9135 19.304 23.9721L19.7821 25.1667H20.8844L21.3621 23.9721C21.3855 23.9135 21.4219 23.861 21.4686 23.8186C21.5152 23.7761 21.5709 23.7449 21.6315 23.7271C21.9413 23.6367 22.2406 23.5134 22.5242 23.3593C22.5795 23.329 22.6411 23.3118 22.7041 23.3088C22.7671 23.3058 22.83 23.3173 22.8879 23.3422L24.0679 23.848L24.8476 23.0684L24.3422 21.8884C24.3174 21.8305 24.306 21.7677 24.3089 21.7047C24.3119 21.6418 24.3291 21.5803 24.3593 21.525C24.513 21.2411 24.6361 20.9417 24.7267 20.6319C24.7445 20.5714 24.7757 20.5157 24.8182 20.469C24.8606 20.4223 24.9131 20.3859 24.9717 20.3625L26.1663 19.8844V18.7821ZM23.6663 19.3335C23.6663 19.9927 23.4708 20.6372 23.1046 21.1853C22.7383 21.7335 22.2177 22.1607 21.6086 22.413C20.9996 22.6653 20.3294 22.7313 19.6828 22.6027C19.0362 22.4741 18.4422 22.1566 17.9761 21.6904C17.5099 21.2243 17.1924 20.6303 17.0638 19.9838C16.9352 19.3372 17.0012 18.667 17.2535 18.0579C17.5058 17.4488 17.933 16.9282 18.4812 16.5619C19.0293 16.1957 19.6738 16.0002 20.3331 16.0002C21.2168 16.0012 22.064 16.3527 22.6889 16.9776C23.3138 17.6025 23.6653 18.4497 23.6663 19.3335ZM22.833 19.3335C22.833 18.839 22.6864 18.3557 22.4117 17.9446C22.137 17.5334 21.7466 17.213 21.2898 17.0238C20.8329 16.8346 20.3303 16.7851 19.8453 16.8815C19.3604 16.978 18.9149 17.2161 18.5653 17.5657C18.2157 17.9154 17.9776 18.3608 17.8811 18.8457C17.7847 19.3307 17.8342 19.8334 18.0234 20.2902C18.2126 20.747 18.533 21.1374 18.9442 21.4121C19.3553 21.6868 19.8386 21.8334 20.3331 21.8334C20.9959 21.8327 21.6313 21.5691 22.1 21.1004C22.5687 20.6317 22.8323 19.9963 22.833 19.3335Z" fill="white"/>
</svg>
