<svg width="28" height="28" viewBox="0 0 28 28" fill="none" xmlns="http://www.w3.org/2000/svg">
<path d="M23.9613 10.2785H21.9132C20.9015 10.2785 20.0757 9.45548 20.0757 8.44103V5.45782H25.7961V8.44376C25.7961 9.45548 24.973 10.2785 23.9613 10.2785ZM21.1695 6.55157V8.44376C21.1695 8.85392 21.5031 9.18751 21.9132 9.18751H23.9613C24.3714 9.18751 24.705 8.85392 24.705 8.44376V6.55157H21.1695Z" fill="white"/>
<path d="M22.2551 3.91837H21.1613V6.00469H22.2551V3.91837Z" fill="white"/>
<path d="M24.7105 3.91837H23.6168V6.00469H24.7105V3.91837Z" fill="white"/>
<path d="M16.2367 22.4109H3.84999V4.13712C3.84999 3.28946 4.53905 2.6004 5.38671 2.6004H14.6972C15.5449 2.6004 16.234 3.28946 16.234 4.13712V22.4109H16.2367ZM4.94647 21.3172H15.1457V4.13712C15.1457 3.89376 14.9461 3.69415 14.7027 3.69415H5.38944C5.14608 3.69415 4.94647 3.89376 4.94647 4.13712V21.3172Z" fill="white"/>
<path d="M18.148 25.0223H2.45001V22.7035C2.45001 21.8559 3.13907 21.1668 3.98673 21.1668H16.6113C17.459 21.1668 18.148 21.8559 18.148 22.7035V25.0223ZM3.54376 23.9285H17.057V22.7035C17.057 22.4602 16.8574 22.2606 16.6141 22.2606H3.98673C3.74337 22.2606 3.54376 22.4602 3.54376 22.7035V23.9285Z" fill="white"/>
<path d="M7.23788 9.68517C7.0328 9.68517 6.83866 9.60587 6.69374 9.45822C6.54609 9.3133 6.46679 9.11642 6.46679 8.91134V5.69299C6.46679 5.26642 6.81405 4.91916 7.24062 4.91916H13.3547C13.7812 4.91916 14.1285 5.26642 14.1285 5.69299V8.91408C14.1285 9.34064 13.7812 9.6879 13.3547 9.6879H7.23788C7.24062 9.68517 7.24062 9.68517 7.23788 9.68517ZM7.56054 6.01291V8.59142H13.0348V6.01291H7.56054Z" fill="white"/>
<path d="M20.8359 20.8879C19.3758 20.8879 18.1863 19.6984 18.1863 18.2383V13.3957C18.1863 13.1387 17.9758 12.9281 17.7188 12.9281H15.9441V11.8344H17.7188C18.5801 11.8344 19.2801 12.5344 19.2801 13.3957V18.241C19.2801 19.0996 19.9773 19.7969 20.8359 19.7969C21.6945 19.7969 22.3918 19.0996 22.3918 18.241V9.73166H23.4855V18.2383C23.4828 19.7012 22.2961 20.8879 20.8359 20.8879Z" fill="white"/>
<path d="M10.2663 17.6829C10.1865 17.6824 10.1082 17.6655 10.0388 17.6339C9.93981 17.586 9.86854 17.5086 9.84066 17.4188C9.81278 17.3289 9.83056 17.2338 9.89009 17.1544L11.0801 15.5689H9.19009C9.11222 15.5693 9.03563 15.553 8.96824 15.5218C8.90086 15.4906 8.84511 15.4455 8.80676 15.3913C8.76841 15.3371 8.74885 15.2756 8.75009 15.2133C8.75134 15.151 8.77335 15.0901 8.81384 15.0369L10.402 12.9369C10.4258 12.8907 10.4618 12.849 10.5074 12.8148C10.5531 12.7806 10.6074 12.7547 10.6666 12.7387C10.7259 12.7227 10.7887 12.717 10.851 12.7221C10.9132 12.7272 10.9733 12.7429 11.0273 12.7682C11.0813 12.7934 11.1279 12.8277 11.1639 12.8685C11.2 12.9094 11.2247 12.956 11.2363 13.0052C11.248 13.0544 11.2463 13.1049 11.2314 13.1535C11.2165 13.2021 11.1888 13.2476 11.1501 13.2869L9.96447 14.8724H11.8326C11.9101 14.8725 11.9862 14.8891 12.0531 14.9205C12.12 14.9518 12.1752 14.9969 12.2132 15.0509C12.2516 15.1041 12.2718 15.1645 12.2718 15.2259C12.2718 15.2874 12.2516 15.3477 12.2132 15.4009L10.6295 17.5009C10.5935 17.5536 10.5413 17.598 10.4777 17.6299C10.4141 17.6618 10.3413 17.68 10.2663 17.6829Z" fill="white"/>
</svg>
