<svg width="28" height="28" viewBox="0 0 28 28" fill="none" xmlns="http://www.w3.org/2000/svg">
<path d="M16.2623 18.0376C16.2623 18.6495 16.1418 19.2554 15.9077 19.8206C15.6735 20.3859 15.3303 20.8995 14.8977 21.3322C14.465 21.7648 13.9514 22.108 13.3861 22.3422C12.8208 22.5763 12.215 22.6968 11.6031 22.6968H9.77191C9.16048 22.698 8.55484 22.5784 7.98977 22.3449C7.42469 22.1114 6.91131 21.7685 6.47911 21.336C5.82788 20.6841 5.38458 19.8537 5.20527 18.9499C5.02597 18.046 5.1187 17.1093 5.47175 16.2581C5.8248 15.407 6.42231 14.6796 7.18872 14.168C7.95514 13.6565 8.85604 13.3836 9.77751 13.384H11.6087C12.844 13.3855 14.0282 13.8769 14.9016 14.7503C15.7751 15.6238 16.2664 16.808 16.2679 18.0432L16.2623 18.0376Z" stroke="white" stroke-miterlimit="10"/>
<path d="M10.6904 10.9087C12.3388 10.9087 13.6752 9.57241 13.6752 7.92395C13.6752 6.27549 12.3388 4.93915 10.6904 4.93915C9.04191 4.93915 7.70557 6.27549 7.70557 7.92395C7.70557 9.57241 9.04191 10.9087 10.6904 10.9087Z" stroke="white" stroke-miterlimit="10"/>
<mask id="path-3-inside-1_87_793" fill="white">
<path d="M23.7662 9.72723H23.2398C23.187 9.7275 23.1356 9.70996 23.0939 9.67745C23.0523 9.64494 23.0228 9.59935 23.0102 9.54803C22.941 9.29697 22.8393 9.05601 22.7078 8.83123C22.6822 8.78492 22.6722 8.7316 22.6793 8.67915C22.6863 8.62671 22.7101 8.57793 22.747 8.54003L23.1222 8.16483C23.1444 8.14342 23.162 8.11775 23.1741 8.08937C23.1861 8.06099 23.1924 8.03047 23.1924 7.99963C23.1924 7.9688 23.1861 7.93828 23.1741 7.9099C23.162 7.88151 23.1444 7.85585 23.1222 7.83443L22.5622 7.27443C22.5403 7.25208 22.5142 7.23433 22.4853 7.2222C22.4565 7.21008 22.4255 7.20384 22.3942 7.20384C22.3629 7.20384 22.3319 7.21008 22.3031 7.2222C22.2742 7.23433 22.2481 7.25208 22.2262 7.27443L21.851 7.64963C21.8138 7.68604 21.7656 7.70909 21.7139 7.71517C21.6623 7.72125 21.61 7.71002 21.5654 7.68323C21.3389 7.55249 21.096 7.45267 20.843 7.38643C20.7932 7.37196 20.7494 7.3418 20.7181 7.30043C20.6868 7.25906 20.6698 7.2087 20.6694 7.15683V6.59683C20.6694 6.53445 20.6446 6.47463 20.6005 6.43052C20.5564 6.38641 20.4966 6.36163 20.4342 6.36163H19.6558C19.5934 6.36163 19.5336 6.38641 19.4895 6.43052C19.4454 6.47463 19.4206 6.53445 19.4206 6.59683V7.15683C19.4199 7.20942 19.402 7.26034 19.3697 7.3018C19.3373 7.34326 19.2923 7.37298 19.2414 7.38643C18.9906 7.4537 18.7496 7.55348 18.5246 7.68323C18.4789 7.70955 18.4259 7.72049 18.3735 7.71445C18.321 7.7084 18.2719 7.68568 18.2334 7.64963L17.8582 7.27443C17.8368 7.25225 17.8111 7.2346 17.7827 7.22255C17.7544 7.2105 17.7238 7.20429 17.693 7.20429C17.6622 7.20429 17.6317 7.2105 17.6033 7.22255C17.5749 7.2346 17.5492 7.25225 17.5278 7.27443L16.9678 7.83443C16.9456 7.85585 16.928 7.88151 16.9159 7.9099C16.9039 7.93828 16.8977 7.9688 16.8977 7.99963C16.8977 8.03047 16.9039 8.06099 16.9159 8.08937C16.928 8.11775 16.9456 8.14342 16.9678 8.16483L17.343 8.54003C17.3791 8.57858 17.4018 8.62767 17.4078 8.68009C17.4139 8.73252 17.4029 8.7855 17.3766 8.83123C17.2469 9.05621 17.1471 9.29718 17.0798 9.54803C17.0664 9.59888 17.0366 9.64392 16.9952 9.67628C16.9537 9.70864 16.9028 9.72654 16.8502 9.72723H16.3182C16.2558 9.72723 16.196 9.75201 16.1519 9.79612C16.1078 9.84023 16.083 9.90006 16.083 9.96243V10.7576C16.083 10.82 16.1078 10.8798 16.1519 10.9239C16.196 10.9681 16.2558 10.9928 16.3182 10.9928H16.8502C16.9021 10.9932 16.9524 11.0103 16.9938 11.0416C17.0352 11.0728 17.0653 11.1166 17.0798 11.1664C17.146 11.4194 17.2459 11.6624 17.3766 11.8888C17.4034 11.9334 17.4146 11.9857 17.4085 12.0374C17.4025 12.089 17.3794 12.1373 17.343 12.1744L16.9678 12.5496C16.924 12.5946 16.8995 12.6549 16.8995 12.7176C16.8995 12.7804 16.924 12.8407 16.9678 12.8856L17.5278 13.4456C17.5492 13.4678 17.5749 13.4855 17.6033 13.4975C17.6317 13.5096 17.6622 13.5158 17.693 13.5158C17.7238 13.5158 17.7544 13.5096 17.7827 13.4975C17.8111 13.4855 17.8368 13.4678 17.8582 13.4456L18.2334 13.0704C18.2713 13.0335 18.3201 13.0097 18.3725 13.0027C18.425 12.9956 18.4783 13.0056 18.5246 13.0312C18.7505 13.1604 18.9912 13.262 19.2414 13.3336C19.2927 13.3462 19.3383 13.3757 19.3708 13.4174C19.4033 13.459 19.4209 13.5104 19.4206 13.5632V14.0896C19.4199 14.121 19.4254 14.1522 19.4369 14.1814C19.4484 14.2105 19.4656 14.2371 19.4875 14.2596C19.5094 14.282 19.5356 14.2998 19.5645 14.312C19.5934 14.3242 19.6244 14.3304 19.6558 14.3304H20.4342C20.4656 14.3304 20.4966 14.3242 20.5255 14.312C20.5544 14.2998 20.5806 14.282 20.6025 14.2596C20.6244 14.2371 20.6417 14.2105 20.6531 14.1814C20.6646 14.1522 20.6702 14.121 20.6694 14.0896V13.5576C20.6688 13.5055 20.6856 13.4547 20.717 13.4132C20.7484 13.3716 20.7927 13.3417 20.843 13.328C21.0954 13.2574 21.338 13.1559 21.5654 13.0256C21.6106 12.9996 21.6632 12.9893 21.7149 12.9963C21.7666 13.0034 21.8145 13.0275 21.851 13.0648L22.2262 13.44C22.2481 13.4624 22.2742 13.4801 22.3031 13.4923C22.3319 13.5044 22.3629 13.5106 22.3942 13.5106C22.4255 13.5106 22.4565 13.5044 22.4853 13.4923C22.5142 13.4801 22.5403 13.4624 22.5622 13.44L23.1222 12.88C23.1446 12.8581 23.1623 12.832 23.1744 12.8031C23.1866 12.7743 23.1928 12.7433 23.1928 12.712C23.1928 12.6807 23.1866 12.6498 23.1744 12.6209C23.1623 12.5921 23.1446 12.5659 23.1222 12.544L22.747 12.1688C22.7097 12.1323 22.6856 12.0844 22.6785 12.0327C22.6714 11.981 22.6817 11.9284 22.7078 11.8832C22.8404 11.657 22.9421 11.414 23.0102 11.1608C23.0238 11.1106 23.0538 11.0662 23.0954 11.0348C23.1369 11.0034 23.1877 10.9867 23.2398 10.9872H23.7662C23.7976 10.988 23.8287 10.9824 23.8579 10.971C23.8871 10.9595 23.9137 10.9423 23.9362 10.9204C23.9586 10.8984 23.9764 10.8723 23.9886 10.8434C24.0008 10.8144 24.007 10.7834 24.007 10.752V9.97363C24.0086 9.94134 24.0034 9.90907 23.992 9.87885C23.9805 9.84863 23.9629 9.82109 23.9403 9.79797C23.9177 9.77485 23.8906 9.75663 23.8606 9.74446C23.8307 9.73229 23.7985 9.72643 23.7662 9.72723ZM20.0534 11.5136C19.823 11.5136 19.5978 11.4453 19.4063 11.3173C19.2147 11.1893 19.0654 11.0074 18.9773 10.7946C18.8891 10.5817 18.866 10.3475 18.911 10.1216C18.9559 9.89564 19.0669 9.6881 19.2298 9.5252C19.3927 9.3623 19.6002 9.25136 19.8262 9.20641C20.0521 9.16147 20.2863 9.18454 20.4992 9.2727C20.712 9.36086 20.8939 9.51015 21.0219 9.7017C21.1499 9.89326 21.2182 10.1185 21.2182 10.3488C21.2182 10.6578 21.0955 10.954 20.877 11.1725C20.6586 11.3909 20.3623 11.5136 20.0534 11.5136Z"/>
</mask>
<path d="M23.7662 9.72723H23.2398C23.187 9.7275 23.1356 9.70996 23.0939 9.67745C23.0523 9.64494 23.0228 9.59935 23.0102 9.54803C22.941 9.29697 22.8393 9.05601 22.7078 8.83123C22.6822 8.78492 22.6722 8.7316 22.6793 8.67915C22.6863 8.62671 22.7101 8.57793 22.747 8.54003L23.1222 8.16483C23.1444 8.14342 23.162 8.11775 23.1741 8.08937C23.1861 8.06099 23.1924 8.03047 23.1924 7.99963C23.1924 7.9688 23.1861 7.93828 23.1741 7.9099C23.162 7.88151 23.1444 7.85585 23.1222 7.83443L22.5622 7.27443C22.5403 7.25208 22.5142 7.23433 22.4853 7.2222C22.4565 7.21008 22.4255 7.20384 22.3942 7.20384C22.3629 7.20384 22.3319 7.21008 22.3031 7.2222C22.2742 7.23433 22.2481 7.25208 22.2262 7.27443L21.851 7.64963C21.8138 7.68604 21.7656 7.70909 21.7139 7.71517C21.6623 7.72125 21.61 7.71002 21.5654 7.68323C21.3389 7.55249 21.096 7.45267 20.843 7.38643C20.7932 7.37196 20.7494 7.3418 20.7181 7.30043C20.6868 7.25906 20.6698 7.2087 20.6694 7.15683V6.59683C20.6694 6.53445 20.6446 6.47463 20.6005 6.43052C20.5564 6.38641 20.4966 6.36163 20.4342 6.36163H19.6558C19.5934 6.36163 19.5336 6.38641 19.4895 6.43052C19.4454 6.47463 19.4206 6.53445 19.4206 6.59683V7.15683C19.4199 7.20942 19.402 7.26034 19.3697 7.3018C19.3373 7.34326 19.2923 7.37298 19.2414 7.38643C18.9906 7.4537 18.7496 7.55348 18.5246 7.68323C18.4789 7.70955 18.4259 7.72049 18.3735 7.71445C18.321 7.7084 18.2719 7.68568 18.2334 7.64963L17.8582 7.27443C17.8368 7.25225 17.8111 7.2346 17.7827 7.22255C17.7544 7.2105 17.7238 7.20429 17.693 7.20429C17.6622 7.20429 17.6317 7.2105 17.6033 7.22255C17.5749 7.2346 17.5492 7.25225 17.5278 7.27443L16.9678 7.83443C16.9456 7.85585 16.928 7.88151 16.9159 7.9099C16.9039 7.93828 16.8977 7.9688 16.8977 7.99963C16.8977 8.03047 16.9039 8.06099 16.9159 8.08937C16.928 8.11775 16.9456 8.14342 16.9678 8.16483L17.343 8.54003C17.3791 8.57858 17.4018 8.62767 17.4078 8.68009C17.4139 8.73252 17.4029 8.7855 17.3766 8.83123C17.2469 9.05621 17.1471 9.29718 17.0798 9.54803C17.0664 9.59888 17.0366 9.64392 16.9952 9.67628C16.9537 9.70864 16.9028 9.72654 16.8502 9.72723H16.3182C16.2558 9.72723 16.196 9.75201 16.1519 9.79612C16.1078 9.84023 16.083 9.90006 16.083 9.96243V10.7576C16.083 10.82 16.1078 10.8798 16.1519 10.9239C16.196 10.9681 16.2558 10.9928 16.3182 10.9928H16.8502C16.9021 10.9932 16.9524 11.0103 16.9938 11.0416C17.0352 11.0728 17.0653 11.1166 17.0798 11.1664C17.146 11.4194 17.2459 11.6624 17.3766 11.8888C17.4034 11.9334 17.4146 11.9857 17.4085 12.0374C17.4025 12.089 17.3794 12.1373 17.343 12.1744L16.9678 12.5496C16.924 12.5946 16.8995 12.6549 16.8995 12.7176C16.8995 12.7804 16.924 12.8407 16.9678 12.8856L17.5278 13.4456C17.5492 13.4678 17.5749 13.4855 17.6033 13.4975C17.6317 13.5096 17.6622 13.5158 17.693 13.5158C17.7238 13.5158 17.7544 13.5096 17.7827 13.4975C17.8111 13.4855 17.8368 13.4678 17.8582 13.4456L18.2334 13.0704C18.2713 13.0335 18.3201 13.0097 18.3725 13.0027C18.425 12.9956 18.4783 13.0056 18.5246 13.0312C18.7505 13.1604 18.9912 13.262 19.2414 13.3336C19.2927 13.3462 19.3383 13.3757 19.3708 13.4174C19.4033 13.459 19.4209 13.5104 19.4206 13.5632V14.0896C19.4199 14.121 19.4254 14.1522 19.4369 14.1814C19.4484 14.2105 19.4656 14.2371 19.4875 14.2596C19.5094 14.282 19.5356 14.2998 19.5645 14.312C19.5934 14.3242 19.6244 14.3304 19.6558 14.3304H20.4342C20.4656 14.3304 20.4966 14.3242 20.5255 14.312C20.5544 14.2998 20.5806 14.282 20.6025 14.2596C20.6244 14.2371 20.6417 14.2105 20.6531 14.1814C20.6646 14.1522 20.6702 14.121 20.6694 14.0896V13.5576C20.6688 13.5055 20.6856 13.4547 20.717 13.4132C20.7484 13.3716 20.7927 13.3417 20.843 13.328C21.0954 13.2574 21.338 13.1559 21.5654 13.0256C21.6106 12.9996 21.6632 12.9893 21.7149 12.9963C21.7666 13.0034 21.8145 13.0275 21.851 13.0648L22.2262 13.44C22.2481 13.4624 22.2742 13.4801 22.3031 13.4923C22.3319 13.5044 22.3629 13.5106 22.3942 13.5106C22.4255 13.5106 22.4565 13.5044 22.4853 13.4923C22.5142 13.4801 22.5403 13.4624 22.5622 13.44L23.1222 12.88C23.1446 12.8581 23.1623 12.832 23.1744 12.8031C23.1866 12.7743 23.1928 12.7433 23.1928 12.712C23.1928 12.6807 23.1866 12.6498 23.1744 12.6209C23.1623 12.5921 23.1446 12.5659 23.1222 12.544L22.747 12.1688C22.7097 12.1323 22.6856 12.0844 22.6785 12.0327C22.6714 11.981 22.6817 11.9284 22.7078 11.8832C22.8404 11.657 22.9421 11.414 23.0102 11.1608C23.0238 11.1106 23.0538 11.0662 23.0954 11.0348C23.1369 11.0034 23.1877 10.9867 23.2398 10.9872H23.7662C23.7976 10.988 23.8287 10.9824 23.8579 10.971C23.8871 10.9595 23.9137 10.9423 23.9362 10.9204C23.9586 10.8984 23.9764 10.8723 23.9886 10.8434C24.0008 10.8144 24.007 10.7834 24.007 10.752V9.97363C24.0086 9.94134 24.0034 9.90907 23.992 9.87885C23.9805 9.84863 23.9629 9.82109 23.9403 9.79797C23.9177 9.77485 23.8906 9.75663 23.8606 9.74446C23.8307 9.73229 23.7985 9.72643 23.7662 9.72723ZM20.0534 11.5136C19.823 11.5136 19.5978 11.4453 19.4063 11.3173C19.2147 11.1893 19.0654 11.0074 18.9773 10.7946C18.8891 10.5817 18.866 10.3475 18.911 10.1216C18.9559 9.89564 19.0669 9.6881 19.2298 9.5252C19.3927 9.3623 19.6002 9.25136 19.8262 9.20641C20.0521 9.16147 20.2863 9.18454 20.4992 9.2727C20.712 9.36086 20.8939 9.51015 21.0219 9.7017C21.1499 9.89326 21.2182 10.1185 21.2182 10.3488C21.2182 10.6578 21.0955 10.954 20.877 11.1725C20.6586 11.3909 20.3623 11.5136 20.0534 11.5136Z" stroke="white" stroke-width="2" stroke-miterlimit="10" mask="url(#path-3-inside-1_87_793)"/>
</svg>
