<svg width="28" height="28" viewBox="0 0 28 28" fill="none" xmlns="http://www.w3.org/2000/svg">
<g clip-path="url(#clip0_87_1078)">
<path d="M27.5735 16.3662V16.1202C27.5735 15.887 27.4165 14.6959 24.3003 14.1367L19.5974 13.4929C19.0214 13.0172 16.1356 10.7672 13.0782 10.7672H8.56267C6.80344 10.7672 4.94926 11.9839 4.12129 12.8958L0.673223 12.9096C0.559939 12.91 0.451237 12.9556 0.371689 13.0362C0.291724 13.1168 0.247577 13.2259 0.24841 13.3392C0.24841 13.3392 0.253824 14.0672 0.260071 14.7731C0.260071 14.775 0.258822 14.7765 0.258822 14.7783C0.258822 14.7804 0.260071 14.7821 0.260071 14.784C0.264652 15.3462 0.270067 15.892 0.273399 16.0417C0.264652 16.0544 0.253824 16.0644 0.244245 16.0753C0.164696 16.1627 0.0164283 16.3256 0.0164283 16.6267C0.0164283 16.6627 0.0135129 16.7108 0.011014 16.767C-0.0123091 17.2154 -0.0602047 18.1487 0.611167 18.4226L2.73398 19.4311C2.98346 20.7463 4.1392 21.7444 5.52567 21.7444C6.88757 21.7444 8.0279 20.7813 8.30362 19.5004H18.243C18.5187 20.7813 19.659 21.7444 21.0209 21.7444C22.3828 21.7444 23.5232 20.7813 23.7989 19.5004H26.7259C27.6343 19.5004 27.955 18.7212 27.9979 18.3091C27.9991 18.2945 28 18.2797 28 18.2651V16.9599C28 16.8445 27.9533 16.7339 27.87 16.6536L27.5735 16.3662ZM7.51563 18.9011C7.51563 19.9985 6.62311 20.8915 5.52567 20.8915C4.42824 20.8915 3.53571 19.9985 3.53571 18.9011C3.53571 17.8039 4.42824 16.9111 5.52567 16.9111C6.62311 16.9111 7.51563 17.8039 7.51563 18.9011ZM23.0109 18.9011C23.0109 19.9985 22.1184 20.8915 21.0209 20.8915C19.9235 20.8915 19.031 19.9985 19.031 18.9011C19.031 17.8039 19.9235 16.9111 21.0209 16.9111C22.1184 16.9111 23.0109 17.8039 23.0109 18.9011ZM27.147 18.2389C27.1341 18.3264 27.0637 18.6475 26.7259 18.6475H23.8509C23.7223 17.1983 22.5028 16.0582 21.0209 16.0582C19.5391 16.0582 18.3196 17.1983 18.1909 18.6475H8.35568C8.22698 17.1983 7.00752 16.0582 5.52567 16.0582C4.10171 16.0582 2.92265 17.1115 2.71774 18.4792L0.955599 17.6425C0.933525 17.6335 0.824823 17.5509 0.862723 16.8108C0.865638 16.7508 0.868137 16.6979 0.86897 16.654C0.870636 16.6533 0.872718 16.6517 0.875217 16.649C0.96018 16.5553 1.11886 16.381 1.11886 16.0403C1.11886 15.9293 1.11719 15.5984 1.11428 15.2048H2.00764C2.24337 15.2048 2.43411 15.0139 2.43411 14.7783C2.43411 14.5428 2.24337 14.3519 2.00764 14.3519H1.10886C1.1072 14.1342 1.10553 13.9289 1.10428 13.7609L4.31912 13.748C4.4474 13.7475 4.56859 13.6892 4.64939 13.5895C5.2991 12.7846 7.06666 11.6201 8.56267 11.6201H13.0782C16.1023 11.6201 19.1076 14.1948 19.1376 14.2209C19.2001 14.275 19.2771 14.31 19.3592 14.3212L24.1671 14.9791C26.1508 15.3352 26.6843 15.9489 26.7205 16.1202V16.5467C26.7205 16.6621 26.7672 16.7727 26.8505 16.853L27.147 17.1404V18.2389ZM12.2344 14.5443L13.5846 14.5195L11.6355 16.9191L10.6376 17.0915L11.9545 15.4703L10.6588 15.4936L12.5155 13.1066L13.4826 12.94L12.2344 14.5443Z" fill="white"/>
<path d="M23.1087 10.0155H22.6623C22.6175 10.0157 22.5739 10 22.5386 9.97089C22.5033 9.94176 22.4782 9.90092 22.4676 9.85494C22.4089 9.62999 22.3227 9.41408 22.2111 9.21269C22.1894 9.17119 22.1809 9.12341 22.1869 9.07642C22.1929 9.02943 22.2131 8.98573 22.2444 8.95177L22.5626 8.6156C22.5814 8.59641 22.5963 8.57341 22.6066 8.54798C22.6168 8.52255 22.622 8.49521 22.622 8.46758C22.622 8.43995 22.6168 8.4126 22.6066 8.38717C22.5963 8.36174 22.5814 8.33875 22.5626 8.31956L22.0877 7.8178C22.0691 7.79778 22.0469 7.78187 22.0225 7.77101C21.998 7.76014 21.9717 7.75455 21.9452 7.75455C21.9187 7.75455 21.8924 7.76014 21.8679 7.77101C21.8435 7.78187 21.8213 7.79778 21.8027 7.8178L21.4845 8.15398C21.453 8.1866 21.4121 8.20725 21.3683 8.2127C21.3245 8.21814 21.2802 8.20808 21.2424 8.18409C21.0503 8.06694 20.8443 7.9775 20.6297 7.91815C20.5875 7.90519 20.5504 7.87816 20.5238 7.84109C20.4973 7.80403 20.4828 7.7589 20.4825 7.71243V7.21068C20.4825 7.15479 20.4615 7.10118 20.4241 7.06166C20.3867 7.02214 20.336 6.99994 20.2831 6.99994H19.623C19.5701 6.99994 19.5193 7.02214 19.4819 7.06166C19.4445 7.10118 19.4235 7.15479 19.4235 7.21068V7.71243C19.4229 7.75955 19.4077 7.80517 19.3803 7.84232C19.3529 7.87947 19.3147 7.9061 19.2715 7.91815C19.0588 7.97842 18.8545 8.06783 18.6637 8.18409C18.6249 8.20767 18.58 8.21747 18.5355 8.21205C18.491 8.20663 18.4494 8.18628 18.4167 8.15398L18.0985 7.8178C18.0804 7.79792 18.0586 7.78211 18.0345 7.77131C18.0105 7.76052 17.9846 7.75495 17.9584 7.75495C17.9323 7.75495 17.9064 7.76052 17.8823 7.77131C17.8583 7.78211 17.8365 7.79792 17.8184 7.8178L17.3435 8.31956C17.3246 8.33875 17.3097 8.36174 17.2995 8.38717C17.2892 8.4126 17.284 8.43995 17.284 8.46758C17.284 8.49521 17.2892 8.52255 17.2995 8.54798C17.3097 8.57341 17.3246 8.59641 17.3435 8.6156L17.6616 8.95177C17.6922 8.98631 17.7115 9.0303 17.7166 9.07727C17.7217 9.12424 17.7125 9.17171 17.6901 9.21269C17.5801 9.41426 17.4955 9.63018 17.4384 9.85494C17.427 9.90049 17.4018 9.94085 17.3667 9.96984C17.3315 9.99884 17.2883 10.0149 17.2437 10.0155H16.7926C16.7397 10.0155 16.6889 10.0377 16.6515 10.0772C16.6141 10.1167 16.5931 10.1703 16.5931 10.2262V10.9387C16.5931 10.9946 16.6141 11.0482 16.6515 11.0877C16.6889 11.1273 16.7397 11.1495 16.7926 11.1495H17.2437C17.2877 11.1498 17.3304 11.1651 17.3655 11.1931C17.4006 11.2211 17.4262 11.2604 17.4384 11.305C17.4946 11.5317 17.5793 11.7494 17.6901 11.9523C17.7128 11.9923 17.7224 12.0391 17.7172 12.0854C17.7121 12.1317 17.6925 12.1749 17.6616 12.2082L17.3435 12.5444C17.3063 12.5846 17.2856 12.6386 17.2856 12.6949C17.2856 12.7511 17.3063 12.8051 17.3435 12.8454L17.8184 13.3472C17.8365 13.367 17.8583 13.3829 17.8823 13.3937C17.9064 13.4044 17.9323 13.41 17.9584 13.41C17.9846 13.41 18.0105 13.4044 18.0345 13.3937C18.0586 13.3829 18.0804 13.367 18.0985 13.3472L18.4167 13.011C18.4489 12.9779 18.4902 12.9566 18.5347 12.9503C18.5792 12.944 18.6244 12.9529 18.6637 12.9759C18.8553 13.0916 19.0594 13.1826 19.2715 13.2468C19.3151 13.2581 19.3537 13.2845 19.3813 13.3218C19.4089 13.3591 19.4237 13.4052 19.4235 13.4525V13.9242C19.4229 13.9523 19.4276 13.9802 19.4373 14.0064C19.447 14.0325 19.4616 14.0563 19.4802 14.0765C19.4988 14.0966 19.521 14.1125 19.5455 14.1234C19.57 14.1343 19.5964 14.1399 19.623 14.1399H20.2831C20.3097 14.1399 20.336 14.1343 20.3605 14.1234C20.385 14.1125 20.4072 14.0966 20.4258 14.0765C20.4444 14.0563 20.459 14.0325 20.4687 14.0064C20.4785 13.9802 20.4832 13.9523 20.4825 13.9242V13.4475C20.482 13.4008 20.4962 13.3553 20.5229 13.3181C20.5495 13.2808 20.5871 13.254 20.6297 13.2418C20.8437 13.1785 21.0495 13.0875 21.2424 12.9708C21.2807 12.9475 21.3253 12.9382 21.3691 12.9446C21.413 12.951 21.4536 12.9726 21.4845 13.006L21.8027 13.3421C21.8213 13.3622 21.8435 13.3781 21.8679 13.3889C21.8924 13.3998 21.9187 13.4054 21.9452 13.4054C21.9717 13.4054 21.998 13.3998 22.0225 13.3889C22.0469 13.3781 22.0691 13.3622 22.0877 13.3421L22.5626 12.8404C22.5815 12.8208 22.5966 12.7973 22.6069 12.7715C22.6171 12.7457 22.6224 12.7179 22.6224 12.6899C22.6224 12.6618 22.6171 12.6341 22.6069 12.6082C22.5966 12.5824 22.5815 12.559 22.5626 12.5393L22.2444 12.2032C22.2128 12.1704 22.1923 12.1275 22.1863 12.0812C22.1803 12.0349 22.189 11.9878 22.2111 11.9473C22.3236 11.7446 22.4098 11.5269 22.4676 11.3C22.4791 11.2549 22.5045 11.2152 22.5398 11.1871C22.575 11.1589 22.6181 11.1439 22.6623 11.1445H23.1087C23.1353 11.1451 23.1617 11.1402 23.1865 11.1299C23.2112 11.1196 23.2338 11.1042 23.2528 11.0845C23.2718 11.0649 23.287 11.0414 23.2973 11.0155C23.3076 10.9896 23.3129 10.9618 23.3129 10.9337V10.2363C23.3142 10.2073 23.3099 10.1784 23.3001 10.1513C23.2904 10.1243 23.2755 10.0996 23.2563 10.0789C23.2372 10.0582 23.2142 10.0418 23.1888 10.0309C23.1634 10.02 23.1361 10.0148 23.1087 10.0155ZM19.9601 11.6161C19.7648 11.6161 19.5738 11.5549 19.4114 11.4402C19.2489 11.3255 19.1223 11.1625 19.0475 10.9718C18.9728 10.7811 18.9532 10.5713 18.9913 10.3688C19.0294 10.1664 19.1235 9.98043 19.2617 9.83447C19.3998 9.68852 19.5758 9.58912 19.7674 9.54885C19.959 9.50858 20.1576 9.52925 20.3381 9.60824C20.5186 9.68723 20.6729 9.821 20.7814 9.99262C20.89 10.1643 20.9479 10.366 20.9479 10.5724C20.9479 10.8492 20.8438 11.1147 20.6586 11.3104C20.4734 11.5061 20.2221 11.6161 19.9601 11.6161Z" stroke="white" stroke-width="0.56" stroke-miterlimit="10"/>
</g>
<defs>
<clipPath id="clip0_87_1078">
<rect width="28" height="28" fill="white"/>
</clipPath>
</defs>
</svg>
