<svg width="80" height="80" viewBox="0 0 80 80" fill="none" xmlns="http://www.w3.org/2000/svg">
<path d="M51.0039 5H28.8459C20.6467 5 14 11.6467 14 19.8459V60.1541C14 68.3533 20.6467 75 28.8459 75H51.0039C59.2031 75 65.8498 68.3533 65.8498 60.1541V19.8459C65.8498 11.6467 59.2031 5 51.0039 5Z" fill="#070C27"/>
<path d="M43.1662 43.5123H36.6809V48.6672H43.1662V43.5123Z" fill="#43596D"/>
<path d="M49.4818 46.8658H30.368C23.3707 46.8658 17.6766 52.56 17.6766 59.5573C17.6766 66.5545 23.3707 72.2487 30.368 72.2487H49.4791C56.4763 72.2487 62.1705 66.5545 62.1705 59.5573C62.1705 52.56 56.4763 46.8658 49.4791 46.8658H49.4818Z" fill="#43596D"/>
<path d="M30.4666 71.6026C23.8252 71.6026 18.4212 66.1987 18.4212 59.5573C18.4212 52.9159 23.8252 47.5119 30.4666 47.5119H49.386C56.0274 47.5119 61.4314 52.9159 61.4314 59.5573C61.4314 66.1987 56.0274 71.6026 49.386 71.6026H30.4666Z" fill="white"/>
<path d="M49.3833 49.3269H30.4666C24.8244 49.3269 20.2362 53.9151 20.2362 59.5573C20.2362 65.1994 24.8244 69.7876 30.4666 69.7876H49.386C55.0282 69.7876 59.6163 65.1994 59.6163 59.5573C59.6163 53.9151 55.0282 49.3269 49.386 49.3269H49.3833Z" fill="#070C27"/>
<path d="M33.2449 66.2677C36.9507 64.7327 38.7105 60.4842 37.1755 56.7784C35.6405 53.0725 31.392 51.3128 27.6862 52.8477C23.9804 54.3827 22.2206 58.6313 23.7556 62.3371C25.2906 66.0429 29.5391 67.8027 33.2449 66.2677Z" fill="white"/>
<path d="M30.4666 56.2886C28.6625 56.2886 27.1979 57.7532 27.1979 59.5573C27.1979 61.3614 28.6625 62.826 30.4666 62.826C32.2706 62.826 33.7352 61.3614 33.7352 59.5573C33.7352 57.7532 32.2706 56.2886 30.4666 56.2886Z" fill="#070C27"/>
<path d="M52.1644 66.2667C55.8702 64.7317 57.63 60.4832 56.095 56.7774C54.56 53.0716 50.3115 51.3118 46.6057 52.8468C42.8998 54.3818 41.1401 58.6303 42.6751 62.3361C44.2101 66.0419 48.4586 67.8017 52.1644 66.2667Z" fill="white"/>
<path d="M49.3833 56.2886C47.5792 56.2886 46.1146 57.7532 46.1146 59.5573C46.1146 61.3614 47.5792 62.826 49.3833 62.826C51.1873 62.826 52.6519 61.3614 52.6519 59.5573C52.6519 57.7532 51.1873 56.2886 49.3833 56.2886Z" fill="#070C27"/>
<path d="M39.9249 44.9769C49.3593 44.9769 57.0074 37.3288 57.0074 27.8944C57.0074 18.46 49.3593 10.8119 39.9249 10.8119C30.4905 10.8119 22.8424 18.46 22.8424 27.8944C22.8424 37.3288 30.4905 44.9769 39.9249 44.9769Z" fill="#43596D"/>
<path d="M46.1119 42.8354C54.363 39.4177 58.2813 29.9582 54.8636 21.7071C51.4458 13.456 41.9864 9.53774 33.7353 12.9555C25.4841 16.3732 21.5659 25.8327 24.9836 34.0838C28.4013 42.3349 37.8608 46.2531 46.1119 42.8354Z" fill="white"/>
<path d="M53.1665 30.0446C54.3536 22.7318 49.3877 15.8414 42.075 14.6544C34.7623 13.4674 27.8719 18.4332 26.6848 25.746C25.4978 33.0587 30.4637 39.9491 37.7764 41.1361C45.0891 42.3231 51.9795 37.3573 53.1665 30.0446Z" fill="#070C27"/>
<path d="M43.4331 36.5292C43.7473 34.5935 42.4328 32.7697 40.4972 32.4555C38.5616 32.1413 36.7377 33.4557 36.4235 35.3913C36.1093 37.327 37.4238 39.1508 39.3594 39.465C41.295 39.7792 43.1189 38.4648 43.4331 36.5292Z" fill="white"/>
<path d="M45.7258 26.8432C47.9544 26.8432 49.761 25.0366 49.761 22.808C49.761 20.5794 47.9544 18.7728 45.7258 18.7728C43.4973 18.7728 41.6906 20.5794 41.6906 22.808C41.6906 25.0366 43.4973 26.8432 45.7258 26.8432Z" fill="white"/>
<path d="M50.8126 32.6031C51.0565 31.1002 50.036 29.6842 48.5331 29.4402C47.0303 29.1963 45.6142 30.2168 45.3703 31.7197C45.1263 33.2225 46.1469 34.6386 47.6497 34.8825C49.1526 35.1264 50.5686 34.1059 50.8126 32.6031Z" fill="white"/>
<path d="M42.3805 43.5123H37.4693V48.6672H42.3805V43.5123Z" fill="white"/>
<path d="M33.7097 34.1094C34.7863 33.0328 34.7863 31.2874 33.7097 30.2108C32.6332 29.1342 30.8877 29.1342 29.8111 30.2108C28.7345 31.2874 28.7345 33.0328 29.8111 34.1094C30.8877 35.186 32.6331 35.186 33.7097 34.1094Z" fill="white"/>
<path d="M34.124 26.8432C36.3526 26.8432 38.1592 25.0366 38.1592 22.808C38.1592 20.5794 36.3526 18.7728 34.124 18.7728C31.8954 18.7728 30.0888 20.5794 30.0888 22.808C30.0888 25.0366 31.8954 26.8432 34.124 26.8432Z" fill="white"/>
<path d="M39.9249 37.4349C40.7398 37.4349 41.4005 36.7742 41.4005 35.9593C41.4005 35.1444 40.7398 34.4838 39.9249 34.4838C39.11 34.4838 38.4493 35.1444 38.4493 35.9593C38.4493 36.7742 39.11 37.4349 39.9249 37.4349Z" fill="#070C27"/>
<path d="M47.2534 22.808C47.2534 23.6511 46.569 24.3355 45.7258 24.3355C44.8827 24.3355 44.1983 23.6511 44.1983 22.808C44.1983 21.9648 44.8827 21.2804 45.7258 21.2804C46.569 21.2804 47.2534 21.9648 47.2534 22.808Z" fill="#070C27"/>
<path d="M49.1478 32.1623C49.1478 32.7454 48.6742 33.219 48.0911 33.219C47.508 33.219 47.0344 32.7454 47.0344 32.1623C47.0344 31.5792 47.508 31.1056 48.0911 31.1056C48.6742 31.1056 49.1478 31.5792 49.1478 32.1623Z" fill="#070C27"/>
<path d="M32.8182 32.1623C32.8182 32.7454 32.3446 33.219 31.7614 33.219C31.1783 33.219 30.7047 32.7454 30.7047 32.1623C30.7047 31.5792 31.1783 31.1056 31.7614 31.1056C32.3446 31.1056 32.8182 31.5792 32.8182 32.1623Z" fill="#070C27"/>
<path d="M35.6543 22.808C35.6543 23.6511 34.9699 24.3355 34.1267 24.3355C33.2835 24.3355 32.5992 23.6511 32.5992 22.808C32.5992 21.9648 33.2835 21.2804 34.1267 21.2804C34.9699 21.2804 35.6543 21.9648 35.6543 22.808Z" fill="#070C27"/>
</svg>
