<svg width="80" height="80" viewBox="0 0 80 80" fill="none" xmlns="http://www.w3.org/2000/svg">
<path d="M55.9285 46.6926C54.4764 46.0778 54.2363 44.1221 55.4688 43.1384C56.2095 42.5471 56.9239 41.9118 57.606 41.2296C62.3195 36.5161 64.9164 30.248 64.9164 23.5818C64.9164 19.0293 63.6721 14.5617 61.3241 10.6796C59.1694 7.1284 55.2815 5 51.133 5H28.7804C24.591 5 20.6591 7.22208 18.519 10.8026C16.0393 14.9569 14.8273 19.7231 15.0205 24.5859C15.2752 31.0121 17.9891 37.0314 22.6675 41.5341C23.2442 42.0874 23.8415 42.6115 24.4592 43.1033C25.7035 44.0958 25.481 46.0602 24.0142 46.678C18.7181 48.9147 15 54.1552 15 60.2622C15 68.4011 21.5989 75 29.7378 75H50.1757C58.3145 75 64.9134 68.4011 64.9134 60.2622C64.9134 54.1639 61.21 48.9322 55.9285 46.6897V46.6926Z" fill="#070C27"/>
<path d="M50.1756 46.716H29.7378C22.2547 46.716 16.1652 52.8055 16.1652 60.2886C16.1652 67.7716 22.2547 73.8611 29.7378 73.8611H50.1756C57.6587 73.8611 63.7482 67.7716 63.7482 60.2886C63.7482 52.8055 57.6587 46.716 50.1756 46.716Z" fill="#344463"/>
<path d="M60.4254 11.4789C58.4873 8.21453 54.9272 6.1886 51.133 6.1886H28.7804C24.9979 6.1886 21.4496 8.19404 19.5203 11.4232C17.1548 15.3814 16.0013 19.928 16.1857 24.5654C16.4258 30.6901 19.0167 36.4282 23.4755 40.7202C27.9314 45.0092 33.7633 47.3835 39.8879 47.3981H39.9582C46.3141 47.3981 52.2865 44.9243 56.7804 40.4303C61.2744 35.9364 63.7482 29.9611 63.7482 23.6081C63.7482 19.3337 62.6006 15.1413 60.4254 11.4818V11.4789Z" fill="#344463"/>
<path d="M39.8996 45.8436C34.1673 45.829 28.7189 43.6098 24.55 39.5989C20.381 35.5851 17.9598 30.2246 17.7344 24.5011C17.5646 20.1652 18.642 15.9201 20.8524 12.2196C22.5036 9.4559 25.5395 7.7403 28.7775 7.7403H51.133C54.3827 7.7403 57.4333 9.47639 59.0903 12.2694C61.1221 15.6889 62.1936 19.609 62.1936 23.6023C62.1936 29.5425 59.8808 35.1284 55.6796 39.3267C51.4785 43.5278 45.8954 45.8407 39.9552 45.8407H39.8996V45.8436Z" fill="white"/>
<path d="M57.4216 13.2647C56.11 11.0573 53.7005 9.6842 51.133 9.6842H28.7804C26.2217 9.6842 23.8239 11.0368 22.5211 13.2179C20.504 16.5934 19.5203 20.4696 19.6754 24.4278C19.8804 29.6478 22.0907 34.537 25.8967 38.2024C29.7026 41.8649 34.6738 43.8908 39.8996 43.9054H39.9552C45.3772 43.9054 50.4743 41.7946 54.3066 37.9623C58.1388 34.13 60.2526 29.033 60.2526 23.611C60.2526 19.9661 59.2748 16.3885 57.4216 13.2676V13.2647Z" fill="#070C27"/>
<path d="M29.8402 73.1702C22.7378 73.1702 16.9586 67.391 16.9586 60.2886C16.9586 53.1861 22.7378 47.4069 29.8402 47.4069H50.0732C57.1756 47.4069 62.9548 53.1861 62.9548 60.2886C62.9548 67.391 57.1756 73.1702 50.0732 73.1702H29.8402Z" fill="white"/>
<path d="M50.0732 49.348H29.8402C23.8064 49.348 18.8996 54.2547 18.8996 60.2886C18.8996 66.3225 23.8064 71.2292 29.8402 71.2292H50.0732C56.1071 71.2292 61.0138 66.3225 61.0138 60.2886C61.0138 54.2547 56.1071 49.348 50.0732 49.348Z" fill="#070C27"/>
<path d="M28.069 28.9335C30.8582 28.9335 33.1192 26.6725 33.1192 23.8833C33.1192 21.0942 30.8582 18.8331 28.069 18.8331C25.2799 18.8331 23.0188 21.0942 23.0188 23.8833C23.0188 26.6725 25.2799 28.9335 28.069 28.9335Z" fill="white"/>
<path d="M30.3402 24.4168C30.635 23.1639 29.8584 21.9093 28.6055 21.6146C27.3527 21.3198 26.0981 22.0965 25.8033 23.3493C25.5086 24.6021 26.2852 25.8567 27.5381 26.1515C28.7909 26.4463 30.0455 25.6696 30.3402 24.4168Z" fill="#070C27"/>
<path d="M39.9552 28.9335C42.7444 28.9335 45.0054 26.6725 45.0054 23.8833C45.0054 21.0942 42.7444 18.8331 39.9552 18.8331C37.1661 18.8331 34.9051 21.0942 34.9051 23.8833C34.9051 26.6725 37.1661 28.9335 39.9552 28.9335Z" fill="white"/>
<path d="M41.6037 25.5325C42.5138 24.6224 42.5138 23.1469 41.6037 22.2368C40.6937 21.3267 39.2181 21.3267 38.308 22.2368C37.398 23.1469 37.398 24.6224 38.308 25.5325C39.2181 26.4426 40.6937 26.4426 41.6037 25.5325Z" fill="#070C27"/>
<path d="M51.8444 28.9335C54.6335 28.9335 56.8946 26.6725 56.8946 23.8833C56.8946 21.0942 54.6335 18.8331 51.8444 18.8331C49.0553 18.8331 46.7942 21.0942 46.7942 23.8833C46.7942 26.6725 49.0553 28.9335 51.8444 28.9335Z" fill="white"/>
<path d="M53.4945 25.5309C54.4046 24.6208 54.4046 23.1453 53.4945 22.2352C52.5845 21.3251 51.1089 21.3251 50.1988 22.2352C49.2888 23.1453 49.2888 24.6208 50.1988 25.5309C51.1089 26.441 52.5845 26.441 53.4945 25.5309Z" fill="#070C27"/>
<path d="M33.7369 39.2593C36.5261 39.2593 38.7871 36.9983 38.7871 34.2091C38.7871 31.42 36.5261 29.1589 33.7369 29.1589C30.9478 29.1589 28.6867 31.42 28.6867 34.2091C28.6867 36.9983 30.9478 39.2593 33.7369 39.2593Z" fill="white"/>
<path d="M35.3856 35.8579C36.2957 34.9478 36.2957 33.4723 35.3856 32.5622C34.4755 31.6521 33 31.6521 32.0899 32.5622C31.1798 33.4723 31.1798 34.9478 32.0899 35.8579C33 36.768 34.4755 36.768 35.3856 35.8579Z" fill="#070C27"/>
<path d="M46.1765 39.2593C48.9656 39.2593 51.2267 36.9983 51.2267 34.2091C51.2267 31.42 48.9656 29.1589 46.1765 29.1589C43.3874 29.1589 41.1263 31.42 41.1263 34.2091C41.1263 36.9983 43.3874 39.2593 46.1765 39.2593Z" fill="white"/>
<path d="M47.8237 35.8565C48.7338 34.9464 48.7338 33.4708 47.8237 32.5608C46.9136 31.6507 45.4381 31.6507 44.528 32.5608C43.6179 33.4708 43.6179 34.9464 44.528 35.8565C45.4381 36.7665 46.9136 36.7665 47.8237 35.8565Z" fill="#070C27"/>
<path d="M29.8402 68.0556C34.1298 68.0556 37.6073 64.5782 37.6073 60.2886C37.6073 55.999 34.1298 52.5215 29.8402 52.5215C25.5506 52.5215 22.0732 55.999 22.0732 60.2886C22.0732 64.5782 25.5506 68.0556 29.8402 68.0556Z" fill="white"/>
<path d="M30.4657 63.7288C32.3649 63.3823 33.6236 61.5618 33.2771 59.6626C32.9306 57.7633 31.1101 56.5046 29.2108 56.8511C27.3116 57.1977 26.0529 59.0182 26.3994 60.9174C26.7459 62.8166 28.5665 64.0753 30.4657 63.7288Z" fill="#070C27"/>
<path d="M33.9594 18.4789C35.675 18.4789 37.0657 17.0882 37.0657 15.3727C37.0657 13.6571 35.675 12.2664 33.9594 12.2664C32.2439 12.2664 30.8532 13.6571 30.8532 15.3727C30.8532 17.0882 32.2439 18.4789 33.9594 18.4789Z" fill="white"/>
<path d="M33.9594 14.0113C33.21 14.0113 32.601 14.6202 32.601 15.3697C32.601 16.1192 33.21 16.7281 33.9594 16.7281C34.7089 16.7281 35.3179 16.1192 35.3179 15.3697C35.3179 14.6202 34.7089 14.0113 33.9594 14.0113Z" fill="#070C27"/>
<path d="M45.954 18.4789C47.6695 18.4789 49.0602 17.0882 49.0602 15.3727C49.0602 13.6571 47.6695 12.2664 45.954 12.2664C44.2385 12.2664 42.8478 13.6571 42.8478 15.3727C42.8478 17.0882 44.2385 18.4789 45.954 18.4789Z" fill="white"/>
<path d="M45.9511 14.0113C45.2016 14.0113 44.5927 14.6202 44.5927 15.3697C44.5927 16.1192 45.2016 16.7281 45.9511 16.7281C46.7006 16.7281 47.3095 16.1192 47.3095 15.3697C47.3095 14.6202 46.7006 14.0113 45.9511 14.0113Z" fill="#070C27"/>
<path d="M50.0732 68.0556C54.3628 68.0556 57.8402 64.5782 57.8402 60.2886C57.8402 55.999 54.3628 52.5215 50.0732 52.5215C45.7836 52.5215 42.3062 55.999 42.3062 60.2886C42.3062 64.5782 45.7836 68.0556 50.0732 68.0556Z" fill="white"/>
<path d="M50.6291 63.742C52.535 63.434 53.8303 61.6393 53.5223 59.7335C53.2143 57.8276 51.4196 56.5323 49.5138 56.8403C47.6079 57.1483 46.3126 58.943 46.6206 60.8488C46.9286 62.7547 48.7233 64.05 50.6291 63.742Z" fill="#070C27"/>
</svg>
