<svg width="70" height="70" viewBox="0 0 70 70" fill="none" xmlns="http://www.w3.org/2000/svg">
<g clip-path="url(#clip0_33_2135)">
<path d="M34.998 69.9961C54.3269 69.9961 69.9961 54.3269 69.9961 34.998C69.9961 15.6692 54.3269 0 34.998 0C15.6692 0 0 15.6692 0 34.998C0 54.3269 15.6692 69.9961 34.998 69.9961Z" fill="#070C27"/>
<path d="M16.2948 10.0263L13.2704 8.95938L8.84169 13.3841L9.91258 16.4124L16.2948 10.0263Z" fill="white"/>
<path d="M53.7052 10.0263L56.7296 8.95938L61.1583 13.3841L60.0874 16.4124L53.7052 10.0263Z" fill="white"/>
<path d="M57.0728 57.0743C69.2651 44.8819 69.2651 25.1142 57.0728 12.9218C44.8804 0.729448 25.1127 0.729444 12.9203 12.9218C0.727923 25.1142 0.727923 44.8819 12.9203 57.0743C25.1127 69.2666 44.8804 69.2666 57.0728 57.0743Z" fill="white"/>
<path d="M36.1079 28.4513C40.9545 27.8373 44.3857 23.4106 43.7717 18.5641C43.1577 13.7175 38.7311 10.2863 33.8845 10.9003C29.038 11.5143 25.6068 15.9409 26.2208 20.7875C26.8347 25.6341 31.2614 29.0652 36.1079 28.4513Z" fill="#070C27"/>
<path d="M31.1007 14.9775L30.3047 15.7736L38.9005 24.3694L39.6966 23.5734L31.1007 14.9775Z" fill="white"/>
<path d="M39.6935 15.7809L38.8972 14.9767L30.2869 23.6537L31.0832 24.4578L39.6935 15.7809Z" fill="white"/>
<path d="M29.9456 36.6707C30.8665 30.9974 27.0139 25.6518 21.3407 24.7309C15.6674 23.81 10.3217 27.6625 9.40083 33.3358C8.47992 39.0091 12.3325 44.3547 18.0058 45.2756C23.6791 46.1965 29.0247 42.344 29.9456 36.6707Z" fill="#070C27"/>
<path d="M19.6722 30.5772C17.2284 30.5772 15.2474 32.5581 15.2474 35.002C15.2474 37.4458 17.2284 39.4267 19.6722 39.4267C22.116 39.4267 24.0969 37.4458 24.0969 35.002C24.0969 32.5581 22.116 30.5772 19.6722 30.5772Z" fill="white"/>
<path d="M60.598 36.6666C61.5189 30.9933 57.6663 25.6477 51.993 24.7268C46.3197 23.8059 40.9741 27.6585 40.0532 33.3317C39.1323 39.005 42.9849 44.3507 48.6581 45.2716C54.3314 46.1925 59.6771 42.3399 60.598 36.6666Z" fill="#070C27"/>
<path d="M50.3278 30.5772C47.884 30.5772 45.9031 32.5581 45.9031 35.002C45.9031 37.4458 47.884 39.4267 50.3278 39.4267C52.7716 39.4267 54.7526 37.4458 54.7526 35.002C54.7526 32.5581 52.7716 30.5772 50.3278 30.5772Z" fill="white"/>
<path d="M37.028 58.9281C41.7831 57.8076 44.7294 53.0445 43.6089 48.2894C42.4883 43.5343 37.7252 40.588 32.9702 41.7085C28.2151 42.8291 25.2688 47.5922 26.3893 52.3472C27.5098 57.1023 32.273 60.0486 37.028 58.9281Z" fill="#070C27"/>
<path d="M31.1004 45.6211L30.3043 46.4171L38.9002 55.013L39.6962 54.2169L31.1004 45.6211Z" fill="white"/>
<path d="M39.6935 46.4287L38.8972 45.6245L30.2869 54.2976L31.0832 55.1017L39.6935 46.4287Z" fill="white"/>
</g>
<defs>
<clipPath id="clip0_33_2135">
<rect width="70" height="70" fill="white"/>
</clipPath>
</defs>
</svg>
