<svg width="69" height="70" viewBox="0 0 69 70" fill="none" xmlns="http://www.w3.org/2000/svg">
<path d="M34.0782 69.9964C52.8991 69.9964 68.1565 54.739 68.1565 35.9181C68.1565 17.0973 52.8991 1.8399 34.0782 1.8399C15.2573 1.8399 0 17.0973 0 35.9181C0 54.739 15.2573 69.9964 34.0782 69.9964Z" fill="#070C27"/>
<path d="M33.6218 66.4387C25.7554 66.3237 18.3095 63.1829 12.6567 57.5984C7.00395 52.0103 3.77329 44.6039 3.56846 36.7411C3.29175 26.2837 8.29765 16.5342 16.9583 10.655C18.0579 9.90757 19.3624 9.51227 20.728 9.51227H47.4357C48.7977 9.51227 50.095 9.90397 51.1838 10.6407C59.5857 16.3365 64.6024 25.7841 64.6024 35.9181C64.6024 44.0721 61.4292 51.7372 55.6615 57.5014C49.8973 63.2655 42.2321 66.4423 34.0782 66.4423C34.0782 66.4423 33.7728 66.4423 33.6218 66.4423V66.4387Z" fill="#344463"/>
<path d="M47.4357 10.558H20.728C19.596 10.558 18.482 10.8815 17.544 11.5175C9.53028 16.9583 4.3375 26.237 4.61062 36.716C5.02388 52.4165 17.9321 65.1666 33.6362 65.3966C50.1165 65.6374 63.5531 52.3482 63.5531 35.9218C63.5531 25.7626 58.4106 16.8109 50.5909 11.5104C49.6602 10.8815 48.5533 10.5616 47.4285 10.5616L47.4357 10.558Z" fill="white"/>
<path d="M17.9537 48.6719C24.5885 48.6719 29.9671 43.2933 29.9671 36.6585C29.9671 30.0236 24.5885 24.645 17.9537 24.645C11.3189 24.645 5.94025 30.0236 5.94025 36.6585C5.94025 43.2933 11.3189 48.6719 17.9537 48.6719Z" fill="#070C27"/>
<path d="M18.7052 41.2998C21.2679 40.8856 23.0097 38.4724 22.5955 35.9097C22.1814 33.3469 19.7681 31.6051 17.2054 32.0193C14.6427 32.4335 12.9009 34.8467 13.315 37.4094C13.7292 39.9722 16.1424 41.7139 18.7052 41.2998Z" fill="white"/>
<path d="M50.2064 48.6719C56.8412 48.6719 62.2198 43.2933 62.2198 36.6585C62.2198 30.0236 56.8412 24.645 50.2064 24.645C43.5715 24.645 38.1929 30.0236 38.1929 36.6585C38.1929 43.2933 43.5715 48.6719 50.2064 48.6719Z" fill="#070C27"/>
<path d="M50.2064 41.3589C52.8024 41.3589 54.9068 39.2545 54.9068 36.6585C54.9068 34.0625 52.8024 31.958 50.2064 31.958C47.6104 31.958 45.5059 34.0625 45.5059 36.6585C45.5059 39.2545 47.6104 41.3589 50.2064 41.3589Z" fill="white"/>
<path d="M34.0782 62.6223C38.2779 62.6223 41.6823 59.2178 41.6823 55.0182C41.6823 50.8186 38.2779 47.4141 34.0782 47.4141C29.8786 47.4141 26.4742 50.8186 26.4742 55.0182C26.4742 59.2178 29.8786 62.6223 34.0782 62.6223Z" fill="#070C27"/>
<path d="M34.0782 52.8117C32.86 52.8117 31.8754 53.8 31.8754 55.0182C31.8754 56.2365 32.8636 57.2211 34.0782 57.2211C35.2929 57.2211 36.2811 56.2329 36.2811 55.0182C36.2811 53.8036 35.2929 52.8117 34.0782 52.8117Z" fill="white"/>
<path d="M47.6226 59.7186C50.2186 59.7186 52.323 57.6142 52.323 55.0182C52.323 52.4222 50.2186 50.3177 47.6226 50.3177C45.0266 50.3177 42.9221 52.4222 42.9221 55.0182C42.9221 57.6142 45.0266 59.7186 47.6226 59.7186Z" fill="#070C27"/>
<path d="M47.6226 53.6526C46.8715 53.6526 46.2606 54.2635 46.2606 55.0146C46.2606 55.7657 46.8715 56.3766 47.6226 56.3766C48.3736 56.3766 48.9845 55.7657 48.9845 55.0146C48.9845 54.2635 48.3736 53.6526 47.6226 53.6526Z" fill="white"/>
<path d="M37.4022 30.7145C39.2378 28.8789 39.2378 25.9027 37.4022 24.0671C35.5665 22.2314 32.5904 22.2314 30.7547 24.0671C28.9191 25.9027 28.9191 28.8789 30.7547 30.7145C32.5904 32.5501 35.5665 32.5501 37.4022 30.7145Z" fill="#070C27"/>
<path d="M34.0782 26.0249C33.3272 26.0249 32.7163 26.6359 32.7163 27.3869C32.7163 28.138 33.3272 28.7489 34.0782 28.7489C34.8293 28.7489 35.4402 28.138 35.4402 27.3869C35.4402 26.6359 34.8293 26.0249 34.0782 26.0249Z" fill="white"/>
<path d="M38.6532 18.049C39.2531 15.5232 37.6918 12.9894 35.1661 12.3896C32.6404 11.7897 30.1066 13.351 29.5068 15.8767C28.9069 18.4024 30.4681 20.9362 32.9939 21.5361C35.5196 22.1359 38.0534 20.5747 38.6532 18.049Z" fill="#070C27"/>
<path d="M34.0782 15.5999C33.3272 15.5999 32.7163 16.2108 32.7163 16.9618C32.7163 17.7129 33.3272 18.3238 34.0782 18.3238C34.8293 18.3238 35.4402 17.7129 35.4402 16.9618C35.4402 16.2108 34.8293 15.5999 34.0782 15.5999Z" fill="white"/>
<path d="M20.5375 59.7186C23.1335 59.7186 25.238 57.6142 25.238 55.0182C25.238 52.4222 23.1335 50.3177 20.5375 50.3177C17.9415 50.3177 15.8371 52.4222 15.8371 55.0182C15.8371 57.6142 17.9415 59.7186 20.5375 59.7186Z" fill="#070C27"/>
<path d="M20.5375 53.6526C19.7865 53.6526 19.1755 54.2635 19.1755 55.0146C19.1755 55.7657 19.7865 56.3766 20.5375 56.3766C21.2886 56.3766 21.8995 55.7657 21.8995 55.0146C21.8995 54.2635 21.2886 53.6526 20.5375 53.6526Z" fill="white"/>
<path d="M49.2346 18.0479C49.8345 15.5222 48.2732 12.9884 45.7475 12.3886C43.2218 11.7887 40.688 13.3499 40.0881 15.8757C39.4883 18.4014 41.0495 20.9352 43.5753 21.535C46.101 22.1349 48.6348 20.5737 49.2346 18.0479Z" fill="#070C27"/>
<path d="M44.6614 15.5999C43.9104 15.5999 43.2995 16.2108 43.2995 16.9619C43.2995 17.7129 43.9104 18.3239 44.6614 18.3239C45.4125 18.3239 46.0234 17.7129 46.0234 16.9619C46.0234 16.2108 45.4125 15.5999 44.6614 15.5999Z" fill="white"/>
<path d="M28.1374 17.7141C28.5533 15.1517 26.8133 12.7372 24.2508 12.3212C21.6884 11.9053 19.2739 13.6454 18.858 16.2078C18.442 18.7703 20.1821 21.1847 22.7445 21.6007C25.307 22.0166 27.7215 20.2765 28.1374 17.7141Z" fill="#070C27"/>
<path d="M23.4986 15.5999C22.7476 15.5999 22.1367 16.2108 22.1367 16.9619C22.1367 17.7129 22.7476 18.3239 23.4986 18.3239C24.2497 18.3239 24.8606 17.7129 24.8606 16.9619C24.8606 16.2108 24.2497 15.5999 23.4986 15.5999Z" fill="white"/>
<path d="M39.5262 0H28.6339L30.1145 6.37507H38.0456L39.5262 0Z" fill="white"/>
</svg>
