<svg width="80" height="80" viewBox="0 0 80 80" fill="none" xmlns="http://www.w3.org/2000/svg">
<path d="M72.8889 23.0549C66.7413 11.1473 54.3258 3 40 3C25.6742 3 13.2587 11.1473 7.11111 23.0549V23.5556H3V56.4444H7.11111V56.9451C13.2587 68.8527 25.6742 77 40 77C54.3258 77 66.7413 68.8527 72.8889 56.9451V56.4444H77V23.5556H72.8889V23.0549ZM37.9444 9.23421C38.6257 9.18869 39.3114 9.16667 40 9.16667C40.6886 9.16667 41.3743 9.19016 42.0556 9.23421V12.25C42.0556 12.8167 41.5945 13.2778 41.0278 13.2778H38.9722C38.4055 13.2778 37.9444 12.8167 37.9444 12.25V9.23421ZM42.0556 70.7643C41.3743 70.8098 40.6886 70.8319 40 70.8319C39.3114 70.8319 38.6257 70.8084 37.9444 70.7643V67.7485C37.9444 67.1818 38.4055 66.7208 38.9722 66.7208H41.0278C41.5945 66.7208 42.0556 67.1818 42.0556 67.7485V70.7643ZM70.8333 50.2763H66.7222V55.3726C61.9034 63.7475 53.5608 69.3019 44.1111 70.5588V67.7485C44.1111 66.0483 42.728 64.6652 41.0278 64.6652H38.9722C37.272 64.6652 35.8889 66.0483 35.8889 67.7485V70.5588C26.4392 69.3005 18.0966 63.7475 13.2778 55.3726V50.2763H9.16667V29.7222H13.2778V24.6259C18.0966 16.251 26.4392 10.6981 35.8889 9.43976V12.25C35.8889 13.9502 37.272 15.3333 38.9722 15.3333H41.0278C42.728 15.3333 44.1111 13.9502 44.1111 12.25V9.43829C53.5608 10.6966 61.9034 16.251 66.7222 24.6244V29.7208H70.8333V50.2763Z" fill="#344463"/>
<path d="M7.5 29L20 17.5L26.5 11L41 8L58 13L68 26.5L72.5 27V50.5L69 52L67 59L47.5 72.5H33L17.5 62.5L7.5 50.5V29Z" fill="white"/>
<path d="M24.4444 35.1389C23.3486 35.1389 22.3417 35.5069 21.5278 36.1208C20.7139 35.5083 19.7069 35.1389 18.6111 35.1389C15.9306 35.1389 13.75 37.3194 13.75 40C13.75 42.6806 15.9306 44.8611 18.6111 44.8611C19.7069 44.8611 20.7139 44.4931 21.5278 43.8792C22.3417 44.4917 23.3486 44.8611 24.4444 44.8611C27.125 44.8611 29.3056 42.6806 29.3056 40C29.3056 37.3194 27.125 35.1389 24.4444 35.1389Z" fill="#070C27"/>
<path d="M61.3889 35.1389C60.2931 35.1389 59.2861 35.5069 58.4722 36.1208C57.6583 35.5083 56.6514 35.1389 55.5556 35.1389C52.875 35.1389 50.6944 37.3194 50.6944 40C50.6944 42.6806 52.875 44.8611 55.5556 44.8611C56.6514 44.8611 57.6583 44.4931 58.4722 43.8792C59.2861 44.4917 60.2931 44.8611 61.3889 44.8611C64.0694 44.8611 66.25 42.6806 66.25 40C66.25 37.3194 64.0694 35.1389 61.3889 35.1389Z" fill="#070C27"/>
<path d="M40 35.1389C37.3194 35.1389 35.1389 37.3194 35.1389 40C35.1389 42.6806 37.3194 44.8611 40 44.8611C42.6806 44.8611 44.8611 42.6806 44.8611 40C44.8611 37.3194 42.6806 35.1389 40 35.1389Z" fill="#070C27"/>
<path d="M71.1111 23.9708C65.2958 12.7069 53.5514 5 40 5C26.4486 5 14.7042 12.7069 8.88889 23.9708V24.4444H5V55.5556H8.88889V56.0292C14.7042 67.2931 26.4486 75 40 75C53.5514 75 65.2958 67.2931 71.1111 56.0292V55.5556H75V24.4444H71.1111V23.9708ZM38.0556 10.8972C38.7 10.8542 39.3486 10.8333 40 10.8333C40.6514 10.8333 41.3 10.8556 41.9444 10.8972V13.75C41.9444 14.2861 41.5083 14.7222 40.9722 14.7222H39.0278C38.4917 14.7222 38.0556 14.2861 38.0556 13.75V10.8972ZM41.9444 69.1014C41.3 69.1444 40.6514 69.1653 40 69.1653C39.3486 69.1653 38.7 69.1431 38.0556 69.1014V66.2486C38.0556 65.7125 38.4917 65.2764 39.0278 65.2764H40.9722C41.5083 65.2764 41.9444 65.7125 41.9444 66.2486V69.1014ZM69.1667 49.7208H65.2778V54.5417C60.7194 62.4639 52.8278 67.7181 43.8889 68.9069V66.2486C43.8889 64.6403 42.5806 63.3319 40.9722 63.3319H39.0278C37.4194 63.3319 36.1111 64.6403 36.1111 66.2486V68.9069C27.1722 67.7167 19.2806 62.4639 14.7222 54.5417V49.7208H10.8333V30.2778H14.7222V25.4569C19.2806 17.5347 27.1722 12.2819 36.1111 11.0917V13.75C36.1111 15.3583 37.4194 16.6667 39.0278 16.6667H40.9722C42.5806 16.6667 43.8889 15.3583 43.8889 13.75V11.0903C52.8278 12.2806 60.7194 17.5347 65.2778 25.4556V30.2764H69.1667V49.7208Z" fill="#070C27"/>
</svg>
