<svg width="80" height="80" viewBox="0 0 80 80" fill="none" xmlns="http://www.w3.org/2000/svg">
<path d="M39.9146 76.7743C30.8921 76.7513 22.3166 73.2584 15.7548 66.9455C9.19299 60.6279 5.38216 52.1906 5.02735 43.1865C4.76008 36.3621 6.45583 29.6805 9.93488 23.8559C12.5338 19.506 17.3123 16.8057 22.4088 16.8057H57.5909C62.7058 16.8057 67.5074 19.5382 70.1155 23.9343C73.3135 29.3164 75 35.4866 75 41.7719C75 51.1215 71.3597 59.9136 64.7472 66.5215C58.1347 73.134 49.3472 76.7743 39.9975 76.7743H39.91H39.9146Z" fill="#344463"/>
<path d="M14.1328 26.3627C11.2482 31.1965 9.67223 36.9012 9.91646 42.993C10.5478 58.9966 23.9064 71.8438 39.9192 71.8852C56.5864 71.9313 70.1155 58.4298 70.1155 41.7719C70.1155 36.1685 68.5811 30.92 65.913 26.4272C64.1712 23.4919 61.0055 21.6902 57.5909 21.6902H22.4088C19.0219 21.6902 15.8654 23.4504 14.1328 26.3581V26.3627Z" fill="white"/>
<path d="M36.2658 64.9436C39.6075 61.6019 39.6075 56.1838 36.2658 52.8421C32.924 49.5003 27.506 49.5003 24.1642 52.8421C20.8225 56.1838 20.8225 61.6019 24.1642 64.9436C27.506 68.2854 32.924 68.2854 36.2658 64.9436Z" fill="#001231"/>
<path d="M30.2147 61.7937C31.8155 61.7937 33.1132 60.496 33.1132 58.8952C33.1132 57.2945 31.8155 55.9968 30.2147 55.9968C28.614 55.9968 27.3163 57.2945 27.3163 58.8952C27.3163 60.496 28.614 61.7937 30.2147 61.7937Z" fill="white"/>
<path d="M30.565 34.6202C33.7716 34.6202 36.371 32.0208 36.371 28.8141C36.371 25.6075 33.7716 23.008 30.565 23.008C27.3583 23.008 24.7589 25.6075 24.7589 28.8141C24.7589 32.0208 27.3583 34.6202 30.565 34.6202Z" fill="#001231"/>
<path d="M32.657 28.8141C32.657 29.9708 31.7216 30.9108 30.5604 30.9108C29.3991 30.9108 28.4637 29.9754 28.4637 28.8141C28.4637 27.6529 29.3991 26.7175 30.5604 26.7175C31.7216 26.7175 32.657 27.6529 32.657 28.8141Z" fill="white"/>
<path d="M49.4394 34.6202C52.646 34.6202 55.2455 32.0208 55.2455 28.8141C55.2455 25.6075 52.646 23.008 49.4394 23.008C46.2328 23.008 43.6333 25.6075 43.6333 28.8141C43.6333 32.0208 46.2328 34.6202 49.4394 34.6202Z" fill="#001231"/>
<path d="M49.4394 30.9108C50.5973 30.9108 51.536 29.9721 51.536 28.8141C51.536 27.6562 50.5973 26.7175 49.4394 26.7175C48.2814 26.7175 47.3427 27.6562 47.3427 28.8141C47.3427 29.9721 48.2814 30.9108 49.4394 30.9108Z" fill="white"/>
<path d="M55.8396 64.9446C59.1813 61.6028 59.1813 56.1848 55.8396 52.843C52.4978 49.5013 47.0798 49.5013 43.7381 52.843C40.3963 56.1848 40.3963 61.6028 43.7381 64.9446C47.0798 68.2863 52.4978 68.2863 55.8396 64.9446Z" fill="#001231"/>
<path d="M49.7896 61.7937C51.3903 61.7937 52.688 60.496 52.688 58.8952C52.688 57.2945 51.3903 55.9968 49.7896 55.9968C48.1888 55.9968 46.8911 57.2945 46.8911 58.8952C46.8911 60.496 48.1888 61.7937 49.7896 61.7937Z" fill="white"/>
<path d="M67.0269 44.2497C68.1518 39.6596 65.3427 35.0266 60.7525 33.9017C56.1624 32.7768 51.5295 35.586 50.4046 40.1761C49.2797 44.7662 52.0888 49.3991 56.6789 50.524C61.2691 51.6489 65.902 48.8398 67.0269 44.2497Z" fill="#001231"/>
<path d="M59.1299 45.0742C60.714 44.844 61.8115 43.3732 61.5813 41.789C61.351 40.2049 59.8802 39.1074 58.2961 39.3376C56.7119 39.5679 55.6144 41.0387 55.8447 42.6228C56.0749 44.207 57.5458 45.3045 59.1299 45.0742Z" fill="white"/>
<path d="M46.2971 48.0075C49.499 44.5316 49.2768 39.1181 45.8009 35.9162C42.3249 32.7142 36.9114 32.9364 33.7095 36.4124C30.5076 39.8883 30.7298 45.3018 34.2057 48.5037C37.6817 51.7056 43.0952 51.4835 46.2971 48.0075Z" fill="#001231"/>
<path d="M40.0022 39.3112C38.4032 39.3112 37.1037 40.606 37.1037 42.2096C37.1037 43.8132 38.3986 45.108 40.0022 45.108C41.6058 45.108 42.9006 43.8132 42.9006 42.2096C42.9006 40.606 41.6058 39.3112 40.0022 39.3112Z" fill="white"/>
<path d="M29.5484 44.4492C30.7851 39.8879 28.09 35.1878 23.5288 33.9511C18.9675 32.7144 14.2673 35.4094 13.0306 39.9707C11.7939 44.532 14.489 49.2321 19.0503 50.4688C23.6115 51.7056 28.3117 49.0105 29.5484 44.4492Z" fill="#001231"/>
<path d="M21.289 45.1081C22.8898 45.1081 24.1875 43.8104 24.1875 42.2096C24.1875 40.6089 22.8898 39.3112 21.289 39.3112C19.6883 39.3112 18.3906 40.6089 18.3906 42.2096C18.3906 43.8104 19.6883 45.1081 21.289 45.1081Z" fill="white"/>
<path d="M52.0106 4H27.9937L13.4231 19.9529H66.5812L52.0106 4Z" fill="#344463"/>
<path d="M46.375 9.34528H33.6293L35.3619 16.8056H44.6424L46.375 9.34528Z" fill="white"/>
</svg>
