<svg width="80" height="80" viewBox="0 0 80 80" fill="none" xmlns="http://www.w3.org/2000/svg">
<g clip-path="url(#clip0_33_1207)">
<path d="M39.9969 71.2371C30.2583 71.2371 19.05 67.1331 14.4703 61.8949C7.58559 53.9978 4.76217 40.2283 5.01829 30.0811C5.49395 11.1831 25.2091 9 39.9969 9C50.9552 9 58.6876 10.2989 64.3344 13.0979C71.2009 16.4946 74.7805 22.2085 74.9817 30.0811C75.2378 40.2283 72.4144 54.0039 65.5236 61.8949C60.95 67.1331 49.7356 71.2371 40.003 71.2371H39.9969Z" fill="#344463"/>
<path d="M73.3657 30.1177C72.9754 14.592 58.8949 10.616 39.997 10.616C21.099 10.616 7.02457 14.5981 6.63429 30.1177C6.37207 40.6186 9.33575 53.5405 15.6961 60.8216C19.7818 65.5049 30.2827 69.615 40.0031 69.615C49.7234 69.615 60.2182 65.5049 64.3101 60.8216C70.6704 53.5405 73.634 40.6186 73.3718 30.1177H73.3657Z" fill="white"/>
<path d="M58.5412 38.033C63.9804 38.033 68.3897 33.6237 68.3897 28.1846C68.3897 22.7455 63.9804 18.3362 58.5412 18.3362C53.1021 18.3362 48.6928 22.7455 48.6928 28.1846C48.6928 33.6237 53.1021 38.033 58.5412 38.033Z" fill="#070C27"/>
<path d="M58.5412 36.7097C63.2495 36.7097 67.0664 32.8929 67.0664 28.1846C67.0664 23.4763 63.2495 19.6595 58.5412 19.6595C53.8329 19.6595 50.0161 23.4763 50.0161 28.1846C50.0161 32.8929 53.8329 36.7097 58.5412 36.7097Z" fill="#242B52"/>
<path d="M58.5412 30.636C59.8951 30.636 60.9927 29.5385 60.9927 28.1846C60.9927 26.8307 59.8951 25.7332 58.5412 25.7332C57.1874 25.7332 56.0898 26.8307 56.0898 28.1846C56.0898 29.5385 57.1874 30.636 58.5412 30.636Z" fill="white"/>
<path d="M52.0468 55.4492C52.0468 53.8149 53.3762 52.4855 55.0105 52.4855C56.6447 52.4855 57.9741 53.8149 57.9741 55.4492C57.9741 57.0835 56.6447 58.4128 55.0105 58.4128C53.3762 58.4128 52.0468 57.0835 52.0468 55.4492Z" fill="#070C27"/>
<path d="M21.4587 38.033C26.8979 38.033 31.3072 33.6237 31.3072 28.1846C31.3072 22.7455 26.8979 18.3362 21.4587 18.3362C16.0196 18.3362 11.6103 22.7455 11.6103 28.1846C11.6103 33.6237 16.0196 38.033 21.4587 38.033Z" fill="#070C27"/>
<path d="M21.4587 36.7097C26.1671 36.7097 29.9839 32.8929 29.9839 28.1846C29.9839 23.4763 26.1671 19.6595 21.4587 19.6595C16.7504 19.6595 12.9336 23.4763 12.9336 28.1846C12.9336 32.8929 16.7504 36.7097 21.4587 36.7097Z" fill="#242B52"/>
<path d="M21.4588 30.636C22.8126 30.636 23.9102 29.5385 23.9102 28.1846C23.9102 26.8307 22.8126 25.7332 21.4588 25.7332C20.1049 25.7332 19.0073 26.8307 19.0073 28.1846C19.0073 29.5385 20.1049 30.636 21.4588 30.636Z" fill="white"/>
<path d="M27.9532 55.4492C27.9532 53.8149 26.6238 52.4855 24.9895 52.4855C23.3553 52.4855 22.0259 53.8149 22.0259 55.4492C22.0259 57.0835 23.3553 58.4128 24.9895 58.4128C26.6238 58.4128 27.9532 57.0835 27.9532 55.4492Z" fill="#070C27"/>
<path d="M66.0358 40.0332C63.4868 41.6553 60.3829 42.4724 57.0716 42.1309C50.2722 41.4358 44.8815 35.734 44.5339 28.9103C44.29 24.1416 46.4304 19.8668 49.8637 17.1592C51.1504 16.147 50.5284 14.0797 48.9002 13.909C46.5097 13.6528 43.4729 13.4394 39.9969 13.4394C36.521 13.4394 33.4842 13.6528 31.0937 13.909C29.4655 14.0858 28.8435 16.147 30.1302 17.1592C33.5635 19.8668 35.7039 24.1416 35.46 28.9103C35.1124 35.734 29.7217 41.4358 22.9223 42.1309C19.6049 42.4724 16.5071 41.6492 13.9581 40.0332C12.5738 39.149 10.8359 40.4052 11.1896 42.009C12.2079 46.5886 13.7569 50.2902 15.3119 53.1746C16.1595 54.754 18.2512 55.1077 19.5805 53.9124C22.7211 51.0829 29.2094 46.8691 39.9909 46.8691C50.7723 46.8691 57.2545 51.0829 60.4012 53.9124C61.7305 55.1138 63.8222 54.754 64.6698 53.1746C66.2248 50.2902 67.7738 46.5886 68.7921 42.009C69.1519 40.4052 67.414 39.149 66.0236 40.0332H66.0358Z" fill="#070C27"/>
<path d="M39.997 60.1752C43.1156 60.1752 45.6438 57.647 45.6438 54.5284C45.6438 51.4097 43.1156 48.8815 39.997 48.8815C36.8783 48.8815 34.3501 51.4097 34.3501 54.5284C34.3501 57.647 36.8783 60.1752 39.997 60.1752Z" fill="#070C27"/>
<path d="M44.0888 54.5284C44.0888 52.2721 42.2593 50.4426 40.0031 50.4426C37.7468 50.4426 35.9173 52.2721 35.9173 54.5284C35.9173 56.7846 37.7468 58.6141 40.0031 58.6141C42.2593 58.6141 44.0888 56.7846 44.0888 54.5284Z" fill="#070C27"/>
<path d="M43.7534 66.4074H36.2405C35.1978 66.4074 34.3501 65.5598 34.3501 64.517C34.3501 63.4743 35.1978 62.6266 36.2405 62.6266H43.7534C44.7962 62.6266 45.6377 63.4743 45.6377 64.517C45.6377 65.5598 44.7901 66.4074 43.7534 66.4074Z" fill="#070C27"/>
</g>
<defs>
<clipPath id="clip0_33_1207">
<rect width="70" height="62.2371" fill="white" transform="translate(5 9)"/>
</clipPath>
</defs>
</svg>
