<svg width="80" height="80" viewBox="0 0 80 80" fill="none" xmlns="http://www.w3.org/2000/svg">
<g clip-path="url(#clip0_33_566)">
<path d="M58.6571 14.1899H21.3431L12.1646 33.8655H67.8357L58.6571 14.1899Z" fill="#070C27"/>
<path d="M52.5025 1H27.4933L21.343 14.1899H58.657L52.5025 1Z" fill="#070C27"/>
<path d="M70.5757 52.3899C73.3836 35.7005 61.9696 19.9217 45.0818 17.1468C28.1939 14.3719 12.2274 25.6518 9.41956 42.3412C6.61168 59.0305 18.0257 74.8094 34.9135 77.5842C51.8014 80.3591 67.7679 69.0792 70.5757 52.3899Z" fill="#070C27"/>
<path d="M66.1787 51.6475C68.5727 37.3564 58.7904 23.8533 44.3294 21.4874C29.8683 19.1215 16.2046 28.7888 13.8106 43.0799C11.4166 57.371 21.1988 70.8742 35.6599 73.24C50.1209 75.6059 63.7847 65.9386 66.1787 51.6475Z" fill="#344463"/>
<path d="M66.1787 51.6475C68.5727 37.3564 58.7904 23.8533 44.3294 21.4874C29.8683 19.1215 16.2046 28.7888 13.8106 43.0799C11.4166 57.371 21.1988 70.8742 35.6599 73.24C50.1209 75.6059 63.7847 65.9386 66.1787 51.6475Z" fill="#344463"/>
<path d="M45.0379 71.3462H34.9619V77.483H45.0379V71.3462Z" fill="#344463"/>
<path d="M49.2747 70.4375C62.1697 65.374 68.4696 50.9386 63.3459 38.1952C58.2221 25.4517 43.6151 19.2259 30.7201 24.2894C17.8251 29.3529 11.5252 43.7883 16.6489 56.5318C21.7726 69.2752 36.3797 75.501 49.2747 70.4375Z" fill="white"/>
<path d="M60.5592 50.7158C62.4311 39.4923 54.7421 28.8942 43.3851 27.0442C32.0282 25.1943 21.304 32.793 19.432 44.0164C17.56 55.2399 25.2491 65.838 36.6061 67.688C47.963 69.538 58.6872 61.9393 60.5592 50.7158Z" fill="#001231"/>
<path d="M45.4451 60.6305C45.9354 57.6588 43.8952 54.8571 40.8882 54.3726C37.8812 53.8881 35.0462 55.9043 34.5559 58.876C34.0656 61.8476 36.1058 64.6494 39.1128 65.1338C42.1198 65.6183 44.9549 63.6021 45.4451 60.6305Z" fill="white"/>
<path d="M49.0105 45.7524C52.473 45.7524 55.2799 42.9785 55.2799 39.5567C55.2799 36.135 52.473 33.3611 49.0105 33.3611C45.5481 33.3611 42.7412 36.135 42.7412 39.5567C42.7412 42.9785 45.5481 45.7524 49.0105 45.7524Z" fill="white"/>
<path d="M56.9126 54.5929C57.2904 52.2852 55.7037 50.1118 53.3686 49.7385C51.0335 49.3651 48.8343 50.9332 48.4565 53.2409C48.0787 55.5485 49.6654 57.7219 52.0005 58.0953C54.3356 58.4686 56.5349 56.9005 56.9126 54.5929Z" fill="white"/>
<path d="M43.5962 71.3462H36.3997V76.2472H43.5962V71.3462Z" fill="white"/>
<path d="M30.3413 56.908C32.014 55.255 32.014 52.575 30.3413 50.9221C28.6687 49.2691 25.9568 49.2691 24.2842 50.9221C22.6116 52.575 22.6116 55.255 24.2842 56.908C25.9568 58.561 28.6687 58.561 30.3413 56.908Z" fill="white"/>
<path d="M30.9895 45.7524C34.452 45.7524 37.2589 42.9785 37.2589 39.5567C37.2589 36.135 34.452 33.3611 30.9895 33.3611C27.5271 33.3611 24.7202 36.135 24.7202 39.5567C24.7202 42.9785 27.5271 45.7524 30.9895 45.7524Z" fill="white"/>
<path d="M39.9978 62.0107C41.264 62.0107 42.2904 60.9964 42.2904 59.7451C42.2904 58.4939 41.264 57.4796 39.9978 57.4796C38.7317 57.4796 37.7053 58.4939 37.7053 59.7451C37.7053 60.9964 38.7317 62.0107 39.9978 62.0107Z" fill="#001231"/>
<path d="M51.3839 39.5567C51.3839 40.8514 50.3205 41.9022 49.0105 41.9022C47.7005 41.9022 46.6372 40.8514 46.6372 39.5567C46.6372 38.2621 47.7005 37.2113 49.0105 37.2113C50.3205 37.2113 51.3839 38.2621 51.3839 39.5567Z" fill="#001231"/>
<path d="M52.6855 55.5377C53.5922 55.5377 54.3272 54.8113 54.3272 53.9152C54.3272 53.0191 53.5922 52.2927 52.6855 52.2927C51.7787 52.2927 51.0437 53.0191 51.0437 53.9152C51.0437 54.8113 51.7787 55.5377 52.6855 55.5377Z" fill="#001231"/>
<path d="M27.3146 55.5377C28.2213 55.5377 28.9564 54.8113 28.9564 53.9152C28.9564 53.0191 28.2213 52.2927 27.3146 52.2927C26.4079 52.2927 25.6729 53.0191 25.6729 53.9152C25.6729 54.8113 26.4079 55.5377 27.3146 55.5377Z" fill="#001231"/>
<path d="M33.3629 39.5567C33.3629 40.8514 32.2995 41.9022 30.9895 41.9022C29.6795 41.9022 28.6162 40.8514 28.6162 39.5567C28.6162 38.2621 29.6795 37.2113 30.9895 37.2113C32.2995 37.2113 33.3629 38.2621 33.3629 39.5567Z" fill="#001231"/>
<path d="M45.8843 6.16583H34.1155L35.7147 12.9667H44.2808L45.8843 6.16583Z" fill="white"/>
</g>
<defs>
<clipPath id="clip0_33_566">
<rect width="80" height="80" fill="white"/>
</clipPath>
</defs>
</svg>
