<svg width="80" height="80" viewBox="0 0 80 80" fill="none" xmlns="http://www.w3.org/2000/svg">
<path d="M70.1158 17.7829C67.2645 12.9805 62.0271 10 56.4451 10H23.5606C17.9959 10 12.7757 12.9503 9.93735 17.701C6.45724 23.5242 4.76025 30.2088 5.02729 37.0312C5.38047 46.0416 9.19223 54.4835 15.7519 60.7976C22.3073 67.1075 30.887 70.6005 39.8974 70.6221H40.0007C49.3514 70.6221 58.1378 66.9826 64.7492 60.3712C71.3605 53.7599 75 44.9691 75 35.6228C75 29.3345 73.3116 23.1667 70.1115 17.7829H70.1158Z" fill="#344463"/>
<path d="M39.9189 68.3393C31.4856 68.3178 23.4702 65.053 17.3369 59.1523C11.2036 53.2473 7.64168 45.3611 7.31004 36.9407C7.06023 30.562 8.64523 24.3167 11.8971 18.8726C14.3263 14.8067 18.7927 12.2827 23.5563 12.2827H56.4451C61.226 12.2827 65.714 14.8368 68.1518 18.9458C71.1409 23.9764 72.7173 29.7436 72.7173 35.6185C72.7173 44.3575 69.3147 52.5754 63.134 58.7518C56.9534 64.9324 48.7398 68.335 40.0007 68.335H39.9189V68.3393Z" fill="white"/>
<path d="M65.6967 20.4101C63.7672 17.1626 60.2224 15.1426 56.4451 15.1426H23.5606C19.7962 15.1426 16.2688 17.1324 14.3521 20.3412C11.3845 25.3073 9.93736 31.0098 10.1656 36.833C10.4671 44.5082 13.719 51.7053 19.3182 57.0978C24.9174 62.4859 32.2308 65.4664 39.9189 65.488H40.0007C47.9774 65.488 55.476 62.3826 61.114 56.7446C66.752 51.1066 69.8617 43.608 69.8617 35.6313C69.8617 30.269 68.4231 25.0058 65.6967 20.4144V20.4101Z" fill="#070C27"/>
<path d="M29.8323 37.2977C30.5328 33.2546 27.8231 29.4092 23.7801 28.7086C19.737 28.0081 15.8916 30.7178 15.191 34.7608C14.4905 38.8039 17.2001 42.6494 21.2432 43.3499C25.2863 44.0504 29.1317 41.3408 29.8323 37.2977Z" fill="white"/>
<path d="M25.8956 36.5803C26.199 34.7113 24.9298 32.9502 23.0608 32.6468C21.1918 32.3435 19.4307 33.6126 19.1273 35.4816C18.8239 37.3507 20.0931 39.1117 21.9621 39.4151C23.8311 39.7185 25.5922 38.4493 25.8956 36.5803Z" fill="#001231"/>
<path d="M47.3298 37.2575C48.0071 33.2104 45.2753 29.3806 41.2283 28.7034C37.1812 28.0261 33.3515 30.7579 32.6742 34.8049C31.997 38.852 34.7287 42.6818 38.7758 43.359C42.8228 44.0362 46.6526 41.3045 47.3298 37.2575Z" fill="white"/>
<path d="M42.425 38.4523C43.7638 37.1134 43.7638 34.9426 42.425 33.6037C41.0861 32.2649 38.9153 32.2649 37.5764 33.6037C36.2375 34.9426 36.2375 37.1134 37.5764 38.4523C38.9153 39.7912 41.0861 39.7912 42.425 38.4523Z" fill="#001231"/>
<path d="M62.6124 41.4089C65.5854 38.5808 65.7028 33.878 62.8747 30.905C60.0465 27.932 55.3437 27.8146 52.3707 30.6428C49.3978 33.471 49.2804 38.1737 52.1085 41.1467C54.9367 44.1197 59.6395 44.2371 62.6124 41.4089Z" fill="white"/>
<path d="M59.9141 38.45C61.253 37.1111 61.253 34.9403 59.9141 33.6014C58.5752 32.2625 56.4045 32.2625 55.0656 33.6014C53.7267 34.9403 53.7267 37.1111 55.0656 38.45C56.4045 39.7888 58.5752 39.7888 59.9141 38.45Z" fill="#001231"/>
<path d="M38.195 52.3781C38.832 48.3246 36.0622 44.5222 32.0087 43.8852C27.9551 43.2483 24.1527 46.018 23.5157 50.0716C22.8788 54.1251 25.6485 57.9275 29.7021 58.5645C33.7556 59.2014 37.5581 56.4317 38.195 52.3781Z" fill="white"/>
<path d="M33.2758 53.6459C34.6147 52.307 34.6147 50.1362 33.2758 48.7974C31.9369 47.4585 29.7661 47.4585 28.4272 48.7974C27.0884 50.1362 27.0884 52.307 28.4272 53.6459C29.7661 54.9848 31.9369 54.9848 33.2758 53.6459Z" fill="#001231"/>
<path d="M56.4922 52.3731C57.127 48.3192 54.3553 44.5183 50.3014 43.8834C46.2475 43.2486 42.4465 46.0203 41.8117 50.0742C41.1769 54.1281 43.9486 57.9291 48.0025 58.5639C52.0564 59.1988 55.8574 56.4271 56.4922 52.3731Z" fill="white"/>
<path d="M51.5787 53.648C52.9176 52.3091 52.9176 50.1383 51.5787 48.7995C50.2398 47.4606 48.069 47.4606 46.7302 48.7995C45.3913 50.1383 45.3913 52.3091 46.7302 53.648C48.069 54.9869 50.2398 54.9869 51.5787 53.648Z" fill="#001231"/>
<path d="M35.6525 24.441C36.1678 21.9703 34.5826 19.5498 32.1119 19.0345C29.6412 18.5193 27.2207 20.1044 26.7054 22.5751C26.1902 25.0458 27.7753 27.4664 30.246 27.9816C32.7167 28.4969 35.1373 26.9117 35.6525 24.441Z" fill="white"/>
<path d="M31.1799 21.5085C30.0772 21.5085 29.1814 22.4044 29.1814 23.507C29.1814 24.6096 30.0772 25.5055 31.1799 25.5055C32.2825 25.5055 33.1783 24.6096 33.1783 23.507C33.1783 22.4044 32.2825 21.5085 31.1799 21.5085Z" fill="#001231"/>
<path d="M50.359 27.8115C52.7357 26.9624 53.974 24.3474 53.1249 21.9707C52.2758 19.5939 49.6608 18.3556 47.2841 19.2047C44.9074 20.0538 43.669 22.6689 44.5181 25.0456C45.3672 27.4223 47.9823 28.6606 50.359 27.8115Z" fill="white"/>
<path d="M48.8216 25.5055C49.9253 25.5055 50.8201 24.6107 50.8201 23.507C50.8201 22.4033 49.9253 21.5085 48.8216 21.5085C47.7179 21.5085 46.8231 22.4033 46.8231 23.507C46.8231 24.6107 47.7179 25.5055 48.8216 25.5055Z" fill="#001231"/>
</svg>
