<svg width="28" height="28" viewBox="0 0 28 28" fill="none" xmlns="http://www.w3.org/2000/svg">
<path d="M13.8423 14.2998C12.3526 14.2998 11.1406 13.0878 11.1406 11.598C11.1406 10.1083 12.3526 8.89629 13.8423 8.89629C15.3328 8.89629 16.5449 10.1083 16.5449 11.598C16.5449 13.0878 15.3328 14.2998 13.8423 14.2998ZM13.8423 9.52999C12.7023 9.52999 11.7743 10.458 11.7743 11.598C11.7743 12.7381 12.7023 13.6661 13.8423 13.6661C14.9831 13.6661 15.9112 12.7381 15.9112 11.598C15.9112 10.458 14.9839 9.52999 13.8423 9.52999Z" fill="#C6FF36"/>
<path d="M13.8422 19.8477C12.5993 19.8477 11.4268 19.4585 10.4545 18.7219C10.2441 18.5534 10.0566 18.4023 9.88016 18.2393C9.69187 18.0502 9.483 17.8311 9.30262 17.5811C9.18712 17.4284 9.07003 17.2567 8.9648 17.0858C8.89439 16.9838 8.87541 16.8453 8.9205 16.7077C9.01227 16.5059 9.10958 16.3081 9.2425 16.1309C9.80816 15.282 10.7219 14.7077 11.7386 14.5708C11.7528 14.5692 11.8145 14.5645 11.828 14.5645C11.9648 14.5645 12.1033 14.6064 12.218 14.6816C13.2188 15.396 14.5337 15.3691 15.4522 14.691C15.5819 14.6056 15.7125 14.5645 15.843 14.5645C15.8596 14.5645 15.9213 14.5692 15.9364 14.5716C16.9482 14.7077 17.8628 15.2812 18.438 16.1444C18.5471 16.3066 18.6547 16.498 18.737 16.6744C18.7948 16.8422 18.7774 16.9798 18.7006 17.0945C18.5906 17.2725 18.4854 17.4411 18.3541 17.5977C18.1935 17.8081 17.9989 18.0305 17.7987 18.2306C17.6104 18.4062 17.4237 18.5787 17.2046 18.7298C16.2584 19.4569 15.0906 19.8477 13.8422 19.8477ZM9.55658 16.839C9.64044 16.9687 9.72588 17.0906 9.81133 17.2053C9.97035 17.4244 10.1578 17.6206 10.32 17.7836C10.4759 17.9284 10.6523 18.0692 10.8287 18.21C12.5716 19.5305 15.1381 19.5194 16.8351 18.218C17.0353 18.0795 17.1982 17.9268 17.3612 17.7749C17.5337 17.6017 17.7093 17.4015 17.8628 17.2021C17.9633 17.0819 18.0416 16.96 18.1167 16.839C18.0622 16.733 17.9878 16.6072 17.9134 16.4956C17.4379 15.7836 16.6856 15.3105 15.8485 15.1974C14.6745 16.0399 13.0613 16.0597 11.8612 15.2029C10.9878 15.3105 10.2346 15.7828 9.76069 16.4948C9.67762 16.6064 9.61196 16.7259 9.55658 16.839Z" fill="#C6FF36"/>
<path d="M14.7618 25.6632C14.4601 25.6632 14.1771 25.4927 14.0409 25.2302L12.9605 23.1957C12.5157 23.1458 12.0779 23.0655 11.6508 22.9538L9.91014 24.4711C9.64468 24.6984 9.2274 24.7238 8.93843 24.5328L6.41022 22.8852C6.11537 22.6962 5.97432 22.3122 6.07619 21.9752L6.76285 19.7663C6.50131 19.4362 6.25643 19.0699 6.01938 18.6565L3.71254 18.4998C3.35892 18.4822 3.04155 18.2128 2.96808 17.8582L2.34803 14.9166C2.27946 14.5698 2.4548 14.2035 2.76434 14.0409L4.81845 12.9565C4.86841 12.5109 4.94677 12.0759 5.05452 11.6577L3.54308 9.90622C3.30603 9.64665 3.27272 9.23229 3.47059 8.92961L5.11231 6.41121C5.30431 6.11637 5.71278 5.97628 6.04484 6.08794L8.24785 6.7609C8.58677 6.49349 8.9541 6.24566 9.34102 6.02134L9.50461 3.70275C9.52714 3.35599 9.79064 3.04743 10.1325 2.97102L13.08 2.35002C13.1054 2.34414 13.2132 2.33334 13.2406 2.33334C13.5482 2.33334 13.8342 2.50867 13.9694 2.78L15.04 4.81945C15.5102 4.86941 15.9442 4.94583 16.3556 5.05064L18.0962 3.53332C18.3607 3.30606 18.78 3.28158 19.0689 3.47162L21.5962 5.12018C21.891 5.30825 22.033 5.69225 21.9312 6.03019L21.2445 8.23805C21.5178 8.58383 21.7695 8.95213 21.9948 9.33807L24.2968 9.50559C24.6435 9.52812 24.9521 9.79356 25.0275 10.1364L25.6485 13.081C25.724 13.4179 25.5574 13.7901 25.2508 13.9596L23.1899 15.0479C23.1419 15.4691 23.0606 15.8942 22.944 16.3389L24.4662 18.0981C24.7013 18.4292 24.715 18.7917 24.524 19.0738L22.8862 21.5853C22.7422 21.8106 22.4787 21.9537 22.2025 21.9537C22.1251 21.9537 22.0497 21.9419 21.9772 21.9204L19.7526 21.2376C19.3941 21.5227 19.0376 21.7685 18.6702 21.984L18.5067 24.3026C18.4743 24.6592 18.2001 24.9619 17.8572 25.0295L14.9215 25.6485C14.8902 25.6534 14.7883 25.6632 14.7618 25.6632ZM11.5509 22.1271C11.5871 22.1271 11.6234 22.1329 11.6586 22.1427C12.169 22.2897 12.7009 22.3876 13.2416 22.4356C13.3738 22.4474 13.4914 22.5248 13.5531 22.6423L14.7325 24.8658L14.7599 25.2724L14.7589 24.8805L17.6946 24.2615L17.8964 21.7186C17.9062 21.5864 17.9826 21.4668 18.0982 21.4032C18.5449 21.1573 18.9749 20.8615 19.4118 20.5C19.5127 20.4158 19.6508 20.3874 19.7762 20.4265L22.1996 21.171L23.8667 18.6399L22.2103 16.6945C22.1241 16.5946 22.0938 16.4584 22.13 16.3311C22.2858 15.7825 22.3827 15.2702 22.4268 14.7658C22.4386 14.6325 22.5169 14.515 22.6345 14.4533L24.8757 13.27L24.2586 10.301L21.7264 10.106C21.5942 10.0953 21.4767 10.0198 21.413 9.90425C21.1495 9.43015 20.8448 8.98253 20.5049 8.57406C20.4197 8.47218 20.3933 8.33407 20.4325 8.20673L21.1808 5.80192L18.6369 4.12885L16.7102 5.78231C16.6093 5.86949 16.4712 5.89791 16.3448 5.86362C15.8619 5.72453 15.3417 5.63347 14.755 5.58155C14.6218 5.5698 14.5042 5.49142 14.4425 5.37289L13.27 3.13854L10.298 3.73803L10.108 6.28877C10.0982 6.42199 10.0218 6.54053 9.90524 6.6042C9.42723 6.86868 8.98153 7.1694 8.58089 7.49951C8.47902 7.58473 8.34384 7.61113 8.2165 7.57293L5.80388 6.83635L4.12591 9.36061L5.78233 11.305C5.86853 11.4059 5.89889 11.5411 5.86265 11.6684C5.72061 12.167 5.62462 12.696 5.57662 13.2406C5.56487 13.3738 5.4865 13.4904 5.36896 13.5521L3.12775 14.7364L3.73409 17.6975L6.28288 17.8885C6.41609 17.8983 6.5356 17.9737 6.59927 18.0903C6.8853 18.6105 7.18014 19.0493 7.49849 19.4304C7.58371 19.5322 7.61114 19.6713 7.57196 19.7987L6.82359 22.2044L9.36649 23.8765L11.2933 22.224C11.3658 22.1613 11.4578 22.1271 11.5509 22.1271Z" fill="#C6FF36"/>
</svg>
