<svg width="28" height="28" viewBox="0 0 28 28" fill="none" xmlns="http://www.w3.org/2000/svg">
<path d="M9.91654 14.3335C9.91683 14.5544 10.0047 14.7662 10.1609 14.9224C10.3171 15.0787 10.5289 15.1665 10.7499 15.1668C11.1552 15.166 11.5469 15.3132 11.8513 15.5808C12.1557 15.8484 12.352 16.2179 12.4032 16.62C12.4543 17.0221 12.3569 17.429 12.1292 17.7643C11.9015 18.0996 11.5591 18.3402 11.1665 18.4409V18.9168C11.1665 19.0273 11.1226 19.1333 11.0445 19.2114C10.9663 19.2895 10.8604 19.3334 10.7499 19.3334C10.6394 19.3334 10.5334 19.2895 10.4552 19.2114C10.3771 19.1333 10.3332 19.0273 10.3332 18.9168V18.4409C9.97632 18.3491 9.65999 18.1415 9.43378 17.8506C9.20758 17.5597 9.08428 17.202 9.08322 16.8335C9.08322 16.723 9.12712 16.617 9.20526 16.5388C9.2834 16.4607 9.38938 16.4168 9.49988 16.4168C9.61039 16.4168 9.71637 16.4607 9.7945 16.5388C9.87264 16.617 9.91654 16.723 9.91654 16.8335C9.91654 16.9983 9.96542 17.1594 10.057 17.2964C10.1485 17.4335 10.2787 17.5403 10.431 17.6034C10.5832 17.6664 10.7508 17.6829 10.9124 17.6508C11.0741 17.6186 11.2226 17.5393 11.3391 17.4227C11.4556 17.3062 11.535 17.1577 11.5672 16.996C11.5993 16.8344 11.5828 16.6668 11.5197 16.5146C11.4567 16.3623 11.3499 16.2322 11.2128 16.1406C11.0758 16.049 10.9147 16.0002 10.7499 16.0002C10.3445 16.001 9.95286 15.8538 9.64842 15.5862C9.34398 15.3186 9.14774 14.9491 9.09657 14.547C9.0454 14.1449 9.14283 13.738 9.37054 13.4027C9.59826 13.0673 9.94059 12.8267 10.3332 12.726V12.2502C10.3332 12.1397 10.3771 12.0337 10.4552 11.9556C10.5334 11.8774 10.6394 11.8336 10.7499 11.8336C10.8604 11.8336 10.9663 11.8774 11.0445 11.9556C11.1226 12.0337 11.1665 12.1397 11.1665 12.2502V12.726C11.5234 12.8179 11.8397 13.0255 12.0659 13.3164C12.2921 13.6073 12.4154 13.965 12.4165 14.3335C12.4165 14.444 12.3726 14.55 12.2945 14.6281C12.2163 14.7063 12.1103 14.7502 11.9998 14.7502C11.8893 14.7502 11.7834 14.7063 11.7052 14.6281C11.6271 14.55 11.5832 14.444 11.5832 14.3335C11.5832 14.1125 11.4954 13.9005 11.3391 13.7443C11.1828 13.588 10.9709 13.5002 10.7499 13.5002C10.5289 13.5002 10.3169 13.588 10.1606 13.7443C10.0043 13.9005 9.91654 14.1125 9.91654 14.3335ZM14.0831 23.0834C14.0832 23.1381 14.0724 23.1923 14.0515 23.2429C14.0306 23.2934 13.9999 23.3394 13.9612 23.3781C13.9225 23.4168 13.8765 23.4474 13.826 23.4684C13.7754 23.4893 13.7212 23.5001 13.6665 23.5H6.99992C5.6743 23.4986 4.40339 22.9713 3.46604 22.034C2.52869 21.0966 2.00145 19.8257 2 18.5001C2 13.7435 5.3992 9.86543 6.88681 8.39569C6.67291 8.30133 6.491 8.14691 6.36316 7.95117C6.23531 7.75544 6.16703 7.5268 6.1666 7.29301V6.79091C6.16751 6.53372 6.25069 6.28358 6.40398 6.07706C6.55726 5.87054 6.77261 5.7185 7.01851 5.64316C6.48746 4.89313 6.19097 4.00236 6.1666 3.08369C6.1666 1.15053 7.12321 1.00039 7.41658 1.00039C7.77274 0.993373 8.12446 1.08039 8.43626 1.25266C8.63484 1.36054 8.85724 1.41705 9.08322 1.41705C9.30921 1.41705 9.53161 1.36054 9.73018 1.25266C10.0445 1.08698 10.3945 1.00039 10.7499 1.00039C11.1052 1.00039 11.4552 1.08698 11.7695 1.25266C11.9681 1.36054 12.1905 1.41705 12.4165 1.41705C12.6425 1.41705 12.8649 1.36054 13.0635 1.25266C13.3753 1.08039 13.727 0.993373 14.0831 1.00039C14.3765 1.00039 15.3331 1.15053 15.3331 3.08369C15.3088 4.00236 15.0123 4.89313 14.4812 5.64316C14.7271 5.71849 14.9425 5.87054 15.0958 6.07705C15.249 6.28357 15.3322 6.53372 15.3331 6.79091V7.29301C15.3327 7.52722 15.2642 7.75625 15.136 7.95222C15.0077 8.1482 14.8253 8.30266 14.6109 8.39682C15.9114 9.68786 17.0226 11.1566 17.9112 12.7592C17.9638 12.8564 17.9757 12.9704 17.9443 13.0763C17.9129 13.1821 17.8408 13.2712 17.7437 13.324C17.6467 13.3767 17.5327 13.3887 17.4268 13.3575C17.3208 13.3262 17.2317 13.2542 17.1788 13.1572C16.2096 11.4205 14.9708 9.84859 13.5087 8.50027H7.99124C7.23851 9.18055 2.83332 13.3827 2.83332 18.5001C2.83462 19.6048 3.27401 20.6638 4.05512 21.4449C4.83623 22.226 5.89527 22.6654 6.99992 22.6667H13.6665C13.7212 22.6667 13.7754 22.6774 13.826 22.6984C13.8765 22.7193 13.9225 22.75 13.9612 22.7887C13.9999 22.8274 14.0306 22.8733 14.0515 22.9239C14.0724 22.9745 14.0832 23.0286 14.0831 23.0834ZM6.99992 3.08369C7.04846 4.00786 7.40727 4.88865 8.01835 5.58365H13.4814C14.0925 4.88865 14.4513 4.00786 14.4998 3.08369C14.4998 2.22474 14.2837 1.83371 14.0831 1.83371C13.8563 1.82655 13.6321 1.88353 13.4362 1.99809C13.1218 2.16378 12.7718 2.25037 12.4165 2.25037C12.0612 2.25037 11.7112 2.16378 11.3968 1.99809C11.1982 1.89022 10.9758 1.83371 10.7499 1.83371C10.5239 1.83371 10.3015 1.89022 10.1029 1.99809C9.7911 2.17037 9.43938 2.25739 9.08322 2.25037C8.72706 2.25739 8.37535 2.17037 8.06354 1.99809C7.86765 1.88353 7.6434 1.82655 7.41658 1.83371C7.21598 1.83371 6.99992 2.22474 6.99992 3.08369ZM6.99992 7.29301C7 7.39216 7.03942 7.48723 7.10953 7.55734C7.17964 7.62745 7.27471 7.66688 7.37386 7.66695H14.1259C14.225 7.66688 14.3201 7.62745 14.3902 7.55734C14.4603 7.48723 14.4997 7.39216 14.4998 7.29301V6.79091C14.4997 6.69175 14.4603 6.59669 14.3902 6.52658C14.3201 6.45647 14.225 6.41704 14.1259 6.41697H7.37386C7.27471 6.41704 7.17964 6.45647 7.10953 6.52658C7.03942 6.59669 7 6.69175 6.99992 6.79091V7.29301ZM26.9996 18.7821V19.8848C27.0002 20.0515 26.9504 20.2145 26.8568 20.3525C26.7633 20.4905 26.6302 20.5971 26.4751 20.6583L25.4644 21.0627C25.3871 21.2951 25.2939 21.5218 25.1856 21.7414L25.6133 22.7404C25.6795 22.8933 25.6981 23.0626 25.6666 23.2262C25.6351 23.3898 25.555 23.5401 25.4367 23.6575L24.6571 24.4371C24.5397 24.5553 24.3894 24.6354 24.2258 24.6669C24.0622 24.6984 23.8929 24.6799 23.74 24.6137L22.741 24.1856C22.5214 24.2941 22.2947 24.3873 22.0623 24.4648L21.6579 25.4759C21.5966 25.6309 21.49 25.7639 21.352 25.8574C21.214 25.9508 21.0511 26.0006 20.8844 26H19.7817C19.615 26.0006 19.4519 25.9508 19.3139 25.8572C19.1759 25.7637 19.0694 25.6306 19.0082 25.4755L18.6037 24.4648C18.3714 24.3873 18.1446 24.2941 17.925 24.1856L16.9261 24.6137C16.7732 24.6799 16.6039 24.6985 16.4403 24.667C16.2767 24.6355 16.1264 24.5554 16.009 24.4371L15.2294 23.6575C15.1111 23.5401 15.031 23.3898 14.9995 23.2262C14.968 23.0626 14.9865 22.8933 15.0528 22.7404L15.4804 21.7414C15.3721 21.5218 15.279 21.2951 15.2017 21.0627L14.1905 20.6583C14.0355 20.597 13.9026 20.4904 13.8091 20.3524C13.7156 20.2144 13.6659 20.0515 13.6665 19.8848V18.7821C13.6659 18.6154 13.7157 18.4523 13.8092 18.3143C13.9028 18.1763 14.0359 18.0698 14.191 18.0086L15.2017 17.6041C15.2792 17.3718 15.3724 17.145 15.4808 16.9254L15.0528 15.9265C14.9865 15.7736 14.968 15.6043 14.9995 15.4407C15.031 15.277 15.1111 15.1267 15.2294 15.0094L16.009 14.2298C16.1262 14.1113 16.2766 14.0311 16.4402 13.9996C16.6039 13.9681 16.7733 13.9868 16.9261 14.0532L17.925 14.4808C18.1447 14.3725 18.3714 14.2794 18.6037 14.2021L19.0082 13.1909C19.0695 13.0359 19.1761 12.903 19.3141 12.8095C19.452 12.716 19.615 12.6663 19.7817 12.6669H20.8844C21.0511 12.6663 21.2141 12.7161 21.3522 12.8096C21.4902 12.9032 21.5967 13.0362 21.6579 13.1914L22.0623 14.2021C22.2947 14.2794 22.5214 14.3725 22.741 14.4808L23.74 14.0532C23.8928 13.9867 24.0622 13.9679 24.2259 13.9995C24.3896 14.031 24.5399 14.1113 24.6571 14.2298L25.4367 15.0094C25.555 15.1267 25.6351 15.277 25.6666 15.4407C25.6981 15.6043 25.6795 15.7736 25.6133 15.9265L25.1853 16.9254C25.2936 17.1449 25.3869 17.3715 25.4644 17.6037L26.4755 18.0082C26.6305 18.0696 26.7634 18.1763 26.8569 18.3143C26.9504 18.4524 27.0001 18.6154 26.9996 18.7821ZM26.1663 18.7821L24.9716 18.3044C24.9131 18.281 24.8606 18.2446 24.8182 18.1979C24.7757 18.1512 24.7444 18.0956 24.7267 18.035C24.6363 17.7252 24.513 17.4259 24.3589 17.1423C24.3287 17.0869 24.3115 17.0254 24.3085 16.9624C24.3056 16.8994 24.3169 16.8365 24.3418 16.7786L24.8475 15.5986L24.0679 14.8189L22.8879 15.3243C22.8301 15.3492 22.7673 15.3607 22.7043 15.3577C22.6413 15.3547 22.5799 15.3375 22.5246 15.3072C22.2407 15.1535 21.9413 15.0304 21.6315 14.9398C21.5709 14.922 21.5152 14.8907 21.4686 14.8483C21.4219 14.8059 21.3855 14.7534 21.3621 14.6948L20.884 13.5002H19.7817L19.304 14.6948C19.2806 14.7534 19.2442 14.8059 19.1975 14.8483C19.1509 14.8908 19.0952 14.922 19.0346 14.9398C18.7248 15.0304 18.4254 15.1535 18.1415 15.3072C18.0862 15.3375 18.0248 15.3548 17.9618 15.3577C17.8988 15.3607 17.836 15.3492 17.7782 15.3243L16.5982 14.8189L15.8185 15.5985L16.3243 16.7785C16.3491 16.8365 16.3605 16.8994 16.3576 16.9624C16.3546 17.0254 16.3374 17.0869 16.3072 17.1423C16.1531 17.4259 16.0298 17.7251 15.9394 18.035C15.9216 18.0955 15.8904 18.1512 15.8479 18.1979C15.8055 18.2445 15.753 18.281 15.6944 18.3044L14.4998 18.7825V19.8848L15.6944 20.3625C15.753 20.3859 15.8055 20.4223 15.8479 20.4689C15.8904 20.5156 15.9216 20.5713 15.9394 20.6318C16.03 20.9417 16.1531 21.2411 16.3068 21.525C16.337 21.5803 16.3542 21.6417 16.3572 21.7047C16.3601 21.7676 16.3488 21.8304 16.3239 21.8883L15.8185 23.0683L16.5982 23.8479L17.7781 23.3422C17.8299 23.3198 17.8857 23.3083 17.9421 23.3084C18.0119 23.3085 18.0806 23.3259 18.1419 23.3593C18.4255 23.5134 18.7248 23.6367 19.0346 23.7271C19.0952 23.7448 19.1509 23.7761 19.1975 23.8186C19.2442 23.861 19.2806 23.9135 19.304 23.972L19.7821 25.1667H20.8844L21.3621 23.972C21.3855 23.9135 21.4219 23.861 21.4686 23.8185C21.5152 23.7761 21.5709 23.7448 21.6314 23.7271C21.9413 23.6367 22.2406 23.5134 22.5242 23.3592C22.5795 23.329 22.6411 23.3117 22.7041 23.3088C22.7671 23.3058 22.83 23.3172 22.8879 23.3422L24.0679 23.8479L24.8476 23.0683L24.3422 21.8883C24.3173 21.8304 24.306 21.7676 24.3089 21.7047C24.3119 21.6417 24.3291 21.5803 24.3593 21.525C24.513 21.2411 24.6361 20.9417 24.7267 20.6318C24.7445 20.5713 24.7757 20.5156 24.8182 20.469C24.8606 20.4223 24.9131 20.3859 24.9716 20.3625L26.1663 19.8844V18.7821ZM23.6663 19.3334C23.6663 19.9927 23.4708 20.6371 23.1046 21.1853C22.7383 21.7335 22.2177 22.1607 21.6086 22.413C20.9996 22.6653 20.3293 22.7313 19.6828 22.6027C19.0362 22.474 18.4422 22.1566 17.9761 21.6904C17.5099 21.2242 17.1924 20.6303 17.0638 19.9837C16.9352 19.3371 17.0012 18.6669 17.2535 18.0578C17.5058 17.4488 17.933 16.9282 18.4812 16.5619C19.0293 16.1956 19.6738 16.0002 20.333 16.0002C21.2168 16.0012 22.064 16.3527 22.6889 16.9776C23.3138 17.6025 23.6653 18.4497 23.6663 19.3334ZM22.833 19.3334C22.833 18.839 22.6864 18.3556 22.4117 17.9445C22.137 17.5334 21.7465 17.213 21.2897 17.0238C20.8329 16.8346 20.3303 16.785 19.8453 16.8815C19.3604 16.978 18.9149 17.2161 18.5653 17.5657C18.2157 17.9153 17.9776 18.3608 17.8811 18.8457C17.7847 19.3307 17.8342 19.8333 18.0234 20.2901C18.2126 20.7469 18.533 21.1374 18.9441 21.4121C19.3553 21.6868 19.8386 21.8334 20.333 21.8334C20.9959 21.8327 21.6313 21.569 22.1 21.1004C22.5687 20.6317 22.8323 19.9962 22.833 19.3334Z" fill="#C6FF36"/>
</svg>
