<svg width="28" height="28" viewBox="0 0 28 28" fill="none" xmlns="http://www.w3.org/2000/svg">
<path d="M23.961 10.2785H21.9129C20.9012 10.2785 20.0754 9.45545 20.0754 8.44099V5.45779H25.7957V8.44373C25.7957 9.45545 24.9727 10.2785 23.961 10.2785ZM21.1692 6.55154V8.44373C21.1692 8.85389 21.5028 9.18748 21.9129 9.18748H23.961C24.3711 9.18748 24.7047 8.85389 24.7047 8.44373V6.55154H21.1692Z" fill="#C6FF36"/>
<path d="M22.2548 3.91833H21.161V6.00466H22.2548V3.91833Z" fill="#C6FF36"/>
<path d="M24.7102 3.91833H23.6165V6.00466H24.7102V3.91833Z" fill="#C6FF36"/>
<path d="M16.2366 22.4109H3.84985V4.13709C3.84985 3.28943 4.53892 2.60037 5.38657 2.60037H14.6971C15.5448 2.60037 16.2338 3.28943 16.2338 4.13709V22.4109H16.2366ZM4.94634 21.3172H15.1455V4.13709C15.1455 3.89373 14.9459 3.69412 14.7026 3.69412H5.38931C5.14595 3.69412 4.94634 3.89373 4.94634 4.13709V21.3172Z" fill="#C6FF36"/>
<path d="M18.1479 25.0222H2.44983V22.7035C2.44983 21.8558 3.13889 21.1668 3.98655 21.1668H16.6111C17.4588 21.1668 18.1479 21.8558 18.1479 22.7035V25.0222ZM3.54358 23.9285H17.0568V22.7035C17.0568 22.4601 16.8572 22.2605 16.6139 22.2605H3.98655C3.74319 22.2605 3.54358 22.4601 3.54358 22.7035V23.9285Z" fill="#C6FF36"/>
<path d="M7.23777 9.68514C7.03269 9.68514 6.83855 9.60584 6.69363 9.45819C6.54597 9.31327 6.46667 9.11639 6.46667 8.91131V5.69296C6.46667 5.26639 6.81394 4.91913 7.2405 4.91913H13.3546C13.7811 4.91913 14.1284 5.26639 14.1284 5.69296V8.91405C14.1284 9.34061 13.7811 9.68787 13.3546 9.68787H7.23777C7.2405 9.68514 7.2405 9.68514 7.23777 9.68514ZM7.56042 6.01288V8.59139H13.0346V6.01288H7.56042Z" fill="#C6FF36"/>
<path d="M20.8358 20.8879C19.3756 20.8879 18.1862 19.6984 18.1862 18.2383V13.3957C18.1862 13.1387 17.9756 12.9281 17.7186 12.9281H15.944V11.8344H17.7186C18.5799 11.8344 19.2799 12.5344 19.2799 13.3957V18.241C19.2799 19.0996 19.9772 19.7969 20.8358 19.7969C21.6944 19.7969 22.3916 19.0996 22.3916 18.241V9.73163H23.4854V18.2383C23.4826 19.7012 22.2959 20.8879 20.8358 20.8879Z" fill="#C6FF36"/>
<path d="M10.2662 17.6829C10.1864 17.6824 10.1081 17.6655 10.0387 17.6339C9.93971 17.586 9.86844 17.5086 9.84056 17.4188C9.81268 17.3289 9.83046 17.2338 9.88999 17.1544L11.08 15.5689H9.19C9.11212 15.5693 9.03553 15.553 8.96814 15.5218C8.90076 15.4906 8.84501 15.4455 8.80666 15.3913C8.76831 15.3371 8.74875 15.2756 8.74999 15.2133C8.75124 15.151 8.77325 15.0901 8.81375 15.0369L10.4019 12.9369C10.4257 12.8907 10.4617 12.849 10.5073 12.8148C10.553 12.7806 10.6073 12.7547 10.6665 12.7387C10.7258 12.7227 10.7886 12.717 10.8509 12.7221C10.9131 12.7272 10.9732 12.7429 11.0272 12.7682C11.0812 12.7934 11.1278 12.8277 11.1638 12.8685C11.1999 12.9094 11.2246 12.956 11.2362 13.0052C11.2479 13.0544 11.2462 13.1049 11.2313 13.1535C11.2164 13.2021 11.1887 13.2476 11.15 13.2869L9.96437 14.8724H11.8325C11.91 14.8725 11.9861 14.8891 12.053 14.9205C12.1199 14.9518 12.1751 14.9969 12.2131 15.0509C12.2515 15.1041 12.2717 15.1645 12.2717 15.2259C12.2717 15.2874 12.2515 15.3477 12.2131 15.4009L10.6294 17.5009C10.5934 17.5536 10.5412 17.598 10.4776 17.6299C10.414 17.6618 10.3412 17.68 10.2662 17.6829Z" fill="#C6FF36"/>
</svg>
