<svg width="28" height="28" viewBox="0 0 28 28" fill="none" xmlns="http://www.w3.org/2000/svg">
<path d="M16.2624 18.0376C16.2624 18.6495 16.1419 19.2554 15.9078 19.8206C15.6736 20.3859 15.3304 20.8995 14.8978 21.3322C14.4651 21.7648 13.9515 22.108 13.3862 22.3422C12.821 22.5763 12.2151 22.6968 11.6032 22.6968H9.77203C9.16061 22.698 8.55497 22.5784 7.98989 22.3449C7.42481 22.1114 6.91144 21.7685 6.47923 21.336C5.828 20.6841 5.3847 19.8537 5.2054 18.9499C5.02609 18.046 5.11882 17.1093 5.47187 16.2581C5.82492 15.407 6.42243 14.6796 7.18885 14.168C7.95526 13.6565 8.85616 13.3836 9.77763 13.384H11.6088C12.8441 13.3855 14.0283 13.8769 14.9017 14.7503C15.7752 15.6238 16.2666 16.808 16.268 18.0432L16.2624 18.0376Z" stroke="#C6FF36" stroke-miterlimit="10"/>
<path d="M10.6904 10.9087C12.3389 10.9087 13.6752 9.57241 13.6752 7.92395C13.6752 6.27549 12.3389 4.93915 10.6904 4.93915C9.04197 4.93915 7.70563 6.27549 7.70563 7.92395C7.70563 9.57241 9.04197 10.9087 10.6904 10.9087Z" stroke="#C6FF36" stroke-miterlimit="10"/>
<mask id="path-3-inside-1_257_901" fill="white">
<path d="M23.7663 9.72723H23.2399C23.187 9.7275 23.1356 9.70996 23.094 9.67745C23.0523 9.64494 23.0228 9.59935 23.0103 9.54803C22.9411 9.29697 22.8394 9.05601 22.7079 8.83123C22.6823 8.78492 22.6723 8.7316 22.6793 8.67915C22.6864 8.62671 22.7101 8.57793 22.7471 8.54003L23.1223 8.16483C23.1445 8.14342 23.1621 8.11775 23.1742 8.08937C23.1862 8.06099 23.1924 8.03047 23.1924 7.99963C23.1924 7.9688 23.1862 7.93828 23.1742 7.9099C23.1621 7.88151 23.1445 7.85585 23.1223 7.83443L22.5623 7.27443C22.5404 7.25208 22.5142 7.23433 22.4854 7.2222C22.4565 7.21008 22.4256 7.20384 22.3943 7.20384C22.363 7.20384 22.332 7.21008 22.3032 7.2222C22.2743 7.23433 22.2482 7.25208 22.2263 7.27443L21.8511 7.64963C21.8139 7.68604 21.7657 7.70909 21.714 7.71517C21.6623 7.72125 21.6101 7.71002 21.5655 7.68323C21.339 7.55249 21.096 7.45267 20.8431 7.38643C20.7933 7.37196 20.7495 7.3418 20.7182 7.30043C20.6869 7.25906 20.6698 7.2087 20.6695 7.15683V6.59683C20.6695 6.53445 20.6447 6.47463 20.6006 6.43052C20.5565 6.38641 20.4966 6.36163 20.4343 6.36163H19.6559C19.5935 6.36163 19.5337 6.38641 19.4896 6.43052C19.4454 6.47463 19.4207 6.53445 19.4207 6.59683V7.15683C19.42 7.20942 19.4021 7.26034 19.3697 7.3018C19.3374 7.34326 19.2923 7.37298 19.2415 7.38643C18.9906 7.4537 18.7496 7.55348 18.5247 7.68323C18.4789 7.70955 18.426 7.72049 18.3735 7.71445C18.3211 7.7084 18.272 7.68568 18.2335 7.64963L17.8583 7.27443C17.8369 7.25225 17.8112 7.2346 17.7828 7.22255C17.7544 7.2105 17.7239 7.20429 17.6931 7.20429C17.6622 7.20429 17.6317 7.2105 17.6033 7.22255C17.5749 7.2346 17.5493 7.25225 17.5279 7.27443L16.9679 7.83443C16.9457 7.85585 16.928 7.88151 16.916 7.9099C16.9039 7.93828 16.8977 7.9688 16.8977 7.99963C16.8977 8.03047 16.9039 8.06099 16.916 8.08937C16.928 8.11775 16.9457 8.14342 16.9679 8.16483L17.3431 8.54003C17.3791 8.57858 17.4018 8.62767 17.4079 8.68009C17.4139 8.73252 17.403 8.7855 17.3767 8.83123C17.2469 9.05621 17.1471 9.29718 17.0799 9.54803C17.0664 9.59888 17.0367 9.64392 16.9952 9.67628C16.9538 9.70864 16.9029 9.72654 16.8503 9.72723H16.3183C16.2559 9.72723 16.1961 9.75201 16.152 9.79612C16.1078 9.84023 16.0831 9.90006 16.0831 9.96243V10.7576C16.0831 10.82 16.1078 10.8798 16.152 10.9239C16.1961 10.9681 16.2559 10.9928 16.3183 10.9928H16.8503C16.9021 10.9932 16.9525 11.0103 16.9939 11.0416C17.0352 11.0728 17.0654 11.1166 17.0799 11.1664C17.1461 11.4194 17.2459 11.6624 17.3767 11.8888C17.4035 11.9334 17.4147 11.9857 17.4086 12.0374C17.4025 12.089 17.3795 12.1373 17.3431 12.1744L16.9679 12.5496C16.9241 12.5946 16.8996 12.6549 16.8996 12.7176C16.8996 12.7804 16.9241 12.8407 16.9679 12.8856L17.5279 13.4456C17.5493 13.4678 17.5749 13.4855 17.6033 13.4975C17.6317 13.5096 17.6622 13.5158 17.6931 13.5158C17.7239 13.5158 17.7544 13.5096 17.7828 13.4975C17.8112 13.4855 17.8369 13.4678 17.8583 13.4456L18.2335 13.0704C18.2714 13.0335 18.3201 13.0097 18.3726 13.0027C18.425 12.9956 18.4784 13.0056 18.5247 13.0312C18.7506 13.1604 18.9913 13.262 19.2415 13.3336C19.2928 13.3462 19.3384 13.3757 19.3709 13.4174C19.4034 13.459 19.4209 13.5104 19.4207 13.5632V14.0896C19.4199 14.121 19.4255 14.1522 19.4369 14.1814C19.4484 14.2105 19.4656 14.2371 19.4875 14.2596C19.5095 14.282 19.5356 14.2998 19.5645 14.312C19.5935 14.3242 19.6245 14.3304 19.6559 14.3304H20.4343C20.4656 14.3304 20.4967 14.3242 20.5256 14.312C20.5545 14.2998 20.5807 14.282 20.6026 14.2596C20.6245 14.2371 20.6417 14.2105 20.6532 14.1814C20.6647 14.1522 20.6702 14.121 20.6695 14.0896V13.5576C20.6689 13.5055 20.6856 13.4547 20.717 13.4132C20.7485 13.3716 20.7928 13.3417 20.8431 13.328C21.0954 13.2574 21.3381 13.1559 21.5655 13.0256C21.6107 12.9996 21.6633 12.9893 21.715 12.9963C21.7667 13.0034 21.8146 13.0275 21.8511 13.0648L22.2263 13.44C22.2482 13.4624 22.2743 13.4801 22.3032 13.4923C22.332 13.5044 22.363 13.5106 22.3943 13.5106C22.4256 13.5106 22.4565 13.5044 22.4854 13.4923C22.5142 13.4801 22.5404 13.4624 22.5623 13.44L23.1223 12.88C23.1446 12.8581 23.1624 12.832 23.1745 12.8031C23.1866 12.7743 23.1929 12.7433 23.1929 12.712C23.1929 12.6807 23.1866 12.6498 23.1745 12.6209C23.1624 12.5921 23.1446 12.5659 23.1223 12.544L22.7471 12.1688C22.7098 12.1323 22.6857 12.0844 22.6786 12.0327C22.6715 11.981 22.6818 11.9284 22.7079 11.8832C22.8404 11.657 22.9421 11.414 23.0103 11.1608C23.0239 11.1106 23.0539 11.0662 23.0954 11.0348C23.137 11.0034 23.1878 10.9867 23.2399 10.9872H23.7663C23.7976 10.988 23.8288 10.9824 23.858 10.971C23.8872 10.9595 23.9138 10.9423 23.9362 10.9204C23.9586 10.8984 23.9765 10.8723 23.9886 10.8434C24.0008 10.8144 24.0071 10.7834 24.0071 10.752V9.97363C24.0086 9.94134 24.0035 9.90907 23.992 9.87885C23.9805 9.84863 23.9629 9.82109 23.9404 9.79797C23.9178 9.77485 23.8906 9.75663 23.8607 9.74446C23.8307 9.73229 23.7986 9.72643 23.7663 9.72723ZM20.0535 11.5136C19.8231 11.5136 19.5979 11.4453 19.4063 11.3173C19.2148 11.1893 19.0655 11.0074 18.9773 10.7946C18.8892 10.5817 18.8661 10.3475 18.9111 10.1216C18.956 9.89564 19.0669 9.6881 19.2298 9.5252C19.3927 9.3623 19.6003 9.25136 19.8262 9.20641C20.0522 9.16147 20.2864 9.18454 20.4992 9.2727C20.7121 9.36086 20.894 9.51015 21.022 9.7017C21.15 9.89326 21.2183 10.1185 21.2183 10.3488C21.2183 10.6578 21.0955 10.954 20.8771 11.1725C20.6587 11.3909 20.3624 11.5136 20.0535 11.5136Z"/>
</mask>
<path d="M23.7663 9.72723H23.2399C23.187 9.7275 23.1356 9.70996 23.094 9.67745C23.0523 9.64494 23.0228 9.59935 23.0103 9.54803C22.9411 9.29697 22.8394 9.05601 22.7079 8.83123C22.6823 8.78492 22.6723 8.7316 22.6793 8.67915C22.6864 8.62671 22.7101 8.57793 22.7471 8.54003L23.1223 8.16483C23.1445 8.14342 23.1621 8.11775 23.1742 8.08937C23.1862 8.06099 23.1924 8.03047 23.1924 7.99963C23.1924 7.9688 23.1862 7.93828 23.1742 7.9099C23.1621 7.88151 23.1445 7.85585 23.1223 7.83443L22.5623 7.27443C22.5404 7.25208 22.5142 7.23433 22.4854 7.2222C22.4565 7.21008 22.4256 7.20384 22.3943 7.20384C22.363 7.20384 22.332 7.21008 22.3032 7.2222C22.2743 7.23433 22.2482 7.25208 22.2263 7.27443L21.8511 7.64963C21.8139 7.68604 21.7657 7.70909 21.714 7.71517C21.6623 7.72125 21.6101 7.71002 21.5655 7.68323C21.339 7.55249 21.096 7.45267 20.8431 7.38643C20.7933 7.37196 20.7495 7.3418 20.7182 7.30043C20.6869 7.25906 20.6698 7.2087 20.6695 7.15683V6.59683C20.6695 6.53445 20.6447 6.47463 20.6006 6.43052C20.5565 6.38641 20.4966 6.36163 20.4343 6.36163H19.6559C19.5935 6.36163 19.5337 6.38641 19.4896 6.43052C19.4454 6.47463 19.4207 6.53445 19.4207 6.59683V7.15683C19.42 7.20942 19.4021 7.26034 19.3697 7.3018C19.3374 7.34326 19.2923 7.37298 19.2415 7.38643C18.9906 7.4537 18.7496 7.55348 18.5247 7.68323C18.4789 7.70955 18.426 7.72049 18.3735 7.71445C18.3211 7.7084 18.272 7.68568 18.2335 7.64963L17.8583 7.27443C17.8369 7.25225 17.8112 7.2346 17.7828 7.22255C17.7544 7.2105 17.7239 7.20429 17.6931 7.20429C17.6622 7.20429 17.6317 7.2105 17.6033 7.22255C17.5749 7.2346 17.5493 7.25225 17.5279 7.27443L16.9679 7.83443C16.9457 7.85585 16.928 7.88151 16.916 7.9099C16.9039 7.93828 16.8977 7.9688 16.8977 7.99963C16.8977 8.03047 16.9039 8.06099 16.916 8.08937C16.928 8.11775 16.9457 8.14342 16.9679 8.16483L17.3431 8.54003C17.3791 8.57858 17.4018 8.62767 17.4079 8.68009C17.4139 8.73252 17.403 8.7855 17.3767 8.83123C17.2469 9.05621 17.1471 9.29718 17.0799 9.54803C17.0664 9.59888 17.0367 9.64392 16.9952 9.67628C16.9538 9.70864 16.9029 9.72654 16.8503 9.72723H16.3183C16.2559 9.72723 16.1961 9.75201 16.152 9.79612C16.1078 9.84023 16.0831 9.90006 16.0831 9.96243V10.7576C16.0831 10.82 16.1078 10.8798 16.152 10.9239C16.1961 10.9681 16.2559 10.9928 16.3183 10.9928H16.8503C16.9021 10.9932 16.9525 11.0103 16.9939 11.0416C17.0352 11.0728 17.0654 11.1166 17.0799 11.1664C17.1461 11.4194 17.2459 11.6624 17.3767 11.8888C17.4035 11.9334 17.4147 11.9857 17.4086 12.0374C17.4025 12.089 17.3795 12.1373 17.3431 12.1744L16.9679 12.5496C16.9241 12.5946 16.8996 12.6549 16.8996 12.7176C16.8996 12.7804 16.9241 12.8407 16.9679 12.8856L17.5279 13.4456C17.5493 13.4678 17.5749 13.4855 17.6033 13.4975C17.6317 13.5096 17.6622 13.5158 17.6931 13.5158C17.7239 13.5158 17.7544 13.5096 17.7828 13.4975C17.8112 13.4855 17.8369 13.4678 17.8583 13.4456L18.2335 13.0704C18.2714 13.0335 18.3201 13.0097 18.3726 13.0027C18.425 12.9956 18.4784 13.0056 18.5247 13.0312C18.7506 13.1604 18.9913 13.262 19.2415 13.3336C19.2928 13.3462 19.3384 13.3757 19.3709 13.4174C19.4034 13.459 19.4209 13.5104 19.4207 13.5632V14.0896C19.4199 14.121 19.4255 14.1522 19.4369 14.1814C19.4484 14.2105 19.4656 14.2371 19.4875 14.2596C19.5095 14.282 19.5356 14.2998 19.5645 14.312C19.5935 14.3242 19.6245 14.3304 19.6559 14.3304H20.4343C20.4656 14.3304 20.4967 14.3242 20.5256 14.312C20.5545 14.2998 20.5807 14.282 20.6026 14.2596C20.6245 14.2371 20.6417 14.2105 20.6532 14.1814C20.6647 14.1522 20.6702 14.121 20.6695 14.0896V13.5576C20.6689 13.5055 20.6856 13.4547 20.717 13.4132C20.7485 13.3716 20.7928 13.3417 20.8431 13.328C21.0954 13.2574 21.3381 13.1559 21.5655 13.0256C21.6107 12.9996 21.6633 12.9893 21.715 12.9963C21.7667 13.0034 21.8146 13.0275 21.8511 13.0648L22.2263 13.44C22.2482 13.4624 22.2743 13.4801 22.3032 13.4923C22.332 13.5044 22.363 13.5106 22.3943 13.5106C22.4256 13.5106 22.4565 13.5044 22.4854 13.4923C22.5142 13.4801 22.5404 13.4624 22.5623 13.44L23.1223 12.88C23.1446 12.8581 23.1624 12.832 23.1745 12.8031C23.1866 12.7743 23.1929 12.7433 23.1929 12.712C23.1929 12.6807 23.1866 12.6498 23.1745 12.6209C23.1624 12.5921 23.1446 12.5659 23.1223 12.544L22.7471 12.1688C22.7098 12.1323 22.6857 12.0844 22.6786 12.0327C22.6715 11.981 22.6818 11.9284 22.7079 11.8832C22.8404 11.657 22.9421 11.414 23.0103 11.1608C23.0239 11.1106 23.0539 11.0662 23.0954 11.0348C23.137 11.0034 23.1878 10.9867 23.2399 10.9872H23.7663C23.7976 10.988 23.8288 10.9824 23.858 10.971C23.8872 10.9595 23.9138 10.9423 23.9362 10.9204C23.9586 10.8984 23.9765 10.8723 23.9886 10.8434C24.0008 10.8144 24.0071 10.7834 24.0071 10.752V9.97363C24.0086 9.94134 24.0035 9.90907 23.992 9.87885C23.9805 9.84863 23.9629 9.82109 23.9404 9.79797C23.9178 9.77485 23.8906 9.75663 23.8607 9.74446C23.8307 9.73229 23.7986 9.72643 23.7663 9.72723ZM20.0535 11.5136C19.8231 11.5136 19.5979 11.4453 19.4063 11.3173C19.2148 11.1893 19.0655 11.0074 18.9773 10.7946C18.8892 10.5817 18.8661 10.3475 18.9111 10.1216C18.956 9.89564 19.0669 9.6881 19.2298 9.5252C19.3927 9.3623 19.6003 9.25136 19.8262 9.20641C20.0522 9.16147 20.2864 9.18454 20.4992 9.2727C20.7121 9.36086 20.894 9.51015 21.022 9.7017C21.15 9.89326 21.2183 10.1185 21.2183 10.3488C21.2183 10.6578 21.0955 10.954 20.8771 11.1725C20.6587 11.3909 20.3624 11.5136 20.0535 11.5136Z" stroke="#C6FF36" stroke-width="2" stroke-miterlimit="10" mask="url(#path-3-inside-1_257_901)"/>
</svg>
