<svg width="28" height="28" viewBox="0 0 28 28" fill="none" xmlns="http://www.w3.org/2000/svg">
<g clip-path="url(#clip0_257_1045)">
<path d="M27.5735 16.3662V16.1203C27.5735 15.887 27.4165 14.6959 24.3004 14.1368L19.5974 13.4929C19.0214 13.0173 16.1356 10.7672 13.0782 10.7672H8.56272C6.80349 10.7672 4.9493 11.984 4.12134 12.8959L0.673269 12.9096C0.559985 12.91 0.451283 12.9556 0.371734 13.0362C0.29177 13.1168 0.247622 13.2259 0.248455 13.3392C0.248455 13.3392 0.25387 14.0672 0.260117 14.7732C0.260117 14.775 0.258867 14.7765 0.258867 14.7784C0.258867 14.7804 0.260117 14.7821 0.260117 14.784C0.264698 15.3462 0.270113 15.892 0.273444 16.0418C0.264698 16.0545 0.25387 16.0645 0.244291 16.0753C0.164742 16.1628 0.0164741 16.3256 0.0164741 16.6267C0.0164741 16.6627 0.0135587 16.7108 0.0110598 16.7671C-0.0122633 17.2154 -0.0601589 18.1488 0.611212 18.4226L2.73403 19.4311C2.9835 20.7464 4.13924 21.7445 5.52572 21.7445C6.88762 21.7445 8.02795 20.7813 8.30366 19.5005H18.243C18.5188 20.7813 19.6591 21.7445 21.021 21.7445C22.3829 21.7445 23.5232 20.7813 23.7989 19.5005H26.726C27.6343 19.5005 27.955 18.7212 27.9979 18.3091C27.9992 18.2945 28 18.2797 28 18.2652V16.9599C28 16.8445 27.9534 16.734 27.8701 16.6536L27.5735 16.3662ZM7.51568 18.9011C7.51568 19.9986 6.62315 20.8915 5.52572 20.8915C4.42828 20.8915 3.53576 19.9986 3.53576 18.9011C3.53576 17.8039 4.42828 16.9112 5.52572 16.9112C6.62315 16.9112 7.51568 17.8039 7.51568 18.9011ZM23.0109 18.9011C23.0109 19.9986 22.1184 20.8915 21.021 20.8915C19.9236 20.8915 19.031 19.9986 19.031 18.9011C19.031 17.8039 19.9236 16.9112 21.021 16.9112C22.1184 16.9112 23.0109 17.8039 23.0109 18.9011ZM27.147 18.2389C27.1341 18.3264 27.0637 18.6475 26.726 18.6475H23.851C23.7223 17.1983 22.5028 16.0582 21.021 16.0582C19.5391 16.0582 18.3197 17.1983 18.191 18.6475H8.35572C8.22703 17.1983 7.00757 16.0582 5.52572 16.0582C4.10176 16.0582 2.9227 17.1115 2.71779 18.4792L0.955644 17.6425C0.933571 17.6336 0.824869 17.5509 0.862769 16.8108C0.865684 16.7508 0.868183 16.6979 0.869016 16.654C0.870682 16.6534 0.872764 16.6517 0.875263 16.649C0.960226 16.5553 1.11891 16.381 1.11891 16.0403C1.11891 15.9293 1.11724 15.5984 1.11432 15.2048H2.00768C2.24341 15.2048 2.43416 15.0139 2.43416 14.7784C2.43416 14.5428 2.24341 14.3519 2.00768 14.3519H1.10891C1.10724 14.1343 1.10558 13.9289 1.10433 13.7609L4.31916 13.748C4.44744 13.7476 4.56864 13.6893 4.64944 13.5895C5.29915 12.7847 7.06671 11.6202 8.56272 11.6202H13.0782C16.1023 11.6202 19.1077 14.1949 19.1376 14.2209C19.2001 14.275 19.2772 14.31 19.3592 14.3213L24.1671 14.9791C26.1508 15.3352 26.6843 15.9489 26.7206 16.1203V16.5468C26.7206 16.6621 26.7672 16.7727 26.8505 16.8531L27.147 17.1405V18.2389ZM12.2344 14.5443L13.5847 14.5195L11.6355 16.9191L10.6376 17.0915L11.9546 15.4704L10.6589 15.4937L12.5156 13.1066L13.4826 12.94L12.2344 14.5443Z" fill="#C6FF36"/>
<path d="M23.1087 10.0155H22.6623C22.6175 10.0158 22.5739 10 22.5386 9.97092C22.5033 9.94179 22.4783 9.90095 22.4676 9.85497C22.4089 9.63002 22.3227 9.41411 22.2112 9.21272C22.1894 9.17122 22.181 9.12344 22.1869 9.07645C22.1929 9.02946 22.2131 8.98576 22.2444 8.9518L22.5626 8.61563C22.5814 8.59644 22.5964 8.57344 22.6066 8.54801C22.6168 8.52258 22.6221 8.49524 22.6221 8.46761C22.6221 8.43998 22.6168 8.41263 22.6066 8.3872C22.5964 8.36177 22.5814 8.33878 22.5626 8.31959L22.0877 7.81783C22.0691 7.79781 22.0469 7.7819 22.0225 7.77104C21.998 7.76018 21.9717 7.75458 21.9452 7.75458C21.9187 7.75458 21.8924 7.76018 21.8679 7.77104C21.8435 7.7819 21.8213 7.79781 21.8027 7.81783L21.4846 8.15401C21.453 8.18663 21.4122 8.20728 21.3683 8.21273C21.3245 8.21817 21.2802 8.20811 21.2424 8.18412C21.0503 8.06697 20.8443 7.97754 20.6298 7.91818C20.5875 7.90522 20.5504 7.87819 20.5238 7.84112C20.4973 7.80406 20.4828 7.75893 20.4825 7.71246V7.21071C20.4825 7.15482 20.4615 7.10121 20.4241 7.06169C20.3867 7.02217 20.336 6.99997 20.2831 6.99997H19.623C19.5701 6.99997 19.5193 7.02217 19.4819 7.06169C19.4445 7.10121 19.4235 7.15482 19.4235 7.21071V7.71246C19.4229 7.75958 19.4077 7.8052 19.3803 7.84235C19.3529 7.8795 19.3147 7.90613 19.2716 7.91818C19.0588 7.97846 18.8545 8.06786 18.6637 8.18412C18.6249 8.2077 18.58 8.2175 18.5355 8.21208C18.4911 8.20666 18.4494 8.18631 18.4167 8.15401L18.0986 7.81783C18.0804 7.79795 18.0586 7.78214 18.0346 7.77135C18.0105 7.76055 17.9846 7.75498 17.9585 7.75498C17.9323 7.75498 17.9064 7.76055 17.8824 7.77135C17.8583 7.78214 17.8365 7.79795 17.8184 7.81783L17.3435 8.31959C17.3247 8.33878 17.3097 8.36177 17.2995 8.3872C17.2893 8.41263 17.284 8.43998 17.284 8.46761C17.284 8.49524 17.2893 8.52258 17.2995 8.54801C17.3097 8.57344 17.3247 8.59644 17.3435 8.61563L17.6617 8.9518C17.6922 8.98634 17.7115 9.03033 17.7166 9.0773C17.7217 9.12427 17.7125 9.17174 17.6901 9.21272C17.5801 9.41429 17.4955 9.63021 17.4385 9.85497C17.427 9.90052 17.4018 9.94088 17.3667 9.96987C17.3315 9.99887 17.2883 10.0149 17.2437 10.0155H16.7926C16.7397 10.0155 16.689 10.0377 16.6516 10.0773C16.6142 10.1168 16.5931 10.1704 16.5931 10.2263V10.9388C16.5931 10.9947 16.6142 11.0483 16.6516 11.0878C16.689 11.1273 16.7397 11.1495 16.7926 11.1495H17.2437C17.2877 11.1498 17.3304 11.1651 17.3655 11.1932C17.4006 11.2212 17.4262 11.2604 17.4385 11.305C17.4946 11.5317 17.5793 11.7494 17.6901 11.9523C17.7129 11.9923 17.7224 12.0391 17.7172 12.0854C17.7121 12.1317 17.6925 12.1749 17.6617 12.2082L17.3435 12.5444C17.3063 12.5847 17.2856 12.6387 17.2856 12.6949C17.2856 12.7511 17.3063 12.8052 17.3435 12.8454L17.8184 13.3472C17.8365 13.3671 17.8583 13.3829 17.8824 13.3937C17.9064 13.4045 17.9323 13.41 17.9585 13.41C17.9846 13.41 18.0105 13.4045 18.0346 13.3937C18.0586 13.3829 18.0804 13.3671 18.0986 13.3472L18.4167 13.011C18.4489 12.9779 18.4902 12.9566 18.5347 12.9503C18.5792 12.944 18.6244 12.953 18.6637 12.9759C18.8553 13.0917 19.0594 13.1826 19.2716 13.2468C19.3151 13.2581 19.3537 13.2845 19.3813 13.3219C19.4089 13.3592 19.4237 13.4052 19.4235 13.4526V13.9242C19.4229 13.9523 19.4276 13.9803 19.4373 14.0064C19.4471 14.0326 19.4616 14.0564 19.4802 14.0765C19.4988 14.0966 19.521 14.1126 19.5455 14.1235C19.57 14.1344 19.5964 14.14 19.623 14.14H20.2831C20.3097 14.14 20.336 14.1344 20.3605 14.1235C20.385 14.1126 20.4072 14.0966 20.4258 14.0765C20.4444 14.0564 20.459 14.0326 20.4687 14.0064C20.4785 13.9803 20.4832 13.9523 20.4825 13.9242V13.4475C20.482 13.4009 20.4962 13.3553 20.5229 13.3181C20.5495 13.2809 20.5871 13.254 20.6298 13.2418C20.8438 13.1786 21.0495 13.0876 21.2424 12.9709C21.2807 12.9475 21.3253 12.9383 21.3692 12.9446C21.413 12.951 21.4536 12.9726 21.4846 13.006L21.8027 13.3422C21.8213 13.3622 21.8435 13.3781 21.8679 13.389C21.8924 13.3998 21.9187 13.4054 21.9452 13.4054C21.9717 13.4054 21.998 13.3998 22.0225 13.389C22.0469 13.3781 22.0691 13.3622 22.0877 13.3422L22.5626 12.8404C22.5815 12.8208 22.5966 12.7974 22.6069 12.7715C22.6171 12.7457 22.6224 12.7179 22.6224 12.6899C22.6224 12.6619 22.6171 12.6341 22.6069 12.6083C22.5966 12.5824 22.5815 12.559 22.5626 12.5394L22.2444 12.2032C22.2128 12.1705 22.1923 12.1276 22.1863 12.0813C22.1803 12.0349 22.189 11.9878 22.2112 11.9473C22.3236 11.7446 22.4098 11.5269 22.4676 11.3C22.4792 11.255 22.5046 11.2153 22.5398 11.1871C22.575 11.159 22.6181 11.144 22.6623 11.1445H23.1087C23.1353 11.1452 23.1617 11.1402 23.1865 11.1299C23.2112 11.1196 23.2338 11.1042 23.2528 11.0846C23.2718 11.0649 23.287 11.0415 23.2973 11.0156C23.3076 10.9897 23.3129 10.9618 23.3129 10.9337V10.2363C23.3142 10.2074 23.3099 10.1785 23.3001 10.1514C23.2904 10.1243 23.2755 10.0996 23.2563 10.0789C23.2372 10.0582 23.2142 10.0419 23.1888 10.031C23.1634 10.0201 23.1361 10.0148 23.1087 10.0155ZM19.9601 11.6161C19.7648 11.6161 19.5738 11.5549 19.4114 11.4402C19.2489 11.3256 19.1223 11.1626 19.0476 10.9719C18.9728 10.7812 18.9532 10.5713 18.9913 10.3689C19.0295 10.1664 19.1235 9.98046 19.2617 9.8345C19.3998 9.68855 19.5758 9.58915 19.7674 9.54888C19.9591 9.50861 20.1577 9.52928 20.3382 9.60827C20.5186 9.68726 20.6729 9.82103 20.7815 9.99265C20.89 10.1643 20.9479 10.3661 20.9479 10.5725C20.9479 10.8493 20.8439 11.1147 20.6586 11.3105C20.4734 11.5062 20.2221 11.6161 19.9601 11.6161Z" stroke="#C6FF36" stroke-width="0.56" stroke-miterlimit="10"/>
</g>
<defs>
<clipPath id="clip0_257_1045">
<rect width="28" height="28" fill="white"/>
</clipPath>
</defs>
</svg>
