<svg width="40" height="50" viewBox="0 0 40 50" fill="none" xmlns="http://www.w3.org/2000/svg">
<g clip-path="url(#clip0_205_1336)">
<path d="M20.0812 25.8747C17.4966 25.8747 15.3938 23.772 15.3938 21.1874C15.3938 18.6028 17.4966 16.5 20.0812 16.5C22.6671 16.5 24.7699 18.6028 24.7699 21.1874C24.7699 23.772 22.6671 25.8747 20.0812 25.8747ZM20.0812 17.5995C18.1033 17.5995 16.4932 19.2095 16.4932 21.1874C16.4932 23.1653 18.1033 24.7753 20.0812 24.7753C22.0604 24.7753 23.6705 23.1653 23.6705 21.1874C23.6705 19.2095 22.0618 17.5995 20.0812 17.5995Z" fill="#212121"/>
<path d="M20.0811 35.5C17.9248 35.5 15.8906 34.8247 14.2037 33.5469C13.8386 33.2545 13.5133 32.9923 13.2072 32.7096C12.8806 32.3815 12.5182 32.0013 12.2053 31.5676C12.0049 31.3027 11.8017 31.0048 11.6192 30.7084C11.497 30.5313 11.4641 30.2911 11.5423 30.0523C11.7015 29.7023 11.8703 29.3591 12.1009 29.0517C13.0823 27.5789 14.6677 26.5824 16.4314 26.3449C16.4561 26.3422 16.5632 26.334 16.5865 26.334C16.824 26.334 17.0642 26.4067 17.2632 26.5371C18.9995 27.7765 21.2808 27.7299 22.8743 26.5536C23.0994 26.4053 23.3259 26.334 23.5524 26.334C23.5812 26.334 23.6883 26.3422 23.7143 26.3463C25.4699 26.5824 27.0566 27.5775 28.0544 29.075C28.2439 29.3564 28.4305 29.6885 28.5733 29.9946C28.6735 30.2856 28.6433 30.5244 28.5101 30.7235C28.3193 31.0323 28.1368 31.3247 27.9089 31.5964C27.6303 31.9615 27.2927 32.3472 26.9454 32.6945C26.6187 32.9992 26.2948 33.2984 25.9146 33.5606C24.273 34.822 22.2471 35.5 20.0811 35.5ZM12.6459 30.2801C12.7914 30.5052 12.9396 30.7166 13.0878 30.9156C13.3637 31.2958 13.689 31.6362 13.9704 31.919C14.2408 32.1702 14.5469 32.4145 14.853 32.6588C17.8768 34.9496 22.3294 34.9304 25.2736 32.6725C25.6209 32.4323 25.9036 32.1674 26.1864 31.9039C26.4856 31.6033 26.7903 31.256 27.0566 30.9101C27.2309 30.7015 27.3668 30.4901 27.4972 30.2801C27.4025 30.0962 27.2734 29.878 27.1444 29.6844C26.3195 28.4491 25.0142 27.6283 23.562 27.432C21.5251 28.8938 18.7264 28.9281 16.6442 27.4416C15.1289 27.6283 13.8222 28.4477 13 29.683C12.8559 29.8766 12.7419 30.0838 12.6459 30.2801Z" fill="#212121"/>
<path d="M21.6468 45.195C21.1335 45.195 20.6518 44.905 20.4201 44.4583L18.5818 40.9967C17.8251 40.9117 17.0801 40.775 16.3535 40.585L13.3918 43.1667C12.9401 43.5534 12.2301 43.5967 11.7385 43.2717L7.43681 40.4684C6.93514 40.1467 6.69514 39.4933 6.86848 38.92L8.03681 35.1617C7.59181 34.6 7.17514 33.9767 6.77181 33.2733L2.84681 33.0067C2.24514 32.9767 1.70514 32.5183 1.58014 31.915L0.525143 26.91C0.408476 26.32 0.70681 25.6967 1.23348 25.42L4.72848 23.5751C4.81348 22.8167 4.94681 22.0767 5.13014 21.3651L2.55848 18.385C2.15514 17.9434 2.09848 17.2383 2.43514 16.7233L5.22848 12.4384C5.55514 11.9367 6.25014 11.6983 6.81514 11.8883L10.5635 13.0334C11.1401 12.5784 11.7651 12.1567 12.4235 11.775L12.7018 7.83002C12.7401 7.24002 13.1885 6.715 13.7701 6.585L18.7851 5.52838C18.8285 5.51838 19.0118 5.5 19.0585 5.5C19.5818 5.5 20.0685 5.79832 20.2985 6.25999L22.1201 9.73004C22.9201 9.81504 23.6585 9.94508 24.3585 10.1234L27.3201 7.54173C27.7701 7.15506 28.4835 7.11341 28.9751 7.43675L33.2751 10.2417C33.7768 10.5617 34.0185 11.2151 33.8451 11.7901L32.6768 15.5467C33.1418 16.135 33.5701 16.7617 33.9535 17.4183L37.8701 17.7034C38.4601 17.7417 38.9851 18.1933 39.1135 18.7767L40.1701 23.7867C40.2985 24.3601 40.0151 24.9934 39.4935 25.2817L35.9868 27.1334C35.9051 27.8501 35.7668 28.5734 35.5685 29.3301L38.1585 32.3233C38.5585 32.8867 38.5818 33.5034 38.2568 33.9834L35.4701 38.2567C35.2251 38.64 34.7768 38.8834 34.3068 38.8834C34.1751 38.8834 34.0468 38.8634 33.9235 38.8267L30.1385 37.665C29.5285 38.15 28.9218 38.5684 28.2968 38.9351L28.0185 42.8801C27.9635 43.4867 27.4968 44.0017 26.9135 44.1167L21.9185 45.17C21.8651 45.1783 21.6918 45.195 21.6468 45.195ZM16.1835 39.1784C16.2451 39.1784 16.3068 39.1884 16.3668 39.205C17.2351 39.455 18.1401 39.6217 19.0601 39.7034C19.2851 39.7234 19.4851 39.8551 19.5901 40.0551L21.5968 43.8383L21.6435 44.53L21.6418 43.8633L26.6368 42.8101L26.9801 38.4834C26.9968 38.2584 27.1268 38.055 27.3235 37.9467C28.0835 37.5284 28.8151 37.025 29.5585 36.41C29.7301 36.2667 29.9651 36.2183 30.1785 36.285L34.3018 37.5517L37.1385 33.2451L34.3201 29.935C34.1735 29.765 34.1218 29.5334 34.1835 29.3167C34.4485 28.3834 34.6135 27.5117 34.6885 26.6534C34.7085 26.4267 34.8418 26.2267 35.0418 26.1217L38.8551 24.1084L37.8051 19.0567L33.4968 18.725C33.2718 18.7067 33.0718 18.5783 32.9635 18.3817C32.5151 17.575 31.9968 16.8134 31.4185 16.1184C31.2735 15.9451 31.2285 15.7101 31.2951 15.4934L32.5685 11.4017L28.2401 8.55501L24.9618 11.3683C24.7901 11.5167 24.5551 11.565 24.3401 11.5067C23.5185 11.27 22.6335 11.1151 21.6351 11.0267C21.4085 11.0067 21.2085 10.8734 21.1035 10.6717L19.1085 6.87004L14.0518 7.89003L13.7285 12.23C13.7118 12.4567 13.5818 12.6584 13.3835 12.7667C12.5701 13.2167 11.8118 13.7284 11.1301 14.2901C10.9568 14.4351 10.7268 14.48 10.5101 14.415L6.40514 13.1617L3.55014 17.4567L6.36848 20.765C6.51514 20.9367 6.56681 21.1667 6.50514 21.3834C6.26348 22.2317 6.10014 23.1317 6.01848 24.0583C5.99848 24.285 5.86514 24.4833 5.66514 24.5883L1.85181 26.6034L2.88348 31.6417L7.22014 31.9667C7.44681 31.9833 7.65014 32.1117 7.75848 32.31C8.24514 33.195 8.74681 33.9417 9.28848 34.5901C9.43348 34.7634 9.48014 35 9.41348 35.2167L8.14014 39.31L12.4668 42.1551L15.7451 39.3434C15.8685 39.2367 16.0251 39.1784 16.1835 39.1784Z" fill="#212121"/>
</g>
<defs>
<clipPath id="clip0_205_1336">
<rect width="40" height="50" fill="white"/>
</clipPath>
</defs>
</svg>
