<svg width="40" height="50" viewBox="0 0 40 50" fill="none" xmlns="http://www.w3.org/2000/svg">
<path d="M10.001 20.0016H7.00057C6.72552 20.0016 6.50049 20.2266 6.50049 20.5017V23.5021C6.50049 23.7772 6.72552 24.0022 7.00057 24.0022H10.001C10.2761 24.0022 10.5011 23.7772 10.5011 23.5021V20.5017C10.5011 20.2266 10.2761 20.0016 10.001 20.0016ZM9.50096 23.0021H7.50064V21.0017H9.50096V23.0021Z" fill="#212121"/>
<path d="M16.002 20.0016H13.0015C12.7265 20.0016 12.5015 20.2266 12.5015 20.5017V23.5021C12.5015 23.7772 12.7265 24.0022 13.0015 24.0022H16.002C16.2771 24.0022 16.5021 23.7772 16.5021 23.5021V20.5017C16.5021 20.2266 16.2821 20.0016 16.002 20.0016ZM15.5019 23.0021H13.5016V21.0017H15.5019V23.0021Z" fill="#212121"/>
<path d="M22.5079 23.5021V20.5017C22.5079 20.2266 22.2829 20.0016 22.0079 20.0016H19.0074C18.7324 20.0016 18.5073 20.2266 18.5073 20.5017V23.5021C18.5073 23.7772 18.7324 24.0022 19.0074 24.0022H22.0079C22.2829 24.0022 22.5079 23.7772 22.5079 23.5021ZM21.5078 23.0021H19.5075V21.0017H21.5078V23.0021Z" fill="#212121"/>
<path d="M25.0084 24.0022H28.0088C28.2839 24.0022 28.5089 23.7772 28.5089 23.5021V20.5017C28.5089 20.2266 28.2839 20.0016 28.0088 20.0016H25.0084C24.7333 20.0016 24.5083 20.2266 24.5083 20.5017V23.5021C24.5083 23.7772 24.7333 24.0022 25.0084 24.0022ZM25.5085 21.0017H27.5088V23.0021H25.5085V21.0017Z" fill="#212121"/>
<path d="M10.001 25.5025H7.00057C6.72552 25.5025 6.50049 25.7275 6.50049 26.0026V29.003C6.50049 29.2781 6.72552 29.5031 7.00057 29.5031H10.001C10.2761 29.5031 10.5011 29.2781 10.5011 29.003V26.0026C10.5011 25.7275 10.2761 25.5025 10.001 25.5025ZM9.50096 28.503H7.50064V26.5027H9.50096V28.503Z" fill="#212121"/>
<path d="M16.002 25.5025H13.0015C12.7265 25.5025 12.5015 25.7275 12.5015 26.0026V29.003C12.5015 29.2781 12.7265 29.5031 13.0015 29.5031H16.002C16.2771 29.5031 16.5021 29.2781 16.5021 29.003V26.0026C16.5021 25.7275 16.2821 25.5025 16.002 25.5025ZM15.5019 28.503H13.5016V26.5027H15.5019V28.503Z" fill="#212121"/>
<path d="M10.001 31.0034H7.00057C6.72552 31.0034 6.50049 31.2284 6.50049 31.5034V34.5039C6.50049 34.7789 6.72552 35.004 7.00057 35.004H10.001C10.2761 35.004 10.5011 34.7789 10.5011 34.5039V31.5034C10.5011 31.2284 10.2761 31.0034 10.001 31.0034ZM9.50096 34.0038H7.50064V32.0035H9.50096V34.0038Z" fill="#212121"/>
<path d="M16.002 31.0034H13.0015C12.7265 31.0034 12.5015 31.2284 12.5015 31.5034V34.5039C12.5015 34.7789 12.7265 35.004 13.0015 35.004H16.002C16.2771 35.004 16.5021 34.7789 16.5021 34.5039V31.5034C16.5021 31.2284 16.2821 31.0034 16.002 31.0034ZM15.5019 34.0038H13.5016V32.0035H15.5019V34.0038Z" fill="#212121"/>
<path d="M35.37 32.0485C35.33 31.8335 35.1549 31.6685 34.9399 31.6385L33.8997 31.4784C33.7797 31.1034 33.6347 30.7483 33.4597 30.4133L34.0848 29.5581C34.1198 29.5131 34.1448 29.4631 34.1598 29.4081C34.1798 29.3531 34.1848 29.2981 34.1848 29.2431C34.1848 29.1431 34.1548 29.0431 34.0998 28.963C33.5547 28.1629 32.8646 27.4728 32.0495 26.9027C31.8944 26.7977 31.6794 26.7877 31.5094 26.8827C31.5094 26.8827 31.5094 26.8827 31.5044 26.8827V13.8707C31.5044 13.1156 30.8893 12.5005 30.1292 12.5005H27.4988V11.2503C27.4988 10.2851 26.7136 9.5 25.7485 9.5C25.2884 9.5 24.8483 9.68003 24.5083 10.0101C24.1782 10.3401 23.9982 10.7802 23.9982 11.2503V12.5005H10.9962V11.2503C10.9962 10.2851 10.211 9.5 9.2509 9.5C8.78083 9.5 8.34076 9.68003 8.0107 10.0101C7.68565 10.3401 7.50063 10.7802 7.50063 11.2503V12.5005H4.87021C4.1151 12.5005 3.5 13.1156 3.5 13.8707V36.1342C3.5 36.8893 4.1151 37.5044 4.87021 37.5044H20.8927C20.8877 37.5094 20.8827 37.5144 20.8827 37.5194C20.7977 37.6844 20.8077 37.8844 20.9127 38.0345C21.0977 38.3045 21.2628 38.5195 21.4278 38.7096C21.8829 39.2346 22.403 39.6997 22.973 40.0948C23.1431 40.2148 23.3931 40.2048 23.5631 40.0798L24.4133 39.4547C24.7633 39.6347 25.1184 39.7847 25.4784 39.8997L25.6385 40.9449C25.6535 41.0499 25.7035 41.1499 25.7785 41.225C25.8535 41.3 25.9485 41.355 26.0535 41.37C26.5436 41.455 27.0337 41.5 27.5188 41.5C28.0288 41.5 28.5039 41.455 28.974 41.37C29.069 41.35 29.159 41.305 29.229 41.24C29.309 41.1649 29.364 41.0549 29.384 40.9449L29.5441 39.8997C29.9041 39.7847 30.2592 39.6347 30.6092 39.4547L31.4594 40.0798C31.4694 40.0848 31.4794 40.0948 31.4894 40.0998C31.6544 40.2148 31.8794 40.2148 32.0545 40.0998C32.6446 39.6947 33.1796 39.2096 33.6347 38.6646C33.7947 38.4745 33.9498 38.2695 34.1098 38.0345C34.2098 37.8844 34.2198 37.6844 34.1398 37.5244C34.1248 37.4994 34.1098 37.4694 34.0898 37.4444L33.4597 36.5942C33.5247 36.4742 33.5847 36.3492 33.6497 36.2142C33.7497 35.9841 33.8297 35.7591 33.8997 35.5341L34.9299 35.374C35.1499 35.354 35.335 35.184 35.375 34.964C35.465 34.4589 35.505 33.9838 35.505 33.5088C35.505 33.0287 35.46 32.5386 35.37 32.0485ZM24.9984 11.2503C24.9984 11.0502 25.0784 10.8552 25.2134 10.7202C25.3634 10.5802 25.5534 10.5002 25.7485 10.5002C26.1635 10.5002 26.4986 10.8352 26.4986 11.2503V14.2507C26.4986 14.4508 26.4186 14.6408 26.2836 14.7758C26.1385 14.9208 25.9485 15.0009 25.7485 15.0009C25.3334 15.0009 24.9984 14.6658 24.9984 14.2507V11.2503ZM8.50078 11.2503C8.50078 11.0502 8.58079 10.8602 8.72082 10.7202C8.86084 10.5802 9.05087 10.5002 9.2509 10.5002C9.66096 10.5002 9.99602 10.8352 9.99602 11.2503V14.2507C9.99602 14.4508 9.916 14.6408 9.77598 14.7808C9.63596 14.9208 9.45093 15.0009 9.2509 15.0009C8.83583 15.0009 8.50078 14.6658 8.50078 14.2507V11.2503ZM4.87021 13.5006H7.50063V14.2507C7.50063 15.2159 8.28575 16.001 9.2509 16.001C9.71597 16.001 10.156 15.821 10.4861 15.4909C10.8111 15.1659 10.9962 14.7158 10.9962 14.2507V13.5006H23.9982V14.2507C23.9982 15.2159 24.7833 16.001 25.7485 16.001C26.2085 16.001 26.6486 15.821 26.9887 15.4909C27.3137 15.1659 27.4988 14.7158 27.4988 14.2507V13.5006H30.1292C30.3392 13.5006 30.5042 13.6657 30.5042 13.8707V17.4912H4.50016V13.8707C4.50016 13.6657 4.67018 13.5006 4.87021 13.5006ZM4.50016 36.1342V18.4914H30.5042V27.5028C30.1892 27.3428 29.8641 27.2078 29.5341 27.1028L29.374 26.0626C29.344 25.8526 29.174 25.6775 28.969 25.6375C28.0038 25.4525 27.0087 25.4575 26.0485 25.6375C25.8385 25.6775 25.6735 25.8526 25.6435 26.0626L25.4834 27.1028C25.1284 27.2178 24.7733 27.3678 24.4233 27.5478L23.5681 26.9277C23.5631 26.9227 23.5531 26.9177 23.5481 26.9127C23.3781 26.7927 23.1481 26.7877 22.973 26.9077C22.1679 27.4628 21.4778 28.1579 20.9127 28.973C20.8077 29.1231 20.7977 29.3131 20.8727 29.4731C20.8877 29.5031 20.9027 29.5381 20.9277 29.5631L21.5528 30.4183C21.3778 30.7533 21.2278 31.1084 21.1128 31.4834L20.0726 31.6435C19.9676 31.6585 19.8626 31.7085 19.7825 31.7835C19.7075 31.8535 19.6575 31.9485 19.6375 32.0535C19.5525 32.5136 19.5075 33.0037 19.5075 33.5138C19.5075 34.0088 19.5475 34.4989 19.6325 34.969C19.6675 35.169 19.8226 35.324 20.0126 35.369C20.0326 35.374 20.0526 35.379 20.0726 35.379L21.1178 35.5441C21.1828 35.7591 21.2678 35.9841 21.3778 36.2292C21.4178 36.3192 21.4678 36.4192 21.5178 36.5142H4.87021C4.67018 36.5042 4.50016 36.3392 4.50016 36.1342ZM34.4398 34.4389L33.4247 34.5939C33.2296 34.6239 33.0696 34.7689 33.0196 34.964C32.9446 35.249 32.8496 35.5291 32.7346 35.7991C32.6396 35.9941 32.5395 36.1892 32.4295 36.3842C32.3295 36.5592 32.3395 36.7743 32.4595 36.9343L33.0746 37.7594C33.0046 37.8494 32.9346 37.9394 32.8646 38.0195C32.5395 38.4095 32.1695 38.7596 31.7644 39.0696L30.9343 38.4595C30.7743 38.3395 30.5592 38.3295 30.3892 38.4295C29.9291 38.6946 29.4491 38.8946 28.964 39.0246C28.7689 39.0746 28.6289 39.2346 28.5989 39.4347L28.4439 40.4448C27.8688 40.5198 27.2287 40.5248 26.5786 40.4398L26.4236 39.4347C26.3936 39.2396 26.2486 39.0746 26.0585 39.0246C25.5735 38.8996 25.0934 38.6996 24.6333 38.4295C24.4633 38.3295 24.2482 38.3395 24.0882 38.4595L23.2631 39.0646C22.873 38.7646 22.513 38.4295 22.1929 38.0595C22.1129 37.9694 22.0379 37.8694 21.9529 37.7594L22.563 36.9293C22.683 36.7693 22.693 36.5542 22.593 36.3792C22.463 36.1592 22.3729 35.9791 22.2979 35.8141C22.1529 35.5041 22.0629 35.239 22.0029 34.979C21.9579 34.7789 21.7929 34.6239 21.5928 34.5939L20.5677 34.4339C20.5277 34.1288 20.5127 33.8188 20.5127 33.5037C20.5127 33.1837 20.5327 32.8737 20.5727 32.5736L21.5878 32.4186C21.7879 32.3886 21.9479 32.2436 21.9979 32.0485C22.1279 31.5384 22.3229 31.0634 22.578 30.6433C22.683 30.4683 22.673 30.2532 22.553 30.0882L21.9429 29.2581C22.3229 28.758 22.763 28.3179 23.2581 27.9379L24.0882 28.543C24.2482 28.658 24.4583 28.673 24.6283 28.573C25.0934 28.3079 25.5734 28.1079 26.0535 27.9779C26.2436 27.9279 26.3886 27.7679 26.4186 27.5728L26.5736 26.5677C27.1837 26.4827 27.8138 26.4827 28.4389 26.5677L28.5939 27.5728C28.6239 27.7679 28.7689 27.9279 28.959 27.9779C29.4491 28.1079 29.9291 28.3079 30.3892 28.573C30.5592 28.673 30.7743 28.658 30.9343 28.543L31.7594 27.9379C32.2595 28.3229 32.6996 28.763 33.0746 29.2531L32.4645 30.0882C32.3445 30.2532 32.3345 30.4683 32.4395 30.6433C32.6946 31.0634 32.8896 31.5384 33.0246 32.0535C33.0746 32.2486 33.2346 32.3886 33.4347 32.4186L34.4398 32.5736C34.4848 32.8887 34.5048 33.2037 34.5048 33.5088C34.5048 33.8138 34.4848 34.1188 34.4398 34.4389Z" fill="#212121"/>
<path d="M27.5088 29.7831C25.4535 29.7831 23.7832 31.4534 23.7832 33.5037C23.7832 35.559 25.4535 37.2293 27.5088 37.2293C29.5591 37.2293 31.2294 35.559 31.2294 33.5037C31.2294 31.4534 29.5591 29.7831 27.5088 29.7831ZM27.5088 36.2291C26.0085 36.2291 24.7834 35.009 24.7834 33.5037C24.7834 32.0035 26.0085 30.7833 27.5088 30.7833C29.009 30.7833 30.2292 32.0035 30.2292 33.5037C30.2292 35.004 29.009 36.2291 27.5088 36.2291Z" fill="#212121"/>
</svg>
