<svg width="40" height="50" viewBox="0 0 40 50" fill="none" xmlns="http://www.w3.org/2000/svg">
<g clip-path="url(#clip0_205_1351)">
<path d="M13.375 26.5006C13.3754 26.832 13.5073 27.1497 13.7416 27.384C13.9759 27.6183 14.2936 27.7502 14.625 27.7506C15.233 27.7493 15.8205 27.9701 16.2772 28.3715C16.7339 28.7729 17.0282 29.3273 17.105 29.9304C17.1817 30.5335 17.0356 31.1439 16.694 31.6469C16.3524 32.1499 15.8389 32.5108 15.25 32.6618V33.3756C15.25 33.5413 15.1842 33.7003 15.0669 33.8175C14.9497 33.9347 14.7908 34.0006 14.625 34.0006C14.4592 34.0006 14.3003 33.9347 14.1831 33.8175C14.0658 33.7003 14 33.5413 14 33.3756V32.6618C13.4647 32.5241 12.9902 32.2127 12.6509 31.7763C12.3115 31.34 12.1266 30.8033 12.125 30.2506C12.125 30.0848 12.1908 29.9259 12.3081 29.8086C12.4253 29.6914 12.5842 29.6256 12.75 29.6256C12.9158 29.6256 13.0747 29.6914 13.1919 29.8086C13.3092 29.9259 13.375 30.0848 13.375 30.2506C13.375 30.4978 13.4483 30.7395 13.5857 30.9451C13.723 31.1506 13.9182 31.3108 14.1466 31.4054C14.3751 31.5 14.6264 31.5248 14.8689 31.4766C15.1113 31.4283 15.3341 31.3093 15.5089 31.1345C15.6837 30.9597 15.8028 30.7369 15.851 30.4945C15.8992 30.252 15.8745 30.0006 15.7799 29.7722C15.6852 29.5438 15.525 29.3486 15.3195 29.2113C15.1139 29.0739 14.8722 29.0006 14.625 29.0006C14.017 29.0019 13.4295 28.781 12.9728 28.3797C12.5161 27.9783 12.2218 27.4239 12.145 26.8208C12.0683 26.2177 12.2144 25.6073 12.556 25.1043C12.8976 24.6013 13.4111 24.2404 14 24.0893V23.3756C14 23.2098 14.0658 23.0509 14.1831 22.9336C14.3003 22.8164 14.4592 22.7506 14.625 22.7506C14.7908 22.7506 14.9497 22.8164 15.0669 22.9336C15.1842 23.0509 15.25 23.2098 15.25 23.3756V24.0893C15.7853 24.2271 16.2598 24.5385 16.5991 24.9749C16.9385 25.4112 17.1234 25.9478 17.125 26.5006C17.125 26.6663 17.0592 26.8253 16.9419 26.9425C16.8247 27.0597 16.6658 27.1256 16.5 27.1256C16.3342 27.1256 16.1753 27.0597 16.0581 26.9425C15.9408 26.8253 15.875 26.6663 15.875 26.5006C15.875 26.1691 15.7433 25.8511 15.5089 25.6167C15.2745 25.3823 14.9565 25.2506 14.625 25.2506C14.2935 25.2506 13.9755 25.3823 13.7411 25.6167C13.5067 25.8511 13.375 26.1691 13.375 26.5006ZM19.625 39.6256C19.625 39.7077 19.6089 39.789 19.5775 39.8648C19.5461 39.9407 19.5001 40.0096 19.442 40.0676C19.384 40.1257 19.3151 40.1717 19.2392 40.2031C19.1634 40.2345 19.0821 40.2506 19 40.2506H9C7.01154 40.2484 5.10515 39.4575 3.6991 38.0515C2.29304 36.6454 1.50217 34.739 1.5 32.7506C1.5 25.6156 6.59888 19.7984 8.83033 17.5937C8.50948 17.4522 8.23661 17.2205 8.04484 16.9269C7.85307 16.6333 7.75065 16.2904 7.75 15.9397V15.1865C7.75137 14.8007 7.87614 14.4255 8.10607 14.1157C8.336 13.8059 8.65903 13.5779 9.02789 13.4649C8.23129 12.3398 7.78655 11.0036 7.75 9.62559C7.75 6.72581 9.18494 6.50059 9.625 6.50059C10.1593 6.49007 10.6868 6.62059 11.1545 6.87901C11.4524 7.04083 11.786 7.12559 12.125 7.12559C12.464 7.12559 12.7976 7.04083 13.0955 6.87901C13.567 6.63048 14.092 6.50059 14.625 6.50059C15.158 6.50059 15.683 6.63048 16.1545 6.87901C16.4524 7.04083 16.786 7.12559 17.125 7.12559C17.464 7.12559 17.7976 7.04083 18.0955 6.87901C18.5632 6.62059 19.0907 6.49007 19.625 6.50059C20.0651 6.50059 21.5 6.72581 21.5 9.62559C21.4634 11.0036 21.0187 12.3398 20.2221 13.4649C20.591 13.5779 20.914 13.8059 21.1439 14.1157C21.3739 14.4255 21.4986 14.8007 21.5 15.1865V15.9397C21.4994 16.291 21.3966 16.6345 21.2043 16.9285C21.0119 17.2225 20.7383 17.4542 20.4166 17.5954C22.3675 19.532 24.0342 21.7351 25.3672 24.1392C25.4461 24.2848 25.464 24.4559 25.4169 24.6147C25.3698 24.7735 25.2615 24.9071 25.116 24.9862C24.9704 25.0653 24.7994 25.0834 24.6405 25.0365C24.4816 24.9896 24.3479 24.8815 24.2686 24.7361C22.8147 22.1309 20.9565 19.7731 18.7633 17.7506H10.487C9.35789 18.771 2.75 25.0743 2.75 32.7506C2.75195 34.4076 3.41105 35.9962 4.58273 37.1679C5.75441 38.3395 7.34299 38.9986 9 39.0006H19C19.0821 39.0005 19.1634 39.0167 19.2392 39.0481C19.3151 39.0795 19.384 39.1255 19.442 39.1835C19.5001 39.2416 19.5461 39.3105 19.5775 39.3864C19.6089 39.4622 19.625 39.5435 19.625 39.6256ZM9 9.62559C9.07281 11.0119 9.61104 12.3331 10.5277 13.3756H18.7223C19.639 12.3331 20.1772 11.0119 20.25 9.62559C20.25 8.33714 19.9259 7.75059 19.625 7.75059C19.2848 7.73985 18.9484 7.82532 18.6545 7.99717C18.183 8.2457 17.658 8.37559 17.125 8.37559C16.592 8.37559 16.067 8.2457 15.5955 7.99717C15.2976 7.83535 14.964 7.75059 14.625 7.75059C14.286 7.75059 13.9524 7.83535 13.6545 7.99717C13.1868 8.25559 12.6593 8.38611 12.125 8.37559C11.5907 8.38611 11.0632 8.25559 10.5955 7.99717C10.3016 7.82532 9.96524 7.73985 9.625 7.75059C9.32409 7.75059 9 8.33714 9 9.62559ZM9 15.9397C9.00011 16.0884 9.05924 16.231 9.16441 16.3362C9.26958 16.4413 9.41218 16.5005 9.56091 16.5006H19.6891C19.8378 16.5005 19.9804 16.4413 20.0856 16.3362C20.1908 16.231 20.2499 16.0884 20.25 15.9397V15.1865C20.2499 15.0378 20.1908 14.8952 20.0856 14.79C19.9804 14.6848 19.8378 14.6257 19.6891 14.6256H9.56091C9.41218 14.6257 9.26958 14.6848 9.16441 14.79C9.05924 14.8952 9.00011 15.0378 9 15.1865V15.9397ZM39 33.1736V34.8276C39.0009 35.0777 38.9262 35.3223 38.7859 35.5293C38.6455 35.7363 38.4459 35.8961 38.2133 35.9879L36.6971 36.5946C36.5811 36.9431 36.4414 37.2832 36.279 37.6127L36.9205 39.1111C37.0199 39.3404 37.0477 39.5944 37.0005 39.8398C36.9532 40.0853 36.833 40.3107 36.6556 40.4868L35.4862 41.6562C35.3101 41.8336 35.0846 41.9537 34.8392 42.0009C34.5938 42.0482 34.3398 42.0204 34.1105 41.9211L32.6121 41.279C32.2826 41.4416 31.9425 41.5815 31.594 41.6977L30.9873 43.2145C30.8954 43.447 30.7355 43.6464 30.5285 43.7866C30.3215 43.9269 30.0771 44.0014 29.827 44.0006H28.173C27.9229 44.0014 27.6783 43.9268 27.4713 43.7864C27.2643 43.6461 27.1045 43.4465 27.0127 43.2138L26.406 41.6977C26.0575 41.5815 25.7174 41.4416 25.3879 41.279L23.8895 41.9211C23.6602 42.0205 23.4062 42.0483 23.1608 42.001C22.9153 41.9538 22.6899 41.8336 22.5138 41.6562L21.3444 40.4868C21.167 40.3107 21.0468 40.0853 20.9995 39.8398C20.9523 39.5944 20.9801 39.3404 21.0795 39.1111L21.721 37.6127C21.5585 37.2832 21.4188 36.9431 21.3028 36.5946L19.7861 35.9879C19.5536 35.896 19.3542 35.7361 19.2139 35.5291C19.0737 35.3221 18.9991 35.0776 19 34.8276V33.1736C18.9991 32.9235 19.0738 32.6789 19.2141 32.4719C19.3545 32.2649 19.5541 32.1051 19.7867 32.0133L21.3029 31.4066C21.4191 31.0581 21.5589 30.7179 21.7216 30.3885L21.0795 28.8901C20.9801 28.6608 20.9522 28.4068 20.9995 28.1613C21.0468 27.9159 21.1669 27.6904 21.3444 27.5144L22.5138 26.345C22.6897 26.1673 22.9152 26.047 23.1607 25.9997C23.4062 25.9524 23.6602 25.9804 23.8895 26.0801L25.3879 26.7215C25.7174 26.5591 26.0575 26.4194 26.406 26.3034L27.0127 24.7867C27.1046 24.5542 27.2645 24.3548 27.4715 24.2145C27.6785 24.0743 27.923 23.9997 28.173 24.0006H29.827C30.0771 23.9997 30.3217 24.0744 30.5287 24.2147C30.7357 24.3551 30.8955 24.5547 30.9873 24.7873L31.594 26.3034C31.9425 26.4194 32.2826 26.5591 32.6121 26.7216L34.1105 26.0801C34.3397 25.9803 34.5938 25.9522 34.8394 25.9995C35.0849 26.0468 35.3104 26.1672 35.4862 26.345L36.6556 27.5144C36.833 27.6904 36.9532 27.9159 37.0005 28.1613C37.0477 28.4068 37.0199 28.6608 36.9205 28.8901L36.2784 30.3885C36.4409 30.7178 36.5808 31.0577 36.6971 31.406L38.2139 32.0127C38.4464 32.1048 38.6457 32.2649 38.7859 32.4719C38.9261 32.679 39.0007 32.9235 39 33.1736ZM37.75 33.1736L35.958 32.457C35.8702 32.4219 35.7914 32.3673 35.7278 32.2973C35.6641 32.2273 35.6172 32.1437 35.5906 32.053C35.455 31.5882 35.27 31.1392 35.0388 30.7138C34.9936 30.6308 34.9677 30.5385 34.9633 30.444C34.9589 30.3495 34.9759 30.2552 35.0132 30.1682L35.7719 28.3982L34.6024 27.2287L32.8324 27.9868C32.7456 28.0242 32.6514 28.0413 32.5569 28.0369C32.4625 28.0325 32.3703 28.0065 32.2874 27.9611C31.8615 27.7306 31.4124 27.5459 30.9477 27.41C30.8569 27.3834 30.7733 27.3365 30.7033 27.2728C30.6333 27.2092 30.5787 27.1304 30.5436 27.0426L29.8264 25.2506H28.173L27.4564 27.0426C27.4213 27.1304 27.3667 27.2092 27.2967 27.2728C27.2267 27.3365 27.1432 27.3834 27.0524 27.41C26.5876 27.5459 26.1385 27.7306 25.7126 27.9612C25.6297 28.0066 25.5375 28.0325 25.4431 28.0369C25.3486 28.0414 25.2544 28.0242 25.1676 27.9868L23.3976 27.2287L22.2281 28.3982L22.9868 30.1682C23.0241 30.2551 23.0411 30.3494 23.0367 30.4439C23.0322 30.5384 23.0064 30.6307 22.9612 30.7138C22.73 31.1392 22.545 31.5881 22.4094 32.0529C22.3828 32.1437 22.3359 32.2272 22.2722 32.2972C22.2086 32.3672 22.1298 32.4218 22.042 32.457L20.25 33.1742V34.8276L22.042 35.5442C22.1299 35.5793 22.2086 35.6339 22.2722 35.7039C22.3359 35.7739 22.3828 35.8574 22.4094 35.9482C22.5453 36.413 22.73 36.8621 22.9606 37.2879C23.0058 37.3709 23.0317 37.4631 23.0361 37.5575C23.0405 37.6519 23.0235 37.7461 22.9862 37.833L22.2281 39.603L23.3976 40.7725L25.1676 40.0138C25.2452 39.9802 25.329 39.963 25.4136 39.9631C25.5182 39.9632 25.6213 39.9894 25.7132 40.0394C26.1386 40.2706 26.5876 40.4556 27.0523 40.5912C27.1431 40.6178 27.2267 40.6647 27.2967 40.7284C27.3667 40.792 27.4213 40.8708 27.4564 40.9586L28.1736 42.7506H29.827L30.5436 40.9586C30.5787 40.8707 30.6333 40.792 30.7033 40.7284C30.7733 40.6647 30.8568 40.6178 30.9476 40.5912C31.4124 40.4556 31.8613 40.2706 32.2867 40.0394C32.3698 39.994 32.4621 39.9681 32.5566 39.9637C32.6511 39.9592 32.7454 39.9764 32.8324 40.0138L34.6024 40.7725L35.7719 39.603L35.0138 37.833C34.9765 37.7461 34.9595 37.652 34.9639 37.5575C34.9684 37.4631 34.9942 37.3709 35.0394 37.288C35.27 36.8621 35.4547 36.413 35.5906 35.9482C35.6172 35.8575 35.6641 35.7739 35.7278 35.7039C35.7914 35.6339 35.8702 35.5793 35.958 35.5442L37.75 34.827V33.1736ZM34 34.0006C34 34.9895 33.7068 35.9562 33.1573 36.7784C32.6079 37.6007 31.827 38.2415 30.9134 38.62C29.9998 38.9984 28.9945 39.0974 28.0245 38.9045C27.0546 38.7116 26.1637 38.2354 25.4645 37.5361C24.7652 36.8369 24.289 35.9459 24.0961 34.976C23.9031 34.0061 24.0022 33.0008 24.3806 32.0872C24.759 31.1735 25.3999 30.3926 26.2221 29.8432C27.0444 29.2938 28.0111 29.0006 29 29.0006C30.3256 29.0021 31.5965 29.5294 32.5339 30.4667C33.4712 31.4041 33.9985 32.675 34 34.0006ZM32.75 34.0006C32.75 33.2589 32.5301 32.5339 32.118 31.9172C31.706 31.3005 31.1203 30.8199 30.4351 30.536C29.7498 30.2522 28.9958 30.1779 28.2684 30.3226C27.541 30.4673 26.8728 30.8245 26.3483 31.3489C25.8239 31.8734 25.4667 32.5416 25.3221 33.269C25.1774 33.9964 25.2516 34.7504 25.5355 35.4357C25.8193 36.1209 26.2999 36.7065 26.9166 37.1186C27.5333 37.5307 28.2583 37.7506 29 37.7506C29.9942 37.7495 30.9474 37.3541 31.6504 36.651C32.3535 35.948 32.7489 34.9948 32.75 34.0006Z" fill="#212121"/>
</g>
<defs>
<clipPath id="clip0_205_1351">
<rect width="40" height="50" fill="white"/>
</clipPath>
</defs>
</svg>
