<svg width="40" height="50" viewBox="0 0 40 50" fill="none" xmlns="http://www.w3.org/2000/svg">
<path d="M34.2305 19.6836H31.3047C29.8594 19.6836 28.6797 18.5078 28.6797 17.0586V12.7969H36.8516V17.0625C36.8516 18.5078 35.6758 19.6836 34.2305 19.6836ZM30.2422 14.3594V17.0625C30.2422 17.6484 30.7188 18.125 31.3047 18.125H34.2305C34.8164 18.125 35.293 17.6484 35.293 17.0625V14.3594H30.2422Z" fill="#212121"/>
<path d="M31.793 10.5977H30.2305V13.5781H31.793V10.5977Z" fill="#212121"/>
<path d="M35.3008 10.5977H33.7383V13.5781H35.3008V10.5977Z" fill="#212121"/>
<path d="M23.1953 37.0156H5.5V10.9102C5.5 9.69922 6.48437 8.71484 7.69531 8.71484H20.9961C22.207 8.71484 23.1914 9.69922 23.1914 10.9102V37.0156H23.1953ZM7.06641 35.4531H21.6367V10.9102C21.6367 10.5625 21.3516 10.2773 21.0039 10.2773H7.69922C7.35156 10.2773 7.06641 10.5625 7.06641 10.9102V35.4531Z" fill="#212121"/>
<path d="M25.9258 40.7461H3.5V37.4336C3.5 36.2227 4.48438 35.2383 5.69531 35.2383H23.7305C24.9414 35.2383 25.9258 36.2227 25.9258 37.4336V40.7461ZM5.0625 39.1836H24.3672V37.4336C24.3672 37.0859 24.082 36.8008 23.7344 36.8008H5.69531C5.34766 36.8008 5.0625 37.0859 5.0625 37.4336V39.1836Z" fill="#212121"/>
<path d="M10.3398 18.8359C10.0469 18.8359 9.76953 18.7227 9.5625 18.5117C9.35156 18.3047 9.23828 18.0234 9.23828 17.7305V13.1328C9.23828 12.5234 9.73437 12.0273 10.3437 12.0273H19.0781C19.6875 12.0273 20.1836 12.5234 20.1836 13.1328V17.7344C20.1836 18.3438 19.6875 18.8398 19.0781 18.8398H10.3398C10.3438 18.8359 10.3438 18.8359 10.3398 18.8359ZM10.8008 13.5898V17.2734H18.6211V13.5898H10.8008Z" fill="#212121"/>
<path d="M29.7656 34.8398C27.6797 34.8398 25.9805 33.1406 25.9805 31.0547V24.1367C25.9805 23.7695 25.6797 23.4688 25.3125 23.4688H22.7773V21.9062H25.3125C26.543 21.9062 27.543 22.9062 27.543 24.1367V31.0586C27.543 32.2852 28.5391 33.2812 29.7656 33.2812C30.9922 33.2812 31.9883 32.2852 31.9883 31.0586V18.9023H33.5508V31.0547C33.5469 33.1445 31.8516 34.8398 29.7656 34.8398Z" fill="#212121"/>
<path d="M14.6662 31.5767C14.5521 31.5757 14.4403 31.5456 14.3412 31.4892C14.1997 31.4036 14.0979 31.2654 14.058 31.1049C14.0182 30.9444 14.0436 30.7747 14.1287 30.6329L15.8287 27.8017H13.1287C13.0174 27.8023 12.908 27.7733 12.8117 27.7175C12.7155 27.6617 12.6358 27.5813 12.581 27.4844C12.5262 27.3876 12.4983 27.2779 12.5001 27.1667C12.5019 27.0554 12.5333 26.9467 12.5912 26.8517L14.8599 23.1017C14.894 23.0191 14.9453 22.9447 15.0105 22.8836C15.0758 22.8226 15.1533 22.7762 15.238 22.7476C15.3226 22.7191 15.4124 22.709 15.5013 22.7181C15.5902 22.7272 15.6761 22.7552 15.7532 22.8003C15.8304 22.8454 15.8969 22.9065 15.9484 22.9796C15.9999 23.0526 16.0352 23.1358 16.0518 23.2236C16.0684 23.3114 16.0661 23.4017 16.0448 23.4885C16.0236 23.5753 15.984 23.6565 15.9287 23.7267L14.2349 26.5579H16.9037C17.0144 26.5581 17.1231 26.5877 17.2186 26.6437C17.3142 26.6997 17.3931 26.7801 17.4474 26.8767C17.5023 26.9717 17.5311 27.0795 17.5311 27.1892C17.5311 27.2989 17.5023 27.4067 17.4474 27.5017L15.1849 31.2517C15.1336 31.3458 15.0589 31.4251 14.968 31.482C14.8772 31.5389 14.7732 31.5715 14.6662 31.5767Z" fill="#212121"/>
</svg>
