<svg width="40" height="50" viewBox="0 0 40 50" fill="none" xmlns="http://www.w3.org/2000/svg">
<path d="M5.81772 36.1045C6.2693 36.1045 6.63543 35.7383 6.63543 35.2867V26.7423C6.63543 24.4127 8.53079 22.5175 10.8604 22.5175C13.1899 22.5175 15.0851 24.4127 15.0851 26.7423V37.773C15.0851 41.0044 17.7141 43.6332 20.9455 43.6332C24.1768 43.6332 26.8056 41.0044 26.8056 37.773V25.5111C30.2317 25.1047 32.899 22.1867 32.899 18.6531V13.7979H34.1822C34.6338 13.7979 34.9999 13.4318 34.9999 12.9802C34.9999 12.5286 34.6338 12.1625 34.1822 12.1625H32.0812H30.4434V7.51754C30.4434 7.06596 30.0773 6.69983 29.6257 6.69983C29.1741 6.69983 28.808 7.06596 28.808 7.51754V12.1625H23.1682V7.51754C23.1682 7.06596 22.8021 6.69983 22.3505 6.69983C21.8989 6.69983 21.5328 7.06596 21.5328 7.51754V12.1625H19.895H17.7938C17.3422 12.1625 16.9761 12.5286 16.9761 12.9802C16.9761 13.4318 17.3422 13.7979 17.7938 13.7979H19.0772V18.6531C19.0772 22.1867 21.7442 25.1047 25.1702 25.5111V37.773C25.1702 40.1026 23.2748 41.9978 20.9455 41.9978C18.6159 41.9978 16.7205 40.1026 16.7205 37.773V26.7423C16.7205 23.5109 14.0917 20.8821 10.8604 20.8821C7.62903 20.8821 5 23.5109 5 26.7423V35.2867C5 35.7383 5.36614 36.1045 5.81772 36.1045ZM20.7127 18.6531V13.7979H31.2635V18.6531C31.2635 21.5621 28.897 23.9286 25.9879 23.9286C23.0792 23.9286 20.7127 21.5621 20.7127 18.6531Z" fill="#070C27"/>
<path d="M28.7297 18.2099C28.6032 17.9042 28.3049 17.705 27.9743 17.705H25.9759L27.5315 16.1494C27.8509 15.8302 27.8509 15.3123 27.5315 14.9931C27.2121 14.6737 26.6946 14.6737 26.3752 14.9931L23.4238 17.9445C23.1898 18.1783 23.1199 18.5301 23.2465 18.8355C23.3731 19.1412 23.6713 19.3404 24.0019 19.3404H26.0003L24.4192 20.9215C24.0997 21.2408 24.0997 21.7586 24.4192 22.0778C24.5789 22.2376 24.7881 22.3174 24.9973 22.3174C25.2065 22.3174 25.4158 22.2376 25.5755 22.0778L28.5525 19.1008C28.7864 18.8671 28.8563 18.5153 28.7297 18.2099Z" fill="#070C27"/>
</svg>
