<svg width="50" height="50" viewBox="0 0 50 50" fill="none" xmlns="http://www.w3.org/2000/svg">
<path d="M29.04 32.21C29.04 33.3026 28.8248 34.3845 28.4067 35.394C27.9885 36.4034 27.3757 37.3206 26.6031 38.0932C25.8305 38.8657 24.9133 39.4786 23.9039 39.8967C22.8945 40.3148 21.8126 40.53 20.72 40.53H17.45C16.3581 40.5322 15.2766 40.3186 14.2676 39.9016C13.2585 39.4846 12.3418 38.8723 11.57 38.1C10.4071 36.9359 9.61546 35.453 9.29527 33.839C8.97508 32.225 9.14068 30.5522 9.77112 29.0323C10.4016 27.5124 11.4685 26.2136 12.8371 25.3C14.2057 24.3865 15.8145 23.8993 17.46 23.9H20.73C22.9358 23.9027 25.0505 24.7801 26.6102 26.3398C28.1699 27.8995 29.0473 30.0142 29.05 32.22L29.04 32.21Z" stroke="#070C27" stroke-width="1.5" stroke-miterlimit="10"/>
<path d="M19.09 19.48C22.0337 19.48 24.42 17.0937 24.42 14.15C24.42 11.2063 22.0337 8.82001 19.09 8.82001C16.1463 8.82001 13.76 11.2063 13.76 14.15C13.76 17.0937 16.1463 19.48 19.09 19.48Z" stroke="#070C27" stroke-width="1.5" stroke-miterlimit="10"/>
<path d="M42.44 17.37H41.5C41.4056 17.3705 41.3139 17.3391 41.2395 17.2811C41.1651 17.223 41.1124 17.1416 41.09 17.05C40.9664 16.6017 40.7848 16.1714 40.55 15.77C40.5043 15.6873 40.4864 15.5921 40.499 15.4984C40.5116 15.4048 40.554 15.3177 40.62 15.25L41.29 14.58C41.3296 14.5417 41.3611 14.4959 41.3826 14.4452C41.4041 14.3945 41.4152 14.34 41.4152 14.285C41.4152 14.2299 41.4041 14.1754 41.3826 14.1247C41.3611 14.0741 41.3296 14.0282 41.29 13.99L40.29 12.99C40.2509 12.9501 40.2042 12.9184 40.1527 12.8967C40.1012 12.8751 40.0458 12.8639 39.99 12.8639C39.9341 12.8639 39.8788 12.8751 39.8273 12.8967C39.7758 12.9184 39.7291 12.9501 39.69 12.99L39.02 13.66C38.9536 13.725 38.8675 13.7662 38.7752 13.777C38.6829 13.7879 38.5896 13.7678 38.51 13.72C38.1056 13.4865 37.6717 13.3083 37.22 13.19C37.131 13.1641 37.0528 13.1103 36.997 13.0364C36.9411 12.9625 36.9106 12.8726 36.91 12.78V11.78C36.91 11.6686 36.8657 11.5618 36.787 11.483C36.7082 11.4042 36.6014 11.36 36.49 11.36H35.1C34.9886 11.36 34.8818 11.4042 34.803 11.483C34.7242 11.5618 34.68 11.6686 34.68 11.78V12.78C34.6787 12.8739 34.6468 12.9648 34.589 13.0388C34.5312 13.1129 34.4508 13.166 34.36 13.19C33.912 13.3101 33.4817 13.4883 33.08 13.72C32.9983 13.767 32.9037 13.7865 32.8101 13.7757C32.7165 13.7649 32.6288 13.7244 32.56 13.66L31.89 12.99C31.8517 12.9504 31.8059 12.9189 31.7552 12.8973C31.7045 12.8758 31.65 12.8647 31.595 12.8647C31.5399 12.8647 31.4854 12.8758 31.4347 12.8973C31.384 12.9189 31.3382 12.9504 31.3 12.99L30.3 13.99C30.2604 14.0282 30.2288 14.0741 30.2073 14.1247C30.1858 14.1754 30.1747 14.2299 30.1747 14.285C30.1747 14.34 30.1858 14.3945 30.2073 14.4452C30.2288 14.4959 30.2604 14.5417 30.3 14.58L30.97 15.25C31.0343 15.3188 31.0749 15.4065 31.0857 15.5001C31.0965 15.5937 31.077 15.6883 31.03 15.77C30.7983 16.1717 30.6201 16.602 30.5 17.05C30.476 17.1408 30.4229 17.2212 30.3488 17.279C30.2748 17.3368 30.1839 17.3687 30.09 17.37H29.14C29.0286 17.37 28.9218 17.4142 28.843 17.493C28.7642 17.5718 28.72 17.6786 28.72 17.79V19.21C28.72 19.3214 28.7642 19.4282 28.843 19.507C28.9218 19.5857 29.0286 19.63 29.14 19.63H30.09C30.1826 19.6306 30.2725 19.6611 30.3464 19.717C30.4203 19.7728 30.4741 19.8511 30.5 19.94C30.6183 20.3917 30.7965 20.8256 31.03 21.23C31.0778 21.3097 31.0979 21.4029 31.087 21.4952C31.0761 21.5875 31.035 21.6736 30.97 21.74L30.3 22.41C30.2218 22.4903 30.178 22.5979 30.178 22.71C30.178 22.8221 30.2218 22.9297 30.3 23.01L31.3 24.01C31.3382 24.0496 31.384 24.0811 31.4347 24.1026C31.4854 24.1242 31.5399 24.1352 31.595 24.1352C31.65 24.1352 31.7045 24.1242 31.7552 24.1026C31.8059 24.0811 31.8517 24.0496 31.89 24.01L32.56 23.34C32.6276 23.274 32.7147 23.2316 32.8084 23.219C32.902 23.2064 32.9973 23.2243 33.08 23.27C33.4834 23.5007 33.9132 23.682 34.36 23.81C34.4516 23.8324 34.533 23.8851 34.5911 23.9595C34.6491 24.0339 34.6804 24.1256 34.68 24.22V25.16C34.6786 25.216 34.6885 25.2717 34.709 25.3238C34.7295 25.3759 34.7603 25.4234 34.7994 25.4635C34.8385 25.5035 34.8853 25.5354 34.9369 25.5571C34.9885 25.5788 35.044 25.59 35.1 25.59H36.49C36.546 25.59 36.6014 25.5788 36.653 25.5571C36.7047 25.5354 36.7514 25.5035 36.7905 25.4635C36.8297 25.4234 36.8604 25.3759 36.8809 25.3238C36.9014 25.2717 36.9113 25.216 36.91 25.16V24.21C36.9089 24.117 36.9388 24.0262 36.9949 23.952C37.051 23.8778 37.1302 23.8243 37.22 23.8C37.6706 23.6739 38.1039 23.4925 38.51 23.26C38.5907 23.2134 38.6846 23.195 38.777 23.2077C38.8693 23.2204 38.9548 23.2634 39.02 23.33L39.69 24C39.7291 24.0399 39.7758 24.0716 39.8273 24.0933C39.8788 24.1149 39.9341 24.126 39.99 24.126C40.0458 24.126 40.1012 24.1149 40.1527 24.0933C40.2042 24.0716 40.2509 24.0399 40.29 24L41.29 23C41.3299 22.9609 41.3616 22.9142 41.3832 22.8627C41.4049 22.8112 41.416 22.7559 41.416 22.7C41.416 22.6441 41.4049 22.5888 41.3832 22.5373C41.3616 22.4858 41.3299 22.4391 41.29 22.4L40.62 21.73C40.5534 21.6648 40.5104 21.5793 40.4977 21.487C40.485 21.3946 40.5034 21.3007 40.55 21.22C40.7867 20.816 40.9683 20.3821 41.09 19.93C41.1143 19.8402 41.1678 19.761 41.242 19.7049C41.3162 19.6488 41.4069 19.619 41.5 19.62H42.44C42.496 19.6213 42.5517 19.6114 42.6038 19.5909C42.6559 19.5704 42.7034 19.5397 42.7434 19.5006C42.7835 19.4614 42.8153 19.4147 42.8371 19.3631C42.8588 19.3114 42.87 19.256 42.87 19.2V17.81C42.8727 17.7523 42.8636 17.6947 42.8431 17.6407C42.8226 17.5868 42.7912 17.5376 42.7508 17.4963C42.7105 17.455 42.6621 17.4225 42.6086 17.4008C42.5551 17.379 42.4977 17.3685 42.44 17.37ZM35.81 20.56C35.3986 20.56 34.9964 20.438 34.6544 20.2094C34.3123 19.9809 34.0457 19.656 33.8883 19.276C33.7309 18.8959 33.6897 18.4777 33.7699 18.0742C33.8502 17.6707 34.0483 17.3001 34.3392 17.0092C34.6301 16.7183 35.0007 16.5202 35.4042 16.44C35.8077 16.3597 36.2259 16.4009 36.606 16.5583C36.986 16.7157 37.3109 16.9823 37.5394 17.3244C37.768 17.6665 37.89 18.0686 37.89 18.48C37.89 19.0316 37.6708 19.5607 37.2808 19.9508C36.8907 20.3408 36.3616 20.56 35.81 20.56Z" stroke="#070C27" stroke-miterlimit="10"/>
</svg>
