<svg width="32" height="42" viewBox="0 0 32 42" fill="none" xmlns="http://www.w3.org/2000/svg">
<path d="M15.32 0H0V6.38033C0 9.89583 2.85588 12.7474 6.37669 12.7474H10.4028L15.5926 4.11303C15.9683 3.48562 16.9325 3.75119 16.9325 4.48482L16.9823 12.6843L20.5962 12.6677C21.4174 12.5482 22.2153 13.0594 22.4115 13.8628C22.4747 14.1217 22.468 14.3807 22.335 14.6031L14.1564 27.8285C13.7807 28.4559 12.8165 28.1903 12.8165 27.4567V20.5817H12.6403L9.15277 20.585C9.0896 20.595 9.02976 20.5917 8.96659 20.585H6.25035C2.79936 20.585 0.00332536 23.3769 0.00332536 26.8226V42H12.6437V33.2063L15.2602 33.266C24.4462 33.266 31.92 25.8035 31.92 16.6314C31.92 7.45922 24.4794 0.036516 15.32 0Z" fill="#9CE600"/>
<path d="M15.32 0H0V6.38033C0 9.89583 2.85588 12.7474 6.37669 12.7474H10.4028L15.5926 4.11303C15.9683 3.48562 16.9325 3.75119 16.9325 4.48482L16.9823 12.6843L20.5962 12.6677C21.4174 12.5482 22.2153 13.0594 22.4115 13.8628C22.4747 14.1217 22.468 14.3807 22.335 14.6031L14.1564 27.8285C13.7807 28.4559 12.8165 28.1903 12.8165 27.4567V20.5817H12.6403L9.15277 20.585C9.0896 20.595 9.02976 20.5917 8.96659 20.585H6.25035C2.79936 20.585 0.00332536 23.3769 0.00332536 26.8226V42H12.6437V33.2063L15.2602 33.266C24.4462 33.266 31.92 25.8035 31.92 16.6314C31.92 7.45922 24.4794 0.036516 15.32 0Z" fill="url(#paint0_radial_9_4913)" fill-opacity="0.9"/>
<path d="M15.32 0H0V6.38033C0 9.89583 2.85588 12.7474 6.37669 12.7474H10.4028L15.5926 4.11303C15.9683 3.48562 16.9325 3.75119 16.9325 4.48482L16.9823 12.6843L20.5962 12.6677C21.4174 12.5482 22.2153 13.0594 22.4115 13.8628C22.4747 14.1217 22.468 14.3807 22.335 14.6031L14.1564 27.8285C13.7807 28.4559 12.8165 28.1903 12.8165 27.4567V20.5817H12.6403L9.15277 20.585C9.0896 20.595 9.02976 20.5917 8.96659 20.585H6.25035C2.79936 20.585 0.00332536 23.3769 0.00332536 26.8226V42H12.6437V33.2063L15.2602 33.266C24.4462 33.266 31.92 25.8035 31.92 16.6314C31.92 7.45922 24.4794 0.036516 15.32 0Z" fill="url(#paint1_radial_9_4913)" fill-opacity="0.6" style="mix-blend-mode:lighten"/>
<defs>
<radialGradient id="paint0_radial_9_4913" cx="0" cy="0" r="1" gradientUnits="userSpaceOnUse" gradientTransform="translate(-0.139629 1.65982) rotate(67.5436) scale(45.2594 34.382)">
<stop stop-color="#F4FFAF"/>
<stop offset="0.401042" stop-color="#DBFF00"/>
<stop offset="1" stop-color="#A6C100" stop-opacity="0"/>
</radialGradient>
<radialGradient id="paint1_radial_9_4913" cx="0" cy="0" r="1" gradientUnits="userSpaceOnUse" gradientTransform="translate(34.7692 10.9548) rotate(-14.7042) scale(53.6207 40.6367)">
<stop stop-color="#ADFF00"/>
<stop offset="1" stop-color="#F3F3F3" stop-opacity="0"/>
</radialGradient>
</defs>
</svg>
