<svg width="174" height="42" viewBox="0 0 174 42" fill="none" xmlns="http://www.w3.org/2000/svg">
<path d="M15.32 0H0V6.38033C0 9.89583 2.85588 12.7474 6.37669 12.7474H10.4028L15.5926 4.11303C15.9683 3.48562 16.9325 3.75119 16.9325 4.48482L16.9823 12.6843L20.5962 12.6677C21.4174 12.5482 22.2153 13.0594 22.4115 13.8628C22.4747 14.1217 22.468 14.3807 22.335 14.6031L14.1564 27.8285C13.7807 28.4559 12.8165 28.1903 12.8165 27.4567V20.5817H12.6403L9.15277 20.585C9.0896 20.595 9.02976 20.5917 8.96659 20.585H6.25035C2.79936 20.585 0.00332536 23.3769 0.00332536 26.8226V42H12.6437V33.2063L15.2602 33.266C24.4462 33.266 31.92 25.8035 31.92 16.6314C31.92 7.45922 24.4794 0.036516 15.32 0Z" fill="#9CE600"/>
<path d="M15.32 0H0V6.38033C0 9.89583 2.85588 12.7474 6.37669 12.7474H10.4028L15.5926 4.11303C15.9683 3.48562 16.9325 3.75119 16.9325 4.48482L16.9823 12.6843L20.5962 12.6677C21.4174 12.5482 22.2153 13.0594 22.4115 13.8628C22.4747 14.1217 22.468 14.3807 22.335 14.6031L14.1564 27.8285C13.7807 28.4559 12.8165 28.1903 12.8165 27.4567V20.5817H12.6403L9.15277 20.585C9.0896 20.595 9.02976 20.5917 8.96659 20.585H6.25035C2.79936 20.585 0.00332536 23.3769 0.00332536 26.8226V42H12.6437V33.2063L15.2602 33.266C24.4462 33.266 31.92 25.8035 31.92 16.6314C31.92 7.45922 24.4794 0.036516 15.32 0Z" fill="url(#paint0_radial_9_4912)" fill-opacity="0.9"/>
<path d="M15.32 0H0V6.38033C0 9.89583 2.85588 12.7474 6.37669 12.7474H10.4028L15.5926 4.11303C15.9683 3.48562 16.9325 3.75119 16.9325 4.48482L16.9823 12.6843L20.5962 12.6677C21.4174 12.5482 22.2153 13.0594 22.4115 13.8628C22.4747 14.1217 22.468 14.3807 22.335 14.6031L14.1564 27.8285C13.7807 28.4559 12.8165 28.1903 12.8165 27.4567V20.5817H12.6403L9.15277 20.585C9.0896 20.595 9.02976 20.5917 8.96659 20.585H6.25035C2.79936 20.585 0.00332536 23.3769 0.00332536 26.8226V42H12.6437V33.2063L15.2602 33.266C24.4462 33.266 31.92 25.8035 31.92 16.6314C31.92 7.45922 24.4794 0.036516 15.32 0Z" fill="url(#paint1_radial_9_4912)" fill-opacity="0.6" style="mix-blend-mode:lighten"/>
<path d="M100.241 17.5438C100.241 18.7125 100.268 19.8812 100.237 21.0455C100.161 23.5556 99.0413 25.4813 96.757 26.5482C94.3709 27.6638 92.0556 27.3627 89.9793 25.7026C89.665 25.4547 89.5189 25.4592 89.2179 25.7026C86.0393 28.3057 81.4574 27.376 79.5848 23.7503C79.1421 22.8915 78.9341 21.9619 78.9341 20.9968C78.9341 18.5044 78.9474 16.0165 78.9385 13.5241C78.9385 13.1478 79.0625 13.0106 79.4476 13.0194C80.302 13.0415 81.1608 13.0504 82.0152 13.0194C82.4535 13.0017 82.5243 13.1876 82.5243 13.5684C82.5111 15.7863 82.5243 18.0042 82.5243 20.2221C82.5243 20.7135 82.5863 21.1916 82.7014 21.6653C82.9759 22.7986 84.0207 23.6043 85.1805 23.5866C86.3581 23.5688 87.3586 22.7587 87.6198 21.6166C87.7481 21.0632 87.7924 20.5054 87.7924 19.9387C87.7924 17.8182 87.8057 15.6977 87.788 13.5772C87.788 13.1345 87.9208 13.0017 88.3546 13.0194C89.1913 13.0504 90.028 13.0504 90.8647 13.0194C91.3207 13.0017 91.4181 13.1832 91.4181 13.5993C91.4225 16.0297 91.2986 18.4646 91.4624 20.895C91.5598 22.3514 92.33 23.3032 93.5784 23.529C95.0393 23.7946 96.3541 22.8295 96.5622 21.3598C96.7703 19.8679 96.7039 18.3672 96.7083 16.8709C96.7127 15.7597 96.7172 14.653 96.6906 13.5418C96.6817 13.1301 96.8234 13.0061 97.2263 13.0194C98.063 13.046 98.8996 13.0504 99.7363 13.0194C100.13 13.0061 100.241 13.1389 100.237 13.5152C100.223 14.8566 100.232 16.2024 100.232 17.5438H100.237H100.241Z" fill="white"/>
<path d="M158.442 23.7017C158.442 25.0652 158.504 26.4287 158.429 27.7878C158.212 31.8783 153.993 35.0259 150 34.1272C149.721 34.0652 149.606 33.9369 149.606 33.6535C149.615 32.6619 149.615 31.6658 149.606 30.6742C149.606 30.3156 149.725 30.3245 150.027 30.4351C152.528 31.3471 154.892 29.7224 154.918 27.0618C154.94 24.7465 154.945 22.4268 154.918 20.1115C154.896 18.4248 153.772 17.0569 152.187 16.685C150.606 16.3087 148.999 17.0746 148.229 18.5709C147.587 19.8149 147.809 21.3997 148.769 22.4799C149.712 23.5424 151.248 23.9364 152.603 23.4096C153.059 23.2325 153.174 23.2945 153.161 23.7814C153.134 24.6358 153.103 25.4991 153.17 26.3491C153.218 26.9644 152.886 27.0574 152.435 27.1238C149.199 27.624 145.914 25.716 144.767 22.6658C143.342 18.8808 145.299 14.7283 149.132 13.4091C152.869 12.1252 157.008 14.2767 158.181 18.1238C158.46 19.0313 158.469 19.9654 158.464 20.8995C158.455 21.8336 158.464 22.7676 158.464 23.7017H158.438H158.442Z" fill="white"/>
<path d="M48.7334 25.8311C48.7334 23.9629 48.7201 22.0947 48.7334 20.2265C48.7688 16.8355 50.814 14.1837 54.0634 13.2806C57.7688 12.2492 61.8195 14.6663 62.7048 18.4425C63.8558 23.3431 59.7919 27.8055 54.8072 27.1326C54.2803 27.0618 53.966 26.9245 54.0236 26.2738C54.0944 25.4415 54.0546 24.6004 54.0369 23.7637C54.028 23.3254 54.1254 23.228 54.5681 23.3962C56.3832 24.078 58.331 23.2324 59.0747 21.4838C59.814 19.7484 59.0747 17.805 57.3438 16.9506C55.1967 15.8881 52.5494 17.3446 52.3502 19.7263C52.2174 21.2802 52.3104 22.8384 52.3015 24.3923C52.2882 26.8847 52.2838 29.3726 52.3104 31.865C52.3148 32.3918 52.151 32.5423 51.6419 32.5158C50.8849 32.4759 50.1234 32.4715 49.3664 32.5158C48.8308 32.5468 48.7157 32.3431 48.7201 31.8473C48.7467 29.8419 48.7289 27.8365 48.7334 25.8355V25.8311Z" fill="white"/>
<path d="M137.91 17.0303C136.684 16.4858 135.55 16.4326 134.448 17.0303C132.969 17.8316 132.261 19.6068 132.784 21.1695C133.332 22.8163 134.926 23.8478 136.573 23.6176C138.295 23.3741 139.645 21.9796 139.659 20.262C139.698 16.3308 139.685 12.3997 139.663 8.47297C139.663 7.91075 139.752 7.67612 140.38 7.72482C141.173 7.78679 141.974 7.75138 142.775 7.73367C143.094 7.72482 143.218 7.81336 143.218 8.15423C143.2 12.3554 143.249 16.561 143.169 20.7622C143.116 23.6264 140.659 26.3623 137.786 26.9821C133.819 27.8365 130.234 25.6186 129.224 21.6874C128.246 17.867 131.084 13.6791 134.988 13.139C135.829 13.0239 136.653 13.0416 137.485 13.1788C137.737 13.2231 137.919 13.2984 137.914 13.6171C137.901 14.7238 137.91 15.8306 137.91 17.0258V17.0303Z" fill="white"/>
<path d="M115.514 23.0686C115.514 24.2772 115.501 25.4813 115.523 26.6899C115.532 27.0795 115.399 27.1901 115.023 27.1769C114.168 27.1547 113.309 27.1503 112.455 27.1769C112.057 27.1901 111.972 27.0441 111.972 26.6722C111.986 24.4941 111.999 22.3116 111.972 20.1336C111.941 17.9865 110.233 16.4592 108.103 16.6274C106.518 16.7514 105.111 18.075 104.96 19.5846C104.774 21.413 105.735 22.9668 107.346 23.4671C108.139 23.715 108.927 23.7283 109.688 23.4007C110.095 23.2236 110.233 23.2723 110.219 23.7415C110.193 24.6535 110.193 25.5699 110.219 26.4863C110.233 26.8537 110.113 27.0086 109.755 27.0618C107.09 27.469 104.819 26.7297 103.034 24.6845C101.131 22.502 100.821 19.2836 102.22 16.7248C103.614 14.166 106.496 12.7184 109.369 13.1257C112.884 13.626 115.399 16.4238 115.501 19.9742C115.532 21.0057 115.501 22.0372 115.501 23.0686C115.501 23.0686 115.505 23.0686 115.51 23.0686H115.514Z" fill="white"/>
<path d="M70.7309 27.1635C66.8175 27.1635 63.6655 24.0293 63.6566 20.1291C63.6478 16.2467 66.8839 13.0106 70.7619 13.0327C74.6798 13.0548 77.845 16.2511 77.8273 20.1601C77.8096 24.0602 74.662 27.168 70.7353 27.1635H70.7309ZM67.2336 20.0583C67.1938 21.9929 68.7565 23.6131 70.6911 23.6441C72.6212 23.6707 74.2592 22.0903 74.2858 20.1778C74.3123 18.2388 72.7673 16.654 70.8062 16.6097C68.8627 16.5654 67.2735 18.0971 67.2336 20.0627V20.0583Z" fill="white"/>
<path d="M173.706 20.1424C173.697 24.0692 170.545 27.1503 166.588 27.1725C162.913 27.1902 159.54 24.1356 159.549 20.1336C159.558 16.2379 162.758 13.0195 166.636 13.0328C170.55 13.046 173.711 16.229 173.706 20.1424ZM166.707 16.6053C164.759 16.5566 163.17 18.0839 163.13 20.0451C163.09 21.9708 164.596 23.5733 166.512 23.6397C168.434 23.7061 170.116 22.1434 170.174 20.2398C170.231 18.2743 168.686 16.654 166.707 16.6009V16.6053Z" fill="white"/>
<path d="M117.236 20.1026C117.236 17.9245 117.245 15.7421 117.227 13.564C117.227 13.1744 117.316 13.0062 117.741 13.0239C119.06 13.0859 120.388 12.9354 121.707 13.1257C125.205 13.6304 127.737 16.3751 127.856 19.9078C127.932 22.1833 127.87 24.4632 127.887 26.7386C127.887 27.0751 127.772 27.1769 127.449 27.1725C126.555 27.1592 125.656 27.1503 124.762 27.1725C124.359 27.1857 124.275 27.0219 124.279 26.6545C124.293 24.534 124.297 22.409 124.279 20.2885C124.262 18.4691 123.323 17.1985 121.681 16.7071C120.884 16.4681 120.76 16.5566 120.76 17.3712C120.76 20.4479 120.751 23.5246 120.773 26.5969C120.773 27.0706 120.631 27.1902 120.18 27.1725C119.383 27.137 118.582 27.1282 117.785 27.1725C117.294 27.199 117.214 27.0131 117.218 26.5748C117.24 24.4145 117.227 22.2541 117.227 20.0938L117.236 20.1026Z" fill="white"/>
<defs>
<radialGradient id="paint0_radial_9_4912" cx="0" cy="0" r="1" gradientUnits="userSpaceOnUse" gradientTransform="translate(-0.139629 1.65982) rotate(67.5436) scale(45.2594 34.382)">
<stop stop-color="#F4FFAF"/>
<stop offset="0.401042" stop-color="#DBFF00"/>
<stop offset="1" stop-color="#A6C100" stop-opacity="0"/>
</radialGradient>
<radialGradient id="paint1_radial_9_4912" cx="0" cy="0" r="1" gradientUnits="userSpaceOnUse" gradientTransform="translate(34.7692 10.9548) rotate(-14.7042) scale(53.6207 40.6367)">
<stop stop-color="#ADFF00"/>
<stop offset="1" stop-color="#F3F3F3" stop-opacity="0"/>
</radialGradient>
</defs>
</svg>
