<svg width="40" height="50" viewBox="0 0 40 50" fill="none" xmlns="http://www.w3.org/2000/svg">
<path d="M5.81778 36.1043C6.26936 36.1043 6.63549 35.7382 6.63549 35.2866V26.7421C6.63549 24.4126 8.53085 22.5174 10.8604 22.5174C13.19 22.5174 15.0852 24.4126 15.0852 26.7421V37.7729C15.0852 41.0042 17.7142 43.6331 20.9455 43.6331C24.1769 43.6331 26.8057 41.0042 26.8057 37.7729V25.511C30.2317 25.1046 32.899 22.1866 32.899 18.653V13.7978H34.1823C34.6339 13.7978 35 13.4317 35 12.9801C35 12.5285 34.6339 12.1624 34.1823 12.1624H32.0813H30.4435V7.51742C30.4435 7.06584 30.0773 6.69971 29.6258 6.69971C29.1742 6.69971 28.808 7.06584 28.808 7.51742V12.1624H23.1683V7.51742C23.1683 7.06584 22.8021 6.69971 22.3506 6.69971C21.899 6.69971 21.5329 7.06584 21.5329 7.51742V12.1624H19.895H17.7938C17.3423 12.1624 16.9761 12.5285 16.9761 12.9801C16.9761 13.4317 17.3423 13.7978 17.7938 13.7978H19.0773V18.653C19.0773 22.1866 21.7443 25.1046 25.1702 25.511V37.7729C25.1702 40.1025 23.2749 41.9976 20.9455 41.9976C18.6159 41.9976 16.7206 40.1025 16.7206 37.7729V26.7421C16.7206 23.5108 14.0918 20.882 10.8604 20.882C7.62909 20.882 5.00006 23.5108 5.00006 26.7421V35.2866C5.00006 35.7382 5.3662 36.1043 5.81778 36.1043ZM20.7127 18.653V13.7978H31.2636V18.653C31.2636 21.5619 28.8971 23.9284 25.988 23.9284C23.0792 23.9284 20.7127 21.5619 20.7127 18.653Z" fill="white"/>
<path d="M28.7297 18.2097C28.6032 17.9041 28.3049 17.7049 27.9743 17.7049H25.9759L27.5315 16.1493C27.8509 15.8301 27.8509 15.3122 27.5315 14.993C27.2121 14.6736 26.6946 14.6736 26.3752 14.993L23.4238 17.9444C23.1898 18.1782 23.1199 18.53 23.2465 18.8354C23.3731 19.1411 23.6713 19.3403 24.0019 19.3403H26.0003L24.4192 20.9214C24.0997 21.2406 24.0997 21.7585 24.4192 22.0777C24.5789 22.2374 24.7881 22.3173 24.9973 22.3173C25.2065 22.3173 25.4158 22.2374 25.5755 22.0777L28.5525 19.1007C28.7864 18.867 28.8563 18.5152 28.7297 18.2097Z" fill="white"/>
</svg>
