<svg width="40" height="50" viewBox="0 0 40 50" fill="none" xmlns="http://www.w3.org/2000/svg">
<path d="M21.1468 43.695C20.6335 43.695 20.1518 43.405 19.9201 42.9583L18.0818 39.4967C17.3251 39.4117 16.5801 39.275 15.8535 39.085L12.8918 41.6667C12.4401 42.0534 11.7301 42.0967 11.2385 41.7717L6.93681 38.9684C6.43514 38.6467 6.19514 37.9933 6.36848 37.42L7.53681 33.6617C7.09181 33.1 6.67514 32.4767 6.27181 31.7733L2.34681 31.5067C1.74514 31.4767 1.20514 31.0183 1.08014 30.415L0.0251431 25.41C-0.0915236 24.82 0.20681 24.1967 0.733476 23.92L4.22848 22.0751C4.31348 21.3167 4.44681 20.5767 4.63014 19.8651L2.05848 16.885C1.65514 16.4434 1.59848 15.7383 1.93514 15.2233L4.72848 10.9384C5.05514 10.4367 5.75014 10.1983 6.31514 10.3883L10.0635 11.5334C10.6401 11.0784 11.2651 10.6567 11.9235 10.275L12.2018 6.33002C12.2401 5.74002 12.6885 5.215 13.2701 5.085L18.2851 4.02838C18.3285 4.01838 18.5118 4 18.5585 4C19.0818 4 19.5685 4.29832 19.7985 4.75999L21.6201 8.23004C22.4201 8.31504 23.1585 8.44508 23.8585 8.62341L26.8201 6.04173C27.2701 5.65506 27.9835 5.61341 28.4751 5.93675L32.7751 8.74172C33.2768 9.06172 33.5185 9.71508 33.3451 10.2901L32.1768 14.0467C32.6418 14.635 33.0701 15.2617 33.4535 15.9183L37.3701 16.2034C37.9601 16.2417 38.4851 16.6933 38.6135 17.2767L39.6701 22.2867C39.7985 22.8601 39.5151 23.4934 38.9935 23.7817L35.4868 25.6334C35.4051 26.3501 35.2668 27.0734 35.0685 27.8301L37.6585 30.8233C38.0585 31.3867 38.0818 32.0034 37.7568 32.4834L34.9701 36.7567C34.7251 37.14 34.2768 37.3834 33.8068 37.3834C33.6751 37.3834 33.5468 37.3634 33.4235 37.3267L29.6385 36.165C29.0285 36.65 28.4218 37.0684 27.7968 37.4351L27.5185 41.3801C27.4635 41.9867 26.9968 42.5017 26.4135 42.6167L21.4185 43.67C21.3651 43.6783 21.1918 43.695 21.1468 43.695ZM15.6835 37.6784C15.7451 37.6784 15.8068 37.6884 15.8668 37.705C16.7351 37.955 17.6401 38.1217 18.5601 38.2034C18.7851 38.2234 18.9851 38.3551 19.0901 38.5551L21.0968 42.3383L21.1435 43.03L21.1418 42.3633L26.1368 41.3101L26.4801 36.9834C26.4968 36.7584 26.6268 36.555 26.8235 36.4467C27.5835 36.0284 28.3151 35.525 29.0585 34.91C29.2301 34.7667 29.4651 34.7183 29.6785 34.785L33.8018 36.0517L36.6385 31.7451L33.8201 28.435C33.6735 28.265 33.6218 28.0334 33.6835 27.8167C33.9485 26.8834 34.1135 26.0117 34.1885 25.1534C34.2085 24.9267 34.3418 24.7267 34.5418 24.6217L38.3551 22.6084L37.3051 17.5567L32.9968 17.225C32.7718 17.2067 32.5718 17.0783 32.4635 16.8817C32.0151 16.075 31.4968 15.3134 30.9185 14.6184C30.7735 14.4451 30.7285 14.2101 30.7951 13.9934L32.0685 9.90169L27.7401 7.05501L24.4618 9.86833C24.2901 10.0167 24.0551 10.065 23.8401 10.0067C23.0185 9.77001 22.1335 9.61507 21.1351 9.52673C20.9085 9.50673 20.7085 9.37338 20.6035 9.17171L18.6085 5.37004L13.5518 6.39003L13.2285 10.73C13.2118 10.9567 13.0818 11.1584 12.8835 11.2667C12.0701 11.7167 11.3118 12.2284 10.6301 12.7901C10.4568 12.9351 10.2268 12.98 10.0101 12.915L5.90514 11.6617L3.05014 15.9567L5.86848 19.265C6.01514 19.4367 6.06681 19.6667 6.00514 19.8834C5.76348 20.7317 5.60014 21.6317 5.51848 22.5583C5.49848 22.785 5.36514 22.9833 5.16514 23.0883L1.35181 25.1034L2.38348 30.1417L6.72014 30.4667C6.94681 30.4833 7.15014 30.6117 7.25848 30.81C7.74514 31.695 8.24681 32.4417 8.78848 33.0901C8.93348 33.2634 8.98014 33.5 8.91348 33.7167L7.64014 37.81L11.9668 40.6551L15.2451 37.8434C15.3685 37.7367 15.5251 37.6784 15.6835 37.6784Z" fill="white"/>
<circle cx="20" cy="24" r="10.25" stroke="white" stroke-width="1.5"/>
<rect x="20" y="21" width="1" height="7" rx="0.5" fill="white"/>
<rect x="24" y="24" width="1" height="7" rx="0.5" transform="rotate(90 24 24)" fill="white"/>
</svg>
