<svg width="50" height="50" viewBox="0 0 50 50" fill="none" xmlns="http://www.w3.org/2000/svg">
<path d="M29.04 32.2104C29.04 33.303 28.8248 34.3849 28.4067 35.3943C27.9885 36.4037 27.3757 37.3209 26.6031 38.0935C25.8305 38.8661 24.9133 39.479 23.9039 39.8971C22.8945 40.3152 21.8126 40.5304 20.72 40.5304H17.45C16.3581 40.5325 15.2766 40.3189 14.2676 39.9019C13.2585 39.4849 12.3418 38.8727 11.57 38.1004C10.4071 36.9362 9.61546 35.4534 9.29527 33.8394C8.97508 32.2253 9.14068 30.5526 9.77112 29.0327C10.4016 27.5128 11.4685 26.2139 12.8371 25.3004C14.2057 24.3869 15.8145 23.8997 17.46 23.9004H20.73C22.9358 23.903 25.0505 24.7805 26.6102 26.3402C28.1699 27.8999 29.0473 30.0146 29.05 32.2204L29.04 32.2104Z" stroke="white" stroke-width="1.5" stroke-miterlimit="10"/>
<path d="M19.0898 19.4803C22.0334 19.4803 24.4198 17.094 24.4198 14.1503C24.4198 11.2066 22.0334 8.82031 19.0898 8.82031C16.1461 8.82031 13.7598 11.2066 13.7598 14.1503C13.7598 17.094 16.1461 19.4803 19.0898 19.4803Z" stroke="white" stroke-width="1.5" stroke-miterlimit="10"/>
<path d="M42.4397 17.3704H41.4997C41.4054 17.3708 41.3136 17.3395 41.2392 17.2814C41.1649 17.2234 41.1122 17.142 41.0897 17.0504C40.9661 16.602 40.7846 16.1717 40.5497 15.7704C40.504 15.6877 40.4861 15.5924 40.4987 15.4988C40.5113 15.4051 40.5538 15.318 40.6197 15.2504L41.2897 14.5804C41.3293 14.5421 41.3609 14.4963 41.3824 14.4456C41.4039 14.3949 41.415 14.3404 41.415 14.2854C41.415 14.2303 41.4039 14.1758 41.3824 14.1251C41.3609 14.0744 41.3293 14.0286 41.2897 13.9904L40.2897 12.9904C40.2506 12.9504 40.2039 12.9187 40.1524 12.8971C40.1009 12.8754 40.0456 12.8643 39.9897 12.8643C39.9339 12.8643 39.8785 12.8754 39.827 12.8971C39.7755 12.9187 39.7288 12.9504 39.6897 12.9904L39.0197 13.6604C38.9533 13.7254 38.8673 13.7665 38.775 13.7774C38.6827 13.7882 38.5894 13.7682 38.5097 13.7204C38.1053 13.4869 37.6715 13.3086 37.2197 13.1904C37.1308 13.1645 37.0526 13.1106 36.9967 13.0368C36.9409 12.9629 36.9104 12.873 36.9097 12.7804V11.7804C36.9097 11.669 36.8655 11.5621 36.7867 11.4834C36.7079 11.4046 36.6011 11.3604 36.4897 11.3604H35.0997C34.9883 11.3604 34.8815 11.4046 34.8027 11.4834C34.724 11.5621 34.6797 11.669 34.6797 11.7804V12.7804C34.6785 12.8743 34.6465 12.9652 34.5887 13.0392C34.531 13.1133 34.4505 13.1663 34.3597 13.1904C33.9118 13.3105 33.4815 13.4886 33.0797 13.7204C32.9981 13.7674 32.9034 13.7869 32.8098 13.7761C32.7162 13.7653 32.6286 13.7247 32.5597 13.6604L31.8897 12.9904C31.8515 12.9507 31.8057 12.9192 31.755 12.8977C31.7043 12.8762 31.6498 12.8651 31.5947 12.8651C31.5397 12.8651 31.4852 12.8762 31.4345 12.8977C31.3838 12.9192 31.338 12.9507 31.2997 12.9904L30.2997 13.9904C30.2601 14.0286 30.2286 14.0744 30.2071 14.1251C30.1856 14.1758 30.1745 14.2303 30.1745 14.2854C30.1745 14.3404 30.1856 14.3949 30.2071 14.4456C30.2286 14.4963 30.2601 14.5421 30.2997 14.5804L30.9697 15.2504C31.0341 15.3192 31.0747 15.4068 31.0855 15.5005C31.0963 15.5941 31.0767 15.6887 31.0297 15.7704C30.798 16.1721 30.6198 16.6024 30.4997 17.0504C30.4757 17.1411 30.4226 17.2216 30.3486 17.2794C30.2746 17.3371 30.1836 17.3691 30.0897 17.3704H29.1397C29.0283 17.3704 28.9215 17.4146 28.8427 17.4934C28.764 17.5721 28.7197 17.679 28.7197 17.7904V19.2104C28.7197 19.3217 28.764 19.4286 28.8427 19.5073C28.9215 19.5861 29.0283 19.6304 29.1397 19.6304H30.0897C30.1823 19.631 30.2723 19.6615 30.3461 19.7173C30.42 19.7732 30.4739 19.8514 30.4997 19.9404C30.618 20.3921 30.7963 20.8259 31.0297 21.2304C31.0776 21.31 31.0976 21.4033 31.0868 21.4956C31.0759 21.5879 31.0347 21.674 30.9697 21.7404L30.2997 22.4104C30.2215 22.4906 30.1778 22.5983 30.1778 22.7104C30.1778 22.8224 30.2215 22.9301 30.2997 23.0104L31.2997 24.0104C31.338 24.05 31.3838 24.0815 31.4345 24.103C31.4852 24.1245 31.5397 24.1356 31.5947 24.1356C31.6498 24.1356 31.7043 24.1245 31.755 24.103C31.8057 24.0815 31.8515 24.05 31.8897 24.0104L32.5597 23.3404C32.6274 23.2744 32.7145 23.232 32.8082 23.2194C32.9018 23.2068 32.997 23.2246 33.0797 23.2704C33.4832 23.5011 33.9129 23.6824 34.3597 23.8104C34.4514 23.8328 34.5328 23.8855 34.5908 23.9599C34.6489 24.0342 34.6802 24.126 34.6797 24.2204V25.1604C34.6784 25.2163 34.6883 25.272 34.7088 25.3242C34.7293 25.3763 34.76 25.4238 34.7992 25.4638C34.8383 25.5039 34.885 25.5357 34.9367 25.5575C34.9883 25.5792 35.0437 25.5904 35.0997 25.5904H36.4897C36.5457 25.5904 36.6012 25.5792 36.6528 25.5575C36.7044 25.5357 36.7512 25.5039 36.7903 25.4638C36.8294 25.4238 36.8602 25.3763 36.8807 25.3242C36.9012 25.272 36.9111 25.2163 36.9097 25.1604V24.2104C36.9087 24.1173 36.9386 24.0266 36.9947 23.9524C37.0508 23.8782 37.1299 23.8247 37.2197 23.8004C37.6704 23.6743 38.1037 23.4929 38.5097 23.2604C38.5905 23.2138 38.6844 23.1954 38.7767 23.2081C38.869 23.2207 38.9545 23.2638 39.0197 23.3304L39.6897 24.0004C39.7288 24.0403 39.7755 24.072 39.827 24.0936C39.8785 24.1153 39.9339 24.1264 39.9897 24.1264C40.0456 24.1264 40.1009 24.1153 40.1524 24.0936C40.2039 24.072 40.2506 24.0403 40.2897 24.0004L41.2897 23.0004C41.3296 22.9612 41.3613 22.9146 41.383 22.8631C41.4046 22.8115 41.4158 22.7562 41.4158 22.7004C41.4158 22.6445 41.4046 22.5892 41.383 22.5376C41.3613 22.4861 41.3296 22.4395 41.2897 22.4004L40.6197 21.7304C40.5531 21.6652 40.5101 21.5797 40.4974 21.4873C40.4848 21.395 40.5032 21.3011 40.5497 21.2204C40.7864 20.8164 40.9681 20.3825 41.0897 19.9304C41.1141 19.8406 41.1676 19.7614 41.2418 19.7053C41.316 19.6492 41.4067 19.6193 41.4997 19.6204H42.4397C42.4957 19.6217 42.5514 19.6118 42.6035 19.5913C42.6556 19.5708 42.7031 19.5401 42.7432 19.5009C42.7833 19.4618 42.8151 19.415 42.8368 19.3634C42.8586 19.3118 42.8697 19.2564 42.8697 19.2004V17.8104C42.8725 17.7527 42.8633 17.6951 42.8428 17.6411C42.8223 17.5871 42.7909 17.538 42.7506 17.4967C42.7102 17.4554 42.6618 17.4229 42.6083 17.4011C42.5548 17.3794 42.4974 17.3689 42.4397 17.3704ZM35.8097 20.5604C35.3983 20.5604 34.9962 20.4384 34.6541 20.2098C34.3121 19.9813 34.0455 19.6564 33.8881 19.2763C33.7306 18.8963 33.6894 18.478 33.7697 18.0746C33.85 17.6711 34.0481 17.3005 34.3389 17.0096C34.6298 16.7187 35.0005 16.5206 35.4039 16.4403C35.8074 16.3601 36.2256 16.4013 36.6057 16.5587C36.9858 16.7161 37.3106 16.9827 37.5392 17.3248C37.7677 17.6668 37.8897 18.069 37.8897 18.4804C37.8897 19.032 37.6706 19.5611 37.2805 19.9511C36.8904 20.3412 36.3614 20.5604 35.8097 20.5604Z" stroke="white" stroke-miterlimit="10"/>
</svg>
