<svg width="58" height="50" viewBox="0 0 58 50" fill="none" xmlns="http://www.w3.org/2000/svg">
<path d="M55.1078 32.3504V31.9112C55.1078 31.4947 54.8274 29.3677 49.2629 28.3692L40.8648 27.2195C39.8363 26.3701 34.683 22.3522 29.2234 22.3522H21.1599C18.0185 22.3522 14.7074 24.525 13.2289 26.1533L7.07165 26.1779C6.86936 26.1786 6.67525 26.2601 6.5332 26.404C6.3904 26.5479 6.31157 26.7427 6.31306 26.945C6.31306 26.945 6.32272 28.245 6.33388 29.5056C6.33388 29.509 6.33165 29.5116 6.33165 29.5149C6.33165 29.5187 6.33388 29.5216 6.33388 29.525C6.34206 30.529 6.35173 31.5037 6.35768 31.771C6.34206 31.7937 6.32272 31.8116 6.30562 31.8309C6.16357 31.9871 5.8988 32.2779 5.8988 32.8156C5.8988 32.8799 5.8936 32.9658 5.88913 33.0662C5.84749 33.8668 5.76196 35.5335 6.96084 36.0225L10.7516 37.8234C11.1971 40.1721 13.2609 41.9544 15.7367 41.9544C18.1687 41.9544 20.205 40.2346 20.6974 37.9472H38.4462C38.9386 40.2346 40.9749 41.9544 43.4069 41.9544C45.8388 41.9544 47.8751 40.2346 48.3675 37.9472H53.5943C55.2164 37.9472 55.7891 36.5557 55.8657 35.8198C55.8679 35.7938 55.8694 35.7674 55.8694 35.7414V33.4106C55.8694 33.2045 55.7861 33.0071 55.6373 32.8635L55.1078 32.3504ZM19.2902 36.877C19.2902 38.8367 17.6964 40.4313 15.7367 40.4313C13.777 40.4313 12.1832 38.8367 12.1832 36.877C12.1832 34.9177 13.777 33.3235 15.7367 33.3235C17.6964 33.3235 19.2902 34.9177 19.2902 36.877ZM46.9604 36.877C46.9604 38.8367 45.3666 40.4313 43.4069 40.4313C41.4472 40.4313 39.8534 38.8367 39.8534 36.877C39.8534 34.9177 41.4472 33.3235 43.4069 33.3235C45.3666 33.3235 46.9604 34.9177 46.9604 36.877ZM54.3462 35.6945C54.3232 35.8507 54.1975 36.4241 53.5943 36.4241H48.4604C48.2306 33.8363 46.053 31.8004 43.4069 31.8004C40.7607 31.8004 38.5831 33.8363 38.3533 36.4241H20.7903C20.5605 33.8363 18.3829 31.8004 15.7367 31.8004C13.194 31.8004 11.0885 33.6813 10.7226 36.1236L7.57589 34.6295C7.53648 34.6135 7.34236 34.4659 7.41004 33.1443C7.41525 33.0372 7.41971 32.9428 7.4212 32.8643C7.42417 32.8632 7.42789 32.8602 7.43235 32.8554C7.58407 32.688 7.86743 32.3768 7.86743 31.7684C7.86743 31.5702 7.86446 30.9793 7.85925 30.2765H9.45453C9.87548 30.2765 10.2161 29.9355 10.2161 29.5149C10.2161 29.0944 9.87548 28.7534 9.45453 28.7534H7.84958C7.84661 28.3648 7.84363 27.9981 7.8414 27.698L13.5822 27.675C13.8112 27.6742 14.0277 27.5701 14.1719 27.392C15.3322 25.9548 18.4885 23.8753 21.1599 23.8753H29.2234C34.6235 23.8753 39.9902 28.473 40.0438 28.5195C40.1553 28.6162 40.2929 28.6786 40.4394 28.6987L49.0249 29.8734C52.5673 30.5093 53.52 31.6052 53.5847 31.9112V32.6728C53.5847 32.8788 53.668 33.0763 53.8167 33.2198L54.3462 33.733V35.6945ZM27.7166 29.097L30.1277 29.0527L26.6471 33.3377L24.8652 33.6456L27.2168 30.7506L24.9031 30.7923L28.2186 26.5297L29.9455 26.2322L27.7166 29.097Z" fill="white"/>
<path d="M47.1349 21.0099H46.3378C46.2578 21.0103 46.18 20.9823 46.1169 20.9303C46.0538 20.8783 46.0092 20.8053 45.9901 20.7232C45.8853 20.3215 45.7313 19.936 45.5322 19.5763C45.4934 19.5022 45.4782 19.4169 45.4889 19.333C45.4996 19.2491 45.5356 19.171 45.5915 19.1104L46.1597 18.5101C46.1933 18.4758 46.22 18.4348 46.2383 18.3894C46.2565 18.344 46.2659 18.2951 46.2659 18.2458C46.2659 18.1964 46.2565 18.1476 46.2383 18.1022C46.22 18.0568 46.1933 18.0157 46.1597 17.9815L45.3117 17.0855C45.2785 17.0497 45.2389 17.0213 45.1953 17.0019C45.1516 16.9825 45.1047 16.9725 45.0573 16.9725C45.0099 16.9725 44.963 16.9825 44.9193 17.0019C44.8756 17.0213 44.836 17.0497 44.8029 17.0855L44.2347 17.6858C44.1784 17.744 44.1054 17.7809 44.0271 17.7906C43.9489 17.8004 43.8698 17.7824 43.8022 17.7395C43.4592 17.5304 43.0913 17.3707 42.7082 17.2647C42.6328 17.2415 42.5665 17.1933 42.5191 17.1271C42.4718 17.0609 42.4459 16.9803 42.4453 16.8973V16.0013C42.4453 15.9015 42.4078 15.8058 42.341 15.7352C42.2742 15.6646 42.1836 15.625 42.0892 15.625H40.9104C40.816 15.625 40.7254 15.6646 40.6586 15.7352C40.5918 15.8058 40.5542 15.9015 40.5542 16.0013V16.8973C40.5532 16.9815 40.5261 17.0629 40.4771 17.1293C40.4281 17.1956 40.3599 17.2432 40.2829 17.2647C39.903 17.3723 39.5381 17.5319 39.1974 17.7395C39.1281 17.7817 39.0479 17.7992 38.9685 17.7895C38.8891 17.7798 38.8148 17.7435 38.7564 17.6858L38.1882 17.0855C38.1558 17.05 38.117 17.0217 38.074 17.0025C38.031 16.9832 37.9848 16.9732 37.9381 16.9732C37.8914 16.9732 37.8452 16.9832 37.8022 17.0025C37.7592 17.0217 37.7203 17.05 37.6879 17.0855L36.8399 17.9815C36.8063 18.0157 36.7796 18.0568 36.7613 18.1022C36.7431 18.1476 36.7337 18.1964 36.7337 18.2458C36.7337 18.2951 36.7431 18.344 36.7613 18.3894C36.7796 18.4348 36.8063 18.4758 36.8399 18.5101L37.4081 19.1104C37.4626 19.1721 37.4971 19.2506 37.5062 19.3345C37.5154 19.4184 37.4988 19.5032 37.4589 19.5763C37.2625 19.9363 37.1114 20.3219 37.0095 20.7232C36.9891 20.8046 36.9441 20.8766 36.8813 20.9284C36.8185 20.9802 36.7414 21.0088 36.6618 21.0099H35.8562C35.7617 21.0099 35.6711 21.0496 35.6043 21.1201C35.5375 21.1907 35.5 21.2864 35.5 21.3862V22.6586C35.5 22.7584 35.5375 22.8541 35.6043 22.9247C35.6711 22.9952 35.7617 23.0349 35.8562 23.0349H36.6618C36.7403 23.0354 36.8166 23.0628 36.8792 23.1128C36.9419 23.1629 36.9876 23.2329 37.0095 23.3126C37.1098 23.7174 37.261 24.1061 37.4589 24.4685C37.4995 24.5398 37.5165 24.6234 37.5073 24.7061C37.4981 24.7888 37.4632 24.8659 37.4081 24.9254L36.8399 25.5257C36.7736 25.5977 36.7365 25.6941 36.7365 25.7945C36.7365 25.8949 36.7736 25.9914 36.8399 26.0633L37.6879 26.9593C37.7203 26.9948 37.7592 27.0231 37.8022 27.0423C37.8452 27.0616 37.8914 27.0716 37.9381 27.0716C37.9848 27.0716 38.031 27.0616 38.074 27.0423C38.117 27.0231 38.1558 26.9948 38.1882 26.9593L38.7564 26.359C38.8138 26.2999 38.8877 26.2619 38.9671 26.2506C39.0465 26.2393 39.1273 26.2553 39.1974 26.2963C39.5395 26.503 39.904 26.6655 40.2829 26.7801C40.3606 26.8003 40.4296 26.8474 40.4789 26.9141C40.5281 26.9807 40.5546 27.0629 40.5542 27.1475V27.9897C40.5531 28.0399 40.5615 28.0898 40.5789 28.1365C40.5963 28.1832 40.6223 28.2257 40.6555 28.2616C40.6887 28.2975 40.7284 28.3261 40.7721 28.3455C40.8159 28.365 40.8629 28.375 40.9104 28.375H42.0892C42.1367 28.375 42.1837 28.365 42.2275 28.3455C42.2712 28.3261 42.3109 28.2975 42.3441 28.2616C42.3773 28.2257 42.4033 28.1832 42.4207 28.1365C42.4381 28.0898 42.4465 28.0399 42.4453 27.9897V27.1385C42.4445 27.0552 42.4698 26.9739 42.5174 26.9074C42.565 26.8409 42.6321 26.793 42.7082 26.7712C43.0904 26.6582 43.4578 26.4957 43.8022 26.2873C43.8706 26.2456 43.9503 26.2291 44.0286 26.2405C44.1069 26.2518 44.1794 26.2904 44.2347 26.3501L44.8029 26.9504C44.836 26.9861 44.8756 27.0145 44.9193 27.0339C44.963 27.0533 45.0099 27.0633 45.0573 27.0633C45.1047 27.0633 45.1516 27.0533 45.1953 27.0339C45.2389 27.0145 45.2785 26.9861 45.3117 26.9504L46.1597 26.0544C46.1936 26.0193 46.2204 25.9775 46.2388 25.9314C46.2572 25.8852 46.2666 25.8356 46.2666 25.7856C46.2666 25.7355 46.2572 25.6859 46.2388 25.6398C46.2204 25.5936 46.1936 25.5518 46.1597 25.5168L45.5915 24.9165C45.5351 24.858 45.4986 24.7814 45.4878 24.6987C45.4771 24.616 45.4927 24.5318 45.5322 24.4595C45.7329 24.0975 45.8869 23.7088 45.9901 23.3037C46.0108 23.2232 46.0561 23.1523 46.119 23.102C46.182 23.0518 46.2589 23.025 46.3378 23.0259H47.1349C47.1824 23.0271 47.2296 23.0183 47.2738 22.9999C47.318 22.9815 47.3583 22.954 47.3923 22.9189C47.4263 22.8838 47.4533 22.842 47.4717 22.7957C47.4901 22.7495 47.4996 22.6998 47.4996 22.6496V21.4042C47.5019 21.3525 47.4942 21.3009 47.4768 21.2525C47.4594 21.2042 47.4328 21.1601 47.3986 21.1231C47.3643 21.0861 47.3233 21.057 47.2779 21.0375C47.2326 21.018 47.1839 21.0086 47.1349 21.0099ZM41.5125 23.8681C41.1637 23.8681 40.8226 23.7588 40.5325 23.5541C40.2425 23.3493 40.0164 23.0582 39.8829 22.7177C39.7494 22.3771 39.7145 22.0024 39.7825 21.6409C39.8506 21.2794 40.0186 20.9473 40.2653 20.6867C40.5119 20.426 40.8262 20.2485 41.1684 20.1766C41.5106 20.1047 41.8652 20.1416 42.1875 20.2827C42.5098 20.4237 42.7853 20.6626 42.9791 20.9691C43.173 21.2756 43.2764 21.6359 43.2764 22.0045C43.2764 22.4988 43.0906 22.9728 42.7598 23.3223C42.429 23.6718 41.9803 23.8681 41.5125 23.8681Z" stroke="white" stroke-miterlimit="10"/>
</svg>
