<svg width="60" height="42" viewBox="0 0 60 42" fill="none" xmlns="http://www.w3.org/2000/svg">
<path d="M56.9984 24.2999L56.9548 21.0457C56.9378 19.784 56.1716 18.7435 55.0477 18.456C50.836 17.3781 46.9686 16.7953 43.2245 16.6751C42.8946 16.6647 42.7024 16.6384 42.5681 16.5271C40.0393 14.4351 36.6776 12.6369 33.575 11.716L33.4714 11.6849C33.3023 11.6345 33.2628 11.6227 33.1401 11.6123C33.104 11.6096 33.0467 11.6047 32.9247 11.5881C25.7535 10.6203 19.2033 10.8477 13.4559 12.265C13.0552 12.3638 12.8139 12.5125 12.5344 12.6846L7.33102 15.8378C7.09655 15.9803 6.87639 16.1082 6.67259 16.2271C5.70607 16.7905 5.00742 17.1977 4.70955 17.9582C4.23652 19.166 4.00954 20.373 4.00613 21.5933C4.00545 21.6016 4.00068 21.6078 4 21.6161C4 21.6278 4.00477 21.6382 4.00477 21.65C4.00886 23.0721 4.32308 24.5114 4.96652 25.993C4.96652 25.9937 4.9672 25.9944 4.9672 25.9957C4.97265 26.0082 4.97606 26.0206 4.98152 26.0331C4.99174 26.0573 5.01082 26.0732 5.02446 26.0946C5.04491 26.1271 5.06263 26.1596 5.08921 26.1872C5.11307 26.2121 5.14101 26.2294 5.16896 26.2488C5.1969 26.2688 5.22281 26.2889 5.25484 26.3034C5.2896 26.3186 5.32573 26.3248 5.36322 26.3324C5.38775 26.3373 5.40888 26.3504 5.43479 26.3518L10.7479 26.6712C11.24 28.5316 12.912 29.9067 14.8989 29.9067C16.6684 29.9067 18.1911 28.8164 18.8509 27.2644L43.8352 27.2989C44.4814 28.8821 46.0191 30 47.811 30C49.603 30 51.1427 28.8807 51.7882 27.2955L55.1785 26.9194C57.0305 26.714 57.008 25.0223 56.9984 24.2999ZM55.9024 21.6209L55.9147 22.5556L54.1316 22.1505L53.8385 21.2331L55.9024 21.6209ZM5.26984 19.7778L6.52399 19.8594L7.07746 21.2566L5.07626 21.1404C5.10216 20.6848 5.171 20.2306 5.27052 19.7778H5.26984ZM14.8982 28.8316C13.1104 28.8316 11.6558 27.3563 11.6558 25.5429C11.6558 23.7295 13.1104 22.2542 14.8982 22.2542C16.6861 22.2542 18.14 23.7295 18.14 25.5429C18.14 27.3563 16.6854 28.8316 14.8982 28.8316ZM47.811 28.9243C46.0232 28.9243 44.5686 27.4489 44.5686 25.6356C44.5686 23.8222 46.0232 22.3468 47.811 22.3468C49.5989 22.3468 51.0534 23.8222 51.0534 25.6356C51.0534 27.4489 49.5989 28.9243 47.811 28.9243ZM55.0633 25.8499L52.0759 26.181C52.0983 26.002 52.1133 25.8208 52.1133 25.6356C52.1133 23.2297 50.1837 21.2718 47.811 21.2718C45.4384 21.2718 43.5087 23.229 43.5087 25.6356C43.5087 25.8353 43.5264 26.0303 43.5523 26.2225L19.1481 26.1893C19.1794 25.9778 19.2005 25.7634 19.2005 25.5429C19.2005 23.137 17.2709 21.1792 14.8982 21.1792C12.5256 21.1792 10.5959 23.1363 10.5959 25.5429C10.5959 25.5567 10.598 25.5706 10.598 25.5851L5.83284 25.2982C5.40616 24.2515 5.15805 23.2276 5.08785 22.2176L7.84904 22.3779C7.85926 22.3779 7.86949 22.3786 7.87903 22.3786C8.04875 22.3786 8.20961 22.2957 8.30913 22.1546C8.41478 22.0053 8.43795 21.8117 8.37047 21.641L7.38146 19.1438C7.30512 18.9516 7.12722 18.821 6.92342 18.8078L5.56838 18.72C5.61064 18.5984 5.64404 18.4774 5.69175 18.3557C5.85329 17.9437 6.38835 17.6319 7.1981 17.1597C7.40736 17.038 7.63229 16.9067 7.87221 16.7615L12.955 13.6822L13.0824 13.6041C13.3278 13.4527 13.4628 13.3697 13.7047 13.3103C19.3239 11.9248 25.7433 11.7043 32.7836 12.6549C32.9363 12.6756 33.0086 12.6812 33.0535 12.6853H33.0651C33.0869 12.6922 33.1169 12.7012 33.1701 12.7171L33.2757 12.7489C36.2489 13.6311 39.4716 15.3553 41.896 17.3609C42.2996 17.6948 42.7562 17.7363 43.189 17.7501C46.8561 17.8683 50.6499 18.4401 54.7866 19.4992C55.2733 19.6236 55.6441 20.0053 55.8049 20.5099L53.1548 20.0115C52.9715 19.9769 52.7834 20.0433 52.66 20.1857C52.5366 20.3281 52.4964 20.5258 52.5543 20.7063L53.2148 22.7741C53.2728 22.9552 53.42 23.0914 53.6033 23.1329L55.9283 23.6611L55.9372 24.3151C55.9535 25.5436 55.6802 25.7821 55.062 25.8506L55.0633 25.8499ZM39.612 17.179C36.1883 14.6861 32.2867 13.2971 28.0171 13.049C27.8324 13.0372 27.6552 13.1257 27.5502 13.2806C27.4453 13.4347 27.4275 13.6338 27.5025 13.8053L29.1834 17.6146C29.2672 17.804 29.4506 17.9278 29.655 17.9326L39.2903 18.1531C39.2943 18.1531 39.2984 18.1531 39.3025 18.1531C39.5302 18.1531 39.7326 18.0059 39.8049 17.786C39.8785 17.5627 39.8008 17.3159 39.612 17.179ZM30.0149 16.8652L28.8351 14.1911C31.9432 14.4952 34.8353 15.4493 37.4642 17.0359L30.0149 16.8652ZM26.2402 13.2163C26.1577 13.0075 25.956 12.872 25.7338 12.8789C25.3616 12.8893 24.9513 12.8927 24.5164 12.8969C20.9789 12.9307 15.6337 12.9819 12.8848 16.5285C12.7614 16.6882 12.7369 16.9046 12.8214 17.0885C12.9059 17.2724 13.0852 17.392 13.2855 17.3982L27.2681 17.8365C27.2735 17.8365 27.279 17.8365 27.2844 17.8365C27.4569 17.8365 27.6191 17.7508 27.7186 17.607C27.8208 17.4583 27.8426 17.2675 27.7759 17.0988L26.2402 13.2163ZM14.4995 16.3605C17.1182 14.0431 21.5166 14.0009 24.5266 13.9719C24.8279 13.9691 25.1176 13.9664 25.3929 13.9615L26.4897 16.7359L14.4988 16.3598L14.4995 16.3605ZM47.811 22.911C46.3299 22.911 45.1248 24.1333 45.1248 25.6356C45.1248 27.1378 46.3299 28.3601 47.811 28.3601C49.2922 28.3601 50.4972 27.1378 50.4972 25.6356C50.4972 24.1333 49.2922 22.911 47.811 22.911ZM47.811 27.2851C46.9147 27.2851 46.1847 26.5454 46.1847 25.6356C46.1847 24.7257 46.914 23.986 47.811 23.986C48.708 23.986 49.4373 24.7257 49.4373 25.6356C49.4373 26.5454 48.708 27.2851 47.811 27.2851ZM14.8982 22.8183C13.4171 22.8183 12.212 24.0406 12.212 25.5429C12.212 27.0452 13.4171 28.2675 14.8982 28.2675C16.3794 28.2675 17.5844 27.0452 17.5844 25.5429C17.5844 24.0406 16.3794 22.8183 14.8982 22.8183ZM14.8982 27.1925C14.0012 27.1925 13.2719 26.4527 13.2719 25.5429C13.2719 24.6331 14.0012 23.8934 14.8982 23.8934C15.7952 23.8934 16.5245 24.6331 16.5245 25.5429C16.5245 26.4527 15.7952 27.1925 14.8982 27.1925ZM33.4973 19.885C33.4973 20.1822 33.2601 20.4228 32.967 20.4228H30.8888C30.5963 20.4228 30.3585 20.1822 30.3585 19.885C30.3585 19.5877 30.5957 19.3471 30.8888 19.3471H32.967C33.2594 19.3471 33.4973 19.5877 33.4973 19.885ZM20.0519 19.4238C20.0519 19.7211 19.8147 19.9617 19.5216 19.9617H17.4434C17.1509 19.9617 16.9131 19.7211 16.9131 19.4238C16.9131 19.1266 17.1503 18.886 17.4434 18.886H19.5216C19.814 18.886 20.0519 19.1266 20.0519 19.4238Z" fill="white"/>
</svg>
